<?xml version="1.0" encoding="utf-8" standalone="no"?>
<!DOCTYPE svg PUBLIC "-//W3C//DTD SVG 1.1//EN"
  "http://www.w3.org/Graphics/SVG/1.1/DTD/svg11.dtd">
<svg xmlns:xlink="http://www.w3.org/1999/xlink" width="460.8pt" height="345.6pt" viewBox="0 0 460.8 345.6" xmlns="http://www.w3.org/2000/svg" version="1.1">
 <metadata>
  <rdf:RDF xmlns:dc="http://purl.org/dc/elements/1.1/" xmlns:cc="http://creativecommons.org/ns#" xmlns:rdf="http://www.w3.org/1999/02/22-rdf-syntax-ns#">
   <cc:Work>
    <dc:type rdf:resource="http://purl.org/dc/dcmitype/StillImage"/>
    <dc:date>2024-09-06T23:17:26.678855</dc:date>
    <dc:format>image/svg+xml</dc:format>
    <dc:creator>
     <cc:Agent>
      <dc:title>Matplotlib v3.8.3, https://matplotlib.org/</dc:title>
     </cc:Agent>
    </dc:creator>
   </cc:Work>
  </rdf:RDF>
 </metadata>
 <defs>
  <style type="text/css">*{stroke-linejoin: round; stroke-linecap: butt}</style>
 </defs>
 <g id="figure_1">
  <g id="patch_1">
   <path d="M 0 345.6 
L 460.8 345.6 
L 460.8 0 
L 0 0 
z
" style="fill: #ffffff"/>
  </g>
  <g id="axes_1">
   <g id="patch_2">
    <path d="M 57.6 307.584 
L 414.72 307.584 
L 414.72 41.472 
L 57.6 41.472 
z
" style="fill: #ffffff"/>
   </g>
   <g id="PathCollection_1">
    <defs>
     <path id="m85bd3c69ae" d="M 0 3 
C 0.795609 3 1.55874 2.683901 2.12132 2.12132 
C 2.683901 1.55874 3 0.795609 3 0 
C 3 -0.795609 2.683901 -1.55874 2.12132 -2.12132 
C 1.55874 -2.683901 0.795609 -3 0 -3 
C -0.795609 -3 -1.55874 -2.683901 -2.12132 -2.12132 
C -2.683901 -1.55874 -3 -0.795609 -3 0 
C -3 0.795609 -2.683901 1.55874 -2.12132 2.12132 
C -1.55874 2.683901 -0.795609 3 0 3 
z
" style="stroke: #000000"/>
    </defs>
    <g clip-path="url(#pb2cd161b13)">
     <use xlink:href="#m85bd3c69ae" x="73.832727" y="215.135597" style="stroke: #000000"/>
     <use xlink:href="#m85bd3c69ae" x="103.929458" y="206.736937" style="stroke: #000000"/>
     <use xlink:href="#m85bd3c69ae" x="337.736465" y="197.082854" style="stroke: #000000"/>
     <use xlink:href="#m85bd3c69ae" x="354.456871" y="186.834638" style="stroke: #000000"/>
     <use xlink:href="#m85bd3c69ae" x="362.259727" y="176.803231" style="stroke: #000000"/>
     <use xlink:href="#m85bd3c69ae" x="368.390542" y="167.227176" style="stroke: #000000"/>
     <use xlink:href="#m85bd3c69ae" x="391.79911" y="157.463295" style="stroke: #000000"/>
     <use xlink:href="#m85bd3c69ae" x="387.897682" y="150.553587" style="stroke: #000000"/>
     <use xlink:href="#m85bd3c69ae" x="390.96309" y="146.403582" style="stroke: #000000"/>
     <use xlink:href="#m85bd3c69ae" x="392.913804" y="143.19215" style="stroke: #000000"/>
     <use xlink:href="#m85bd3c69ae" x="393.192478" y="140.629748" style="stroke: #000000"/>
     <use xlink:href="#m85bd3c69ae" x="395.421865" y="138.40872" style="stroke: #000000"/>
     <use xlink:href="#m85bd3c69ae" x="398.208599" y="136.257361" style="stroke: #000000"/>
     <use xlink:href="#m85bd3c69ae" x="398.487273" y="134.550765" style="stroke: #000000"/>
     <use xlink:href="#m85bd3c69ae" x="398.487273" y="133.219821" style="stroke: #000000"/>
     <use xlink:href="#m85bd3c69ae" x="397.372579" y="131.912564" style="stroke: #000000"/>
     <use xlink:href="#m85bd3c69ae" x="394.028498" y="131.023038" style="stroke: #000000"/>
     <use xlink:href="#m85bd3c69ae" x="394.864518" y="130.027617" style="stroke: #000000"/>
     <use xlink:href="#m85bd3c69ae" x="396.536559" y="129.21389" style="stroke: #000000"/>
     <use xlink:href="#m85bd3c69ae" x="394.864518" y="128.394033" style="stroke: #000000"/>
     <use xlink:href="#m85bd3c69ae" x="398.208599" y="127.699858" style="stroke: #000000"/>
     <use xlink:href="#m85bd3c69ae" x="397.929926" y="127.142511" style="stroke: #000000"/>
     <use xlink:href="#m85bd3c69ae" x="395.143192" y="126.661521" style="stroke: #000000"/>
     <use xlink:href="#m85bd3c69ae" x="396.536559" y="126.181088" style="stroke: #000000"/>
     <use xlink:href="#m85bd3c69ae" x="398.487273" y="125.612872" style="stroke: #000000"/>
     <use xlink:href="#m85bd3c69ae" x="395.143192" y="125.20155" style="stroke: #000000"/>
     <use xlink:href="#m85bd3c69ae" x="395.143192" y="124.932073" style="stroke: #000000"/>
     <use xlink:href="#m85bd3c69ae" x="398.487273" y="124.469475" style="stroke: #000000"/>
    </g>
   </g>
   <g id="matplotlib.axis_1">
    <g id="xtick_1">
     <g id="line2d_1">
      <path d="M 73.832727 307.584 
L 73.832727 41.472 
" clip-path="url(#pb2cd161b13)" style="fill: none; stroke-dasharray: 1.85,0.8; stroke-dashoffset: 0; stroke: #b0b0b0; stroke-opacity: 0.7; stroke-width: 0.5"/>
     </g>
     <g id="line2d_2">
      <defs>
       <path id="m22c3b2a127" d="M 0 0 
L 0 3.5 
" style="stroke: #000000; stroke-width: 0.8"/>
      </defs>
      <g>
       <use xlink:href="#m22c3b2a127" x="73.832727" y="307.584" style="stroke: #000000; stroke-width: 0.8"/>
      </g>
     </g>
     <g id="text_1">
      <!-- 0 -->
      <g transform="translate(70.651477 322.182437) scale(0.1 -0.1)">
       <defs>
        <path id="DejaVuSans-30" d="M 2034 4250 
Q 1547 4250 1301 3770 
Q 1056 3291 1056 2328 
Q 1056 1369 1301 889 
Q 1547 409 2034 409 
Q 2525 409 2770 889 
Q 3016 1369 3016 2328 
Q 3016 3291 2770 3770 
Q 2525 4250 2034 4250 
z
M 2034 4750 
Q 2819 4750 3233 4129 
Q 3647 3509 3647 2328 
Q 3647 1150 3233 529 
Q 2819 -91 2034 -91 
Q 1250 -91 836 529 
Q 422 1150 422 2328 
Q 422 3509 836 4129 
Q 1250 4750 2034 4750 
z
" transform="scale(0.015625)"/>
       </defs>
       <use xlink:href="#DejaVuSans-30"/>
      </g>
     </g>
    </g>
    <g id="xtick_2">
     <g id="line2d_3">
      <path d="M 129.567413 307.584 
L 129.567413 41.472 
" clip-path="url(#pb2cd161b13)" style="fill: none; stroke-dasharray: 1.85,0.8; stroke-dashoffset: 0; stroke: #b0b0b0; stroke-opacity: 0.7; stroke-width: 0.5"/>
     </g>
     <g id="line2d_4">
      <g>
       <use xlink:href="#m22c3b2a127" x="129.567413" y="307.584" style="stroke: #000000; stroke-width: 0.8"/>
      </g>
     </g>
     <g id="text_2">
      <!-- 200 -->
      <g transform="translate(120.023663 322.182437) scale(0.1 -0.1)">
       <defs>
        <path id="DejaVuSans-32" d="M 1228 531 
L 3431 531 
L 3431 0 
L 469 0 
L 469 531 
Q 828 903 1448 1529 
Q 2069 2156 2228 2338 
Q 2531 2678 2651 2914 
Q 2772 3150 2772 3378 
Q 2772 3750 2511 3984 
Q 2250 4219 1831 4219 
Q 1534 4219 1204 4116 
Q 875 4013 500 3803 
L 500 4441 
Q 881 4594 1212 4672 
Q 1544 4750 1819 4750 
Q 2544 4750 2975 4387 
Q 3406 4025 3406 3419 
Q 3406 3131 3298 2873 
Q 3191 2616 2906 2266 
Q 2828 2175 2409 1742 
Q 1991 1309 1228 531 
z
" transform="scale(0.015625)"/>
       </defs>
       <use xlink:href="#DejaVuSans-32"/>
       <use xlink:href="#DejaVuSans-30" x="63.623047"/>
       <use xlink:href="#DejaVuSans-30" x="127.246094"/>
      </g>
     </g>
    </g>
    <g id="xtick_3">
     <g id="line2d_5">
      <path d="M 185.302099 307.584 
L 185.302099 41.472 
" clip-path="url(#pb2cd161b13)" style="fill: none; stroke-dasharray: 1.85,0.8; stroke-dashoffset: 0; stroke: #b0b0b0; stroke-opacity: 0.7; stroke-width: 0.5"/>
     </g>
     <g id="line2d_6">
      <g>
       <use xlink:href="#m22c3b2a127" x="185.302099" y="307.584" style="stroke: #000000; stroke-width: 0.8"/>
      </g>
     </g>
     <g id="text_3">
      <!-- 400 -->
      <g transform="translate(175.758349 322.182437) scale(0.1 -0.1)">
       <defs>
        <path id="DejaVuSans-34" d="M 2419 4116 
L 825 1625 
L 2419 1625 
L 2419 4116 
z
M 2253 4666 
L 3047 4666 
L 3047 1625 
L 3713 1625 
L 3713 1100 
L 3047 1100 
L 3047 0 
L 2419 0 
L 2419 1100 
L 313 1100 
L 313 1709 
L 2253 4666 
z
" transform="scale(0.015625)"/>
       </defs>
       <use xlink:href="#DejaVuSans-34"/>
       <use xlink:href="#DejaVuSans-30" x="63.623047"/>
       <use xlink:href="#DejaVuSans-30" x="127.246094"/>
      </g>
     </g>
    </g>
    <g id="xtick_4">
     <g id="line2d_7">
      <path d="M 241.036785 307.584 
L 241.036785 41.472 
" clip-path="url(#pb2cd161b13)" style="fill: none; stroke-dasharray: 1.85,0.8; stroke-dashoffset: 0; stroke: #b0b0b0; stroke-opacity: 0.7; stroke-width: 0.5"/>
     </g>
     <g id="line2d_8">
      <g>
       <use xlink:href="#m22c3b2a127" x="241.036785" y="307.584" style="stroke: #000000; stroke-width: 0.8"/>
      </g>
     </g>
     <g id="text_4">
      <!-- 600 -->
      <g transform="translate(231.493035 322.182437) scale(0.1 -0.1)">
       <defs>
        <path id="DejaVuSans-36" d="M 2113 2584 
Q 1688 2584 1439 2293 
Q 1191 2003 1191 1497 
Q 1191 994 1439 701 
Q 1688 409 2113 409 
Q 2538 409 2786 701 
Q 3034 994 3034 1497 
Q 3034 2003 2786 2293 
Q 2538 2584 2113 2584 
z
M 3366 4563 
L 3366 3988 
Q 3128 4100 2886 4159 
Q 2644 4219 2406 4219 
Q 1781 4219 1451 3797 
Q 1122 3375 1075 2522 
Q 1259 2794 1537 2939 
Q 1816 3084 2150 3084 
Q 2853 3084 3261 2657 
Q 3669 2231 3669 1497 
Q 3669 778 3244 343 
Q 2819 -91 2113 -91 
Q 1303 -91 875 529 
Q 447 1150 447 2328 
Q 447 3434 972 4092 
Q 1497 4750 2381 4750 
Q 2619 4750 2861 4703 
Q 3103 4656 3366 4563 
z
" transform="scale(0.015625)"/>
       </defs>
       <use xlink:href="#DejaVuSans-36"/>
       <use xlink:href="#DejaVuSans-30" x="63.623047"/>
       <use xlink:href="#DejaVuSans-30" x="127.246094"/>
      </g>
     </g>
    </g>
    <g id="xtick_5">
     <g id="line2d_9">
      <path d="M 296.771471 307.584 
L 296.771471 41.472 
" clip-path="url(#pb2cd161b13)" style="fill: none; stroke-dasharray: 1.85,0.8; stroke-dashoffset: 0; stroke: #b0b0b0; stroke-opacity: 0.7; stroke-width: 0.5"/>
     </g>
     <g id="line2d_10">
      <g>
       <use xlink:href="#m22c3b2a127" x="296.771471" y="307.584" style="stroke: #000000; stroke-width: 0.8"/>
      </g>
     </g>
     <g id="text_5">
      <!-- 800 -->
      <g transform="translate(287.227721 322.182437) scale(0.1 -0.1)">
       <defs>
        <path id="DejaVuSans-38" d="M 2034 2216 
Q 1584 2216 1326 1975 
Q 1069 1734 1069 1313 
Q 1069 891 1326 650 
Q 1584 409 2034 409 
Q 2484 409 2743 651 
Q 3003 894 3003 1313 
Q 3003 1734 2745 1975 
Q 2488 2216 2034 2216 
z
M 1403 2484 
Q 997 2584 770 2862 
Q 544 3141 544 3541 
Q 544 4100 942 4425 
Q 1341 4750 2034 4750 
Q 2731 4750 3128 4425 
Q 3525 4100 3525 3541 
Q 3525 3141 3298 2862 
Q 3072 2584 2669 2484 
Q 3125 2378 3379 2068 
Q 3634 1759 3634 1313 
Q 3634 634 3220 271 
Q 2806 -91 2034 -91 
Q 1263 -91 848 271 
Q 434 634 434 1313 
Q 434 1759 690 2068 
Q 947 2378 1403 2484 
z
M 1172 3481 
Q 1172 3119 1398 2916 
Q 1625 2713 2034 2713 
Q 2441 2713 2670 2916 
Q 2900 3119 2900 3481 
Q 2900 3844 2670 4047 
Q 2441 4250 2034 4250 
Q 1625 4250 1398 4047 
Q 1172 3844 1172 3481 
z
" transform="scale(0.015625)"/>
       </defs>
       <use xlink:href="#DejaVuSans-38"/>
       <use xlink:href="#DejaVuSans-30" x="63.623047"/>
       <use xlink:href="#DejaVuSans-30" x="127.246094"/>
      </g>
     </g>
    </g>
    <g id="xtick_6">
     <g id="line2d_11">
      <path d="M 352.506157 307.584 
L 352.506157 41.472 
" clip-path="url(#pb2cd161b13)" style="fill: none; stroke-dasharray: 1.85,0.8; stroke-dashoffset: 0; stroke: #b0b0b0; stroke-opacity: 0.7; stroke-width: 0.5"/>
     </g>
     <g id="line2d_12">
      <g>
       <use xlink:href="#m22c3b2a127" x="352.506157" y="307.584" style="stroke: #000000; stroke-width: 0.8"/>
      </g>
     </g>
     <g id="text_6">
      <!-- 1000 -->
      <g transform="translate(339.781157 322.182437) scale(0.1 -0.1)">
       <defs>
        <path id="DejaVuSans-31" d="M 794 531 
L 1825 531 
L 1825 4091 
L 703 3866 
L 703 4441 
L 1819 4666 
L 2450 4666 
L 2450 531 
L 3481 531 
L 3481 0 
L 794 0 
L 794 531 
z
" transform="scale(0.015625)"/>
       </defs>
       <use xlink:href="#DejaVuSans-31"/>
       <use xlink:href="#DejaVuSans-30" x="63.623047"/>
       <use xlink:href="#DejaVuSans-30" x="127.246094"/>
       <use xlink:href="#DejaVuSans-30" x="190.869141"/>
      </g>
     </g>
    </g>
    <g id="xtick_7">
     <g id="line2d_13">
      <path d="M 408.240843 307.584 
L 408.240843 41.472 
" clip-path="url(#pb2cd161b13)" style="fill: none; stroke-dasharray: 1.85,0.8; stroke-dashoffset: 0; stroke: #b0b0b0; stroke-opacity: 0.7; stroke-width: 0.5"/>
     </g>
     <g id="line2d_14">
      <g>
       <use xlink:href="#m22c3b2a127" x="408.240843" y="307.584" style="stroke: #000000; stroke-width: 0.8"/>
      </g>
     </g>
     <g id="text_7">
      <!-- 1200 -->
      <g transform="translate(395.515843 322.182437) scale(0.1 -0.1)">
       <use xlink:href="#DejaVuSans-31"/>
       <use xlink:href="#DejaVuSans-32" x="63.623047"/>
       <use xlink:href="#DejaVuSans-30" x="127.246094"/>
       <use xlink:href="#DejaVuSans-30" x="190.869141"/>
      </g>
     </g>
    </g>
   </g>
   <g id="matplotlib.axis_2">
    <g id="ytick_1">
     <g id="line2d_15">
      <path d="M 57.6 278.881308 
L 414.72 278.881308 
" clip-path="url(#pb2cd161b13)" style="fill: none; stroke-dasharray: 1.85,0.8; stroke-dashoffset: 0; stroke: #b0b0b0; stroke-opacity: 0.7; stroke-width: 0.5"/>
     </g>
     <g id="line2d_16">
      <defs>
       <path id="m5987efb6c6" d="M 0 0 
L -3.5 0 
" style="stroke: #000000; stroke-width: 0.8"/>
      </defs>
      <g>
       <use xlink:href="#m5987efb6c6" x="57.6" y="278.881308" style="stroke: #000000; stroke-width: 0.8"/>
      </g>
     </g>
     <g id="text_8">
      <!-- −200 -->
      <g transform="translate(23.132812 282.680527) scale(0.1 -0.1)">
       <defs>
        <path id="DejaVuSans-2212" d="M 678 2272 
L 4684 2272 
L 4684 1741 
L 678 1741 
L 678 2272 
z
" transform="scale(0.015625)"/>
       </defs>
       <use xlink:href="#DejaVuSans-2212"/>
       <use xlink:href="#DejaVuSans-32" x="83.789062"/>
       <use xlink:href="#DejaVuSans-30" x="147.412109"/>
       <use xlink:href="#DejaVuSans-30" x="211.035156"/>
      </g>
     </g>
    </g>
    <g id="ytick_2">
     <g id="line2d_17">
      <path d="M 57.6 223.146622 
L 414.72 223.146622 
" clip-path="url(#pb2cd161b13)" style="fill: none; stroke-dasharray: 1.85,0.8; stroke-dashoffset: 0; stroke: #b0b0b0; stroke-opacity: 0.7; stroke-width: 0.5"/>
     </g>
     <g id="line2d_18">
      <g>
       <use xlink:href="#m5987efb6c6" x="57.6" y="223.146622" style="stroke: #000000; stroke-width: 0.8"/>
      </g>
     </g>
     <g id="text_9">
      <!-- 0 -->
      <g transform="translate(44.2375 226.945841) scale(0.1 -0.1)">
       <use xlink:href="#DejaVuSans-30"/>
      </g>
     </g>
    </g>
    <g id="ytick_3">
     <g id="line2d_19">
      <path d="M 57.6 167.411936 
L 414.72 167.411936 
" clip-path="url(#pb2cd161b13)" style="fill: none; stroke-dasharray: 1.85,0.8; stroke-dashoffset: 0; stroke: #b0b0b0; stroke-opacity: 0.7; stroke-width: 0.5"/>
     </g>
     <g id="line2d_20">
      <g>
       <use xlink:href="#m5987efb6c6" x="57.6" y="167.411936" style="stroke: #000000; stroke-width: 0.8"/>
      </g>
     </g>
     <g id="text_10">
      <!-- 200 -->
      <g transform="translate(31.5125 171.211155) scale(0.1 -0.1)">
       <use xlink:href="#DejaVuSans-32"/>
       <use xlink:href="#DejaVuSans-30" x="63.623047"/>
       <use xlink:href="#DejaVuSans-30" x="127.246094"/>
      </g>
     </g>
    </g>
    <g id="ytick_4">
     <g id="line2d_21">
      <path d="M 57.6 111.67725 
L 414.72 111.67725 
" clip-path="url(#pb2cd161b13)" style="fill: none; stroke-dasharray: 1.85,0.8; stroke-dashoffset: 0; stroke: #b0b0b0; stroke-opacity: 0.7; stroke-width: 0.5"/>
     </g>
     <g id="line2d_22">
      <g>
       <use xlink:href="#m5987efb6c6" x="57.6" y="111.67725" style="stroke: #000000; stroke-width: 0.8"/>
      </g>
     </g>
     <g id="text_11">
      <!-- 400 -->
      <g transform="translate(31.5125 115.476469) scale(0.1 -0.1)">
       <use xlink:href="#DejaVuSans-34"/>
       <use xlink:href="#DejaVuSans-30" x="63.623047"/>
       <use xlink:href="#DejaVuSans-30" x="127.246094"/>
      </g>
     </g>
    </g>
    <g id="ytick_5">
     <g id="line2d_23">
      <path d="M 57.6 55.942564 
L 414.72 55.942564 
" clip-path="url(#pb2cd161b13)" style="fill: none; stroke-dasharray: 1.85,0.8; stroke-dashoffset: 0; stroke: #b0b0b0; stroke-opacity: 0.7; stroke-width: 0.5"/>
     </g>
     <g id="line2d_24">
      <g>
       <use xlink:href="#m5987efb6c6" x="57.6" y="55.942564" style="stroke: #000000; stroke-width: 0.8"/>
      </g>
     </g>
     <g id="text_12">
      <!-- 600 -->
      <g transform="translate(31.5125 59.741783) scale(0.1 -0.1)">
       <use xlink:href="#DejaVuSans-36"/>
       <use xlink:href="#DejaVuSans-30" x="63.623047"/>
       <use xlink:href="#DejaVuSans-30" x="127.246094"/>
      </g>
     </g>
    </g>
   </g>
   <g id="line2d_25">
    <path d="M 73.832727 224.586525 
L 103.929458 216.546561 
L 337.736465 154.087955 
L 354.456871 149.621309 
L 362.259727 147.536874 
L 368.390542 145.899104 
L 391.79911 139.645799 
L 387.897682 140.688016 
L 390.96309 139.869131 
L 392.913804 139.348022 
L 393.192478 139.273578 
L 395.421865 138.678025 
L 398.208599 137.933584 
L 398.487273 137.85914 
L 398.487273 137.85914 
L 397.372579 138.156917 
L 394.028498 139.050246 
L 394.864518 138.826914 
L 396.536559 138.380249 
L 394.864518 138.826914 
L 398.208599 137.933584 
L 397.929926 138.008028 
L 395.143192 138.752469 
L 396.536559 138.380249 
L 398.487273 137.85914 
L 395.143192 138.752469 
L 395.143192 138.752469 
L 398.487273 137.85914 
" clip-path="url(#pb2cd161b13)" style="fill: none; stroke: #1f77b4; stroke-width: 1.5; stroke-linecap: square"/>
   </g>
   <g id="line2d_26">
    <path d="M 73.832727 200.879615 
L 103.929458 224.248849 
L 337.736465 197.38408 
L 354.456871 181.314209 
L 362.259727 173.168619 
L 368.390542 166.479978 
L 391.79911 138.605978 
L 387.897682 143.508703 
L 390.96309 139.665218 
L 392.913804 137.186314 
L 393.192478 136.830086 
L 395.421865 133.961379 
L 398.208599 130.328281 
L 398.487273 129.962086 
L 398.487273 129.962086 
L 397.372579 131.423719 
L 394.028498 135.758256 
L 394.864518 134.681704 
L 396.536559 132.514436 
L 394.864518 134.681704 
L 398.208599 130.328281 
L 397.929926 130.693952 
L 395.143192 134.321804 
L 396.536559 132.514436 
L 398.487273 129.962086 
L 395.143192 134.321804 
L 395.143192 134.321804 
L 398.487273 129.962086 
" clip-path="url(#pb2cd161b13)" style="fill: none; stroke: #ff7f0e; stroke-width: 1.5; stroke-linecap: square"/>
   </g>
   <g id="line2d_27">
    <path d="M 73.832727 223.146622 
L 103.929458 190.212577 
L 337.736465 150.586771 
L 354.456871 148.946811 
L 362.259727 148.202744 
L 368.390542 147.627056 
L 391.79911 145.496518 
L 387.897682 145.84451 
L 390.96309 145.570858 
L 392.913804 145.397591 
L 393.192478 145.372894 
L 395.421865 145.175807 
L 398.208599 144.930667 
L 398.487273 144.906226 
L 398.487273 144.906226 
L 397.372579 145.004067 
L 394.028498 145.298884 
L 394.864518 145.224997 
L 396.536559 145.077589 
L 394.864518 145.224997 
L 398.208599 144.930667 
L 397.929926 144.95512 
L 395.143192 145.200395 
L 396.536559 145.077589 
L 398.487273 144.906226 
L 395.143192 145.200395 
L 395.143192 145.200395 
L 398.487273 144.906226 
" clip-path="url(#pb2cd161b13)" style="fill: none; stroke: #2ca02c; stroke-width: 1.5; stroke-linecap: square"/>
   </g>
   <g id="line2d_28">
    <path d="M 73.832727 214.293015 
L 103.929458 212.23026 
L 337.736465 167.596617 
L 354.456871 160.742091 
L 362.259727 157.259924 
L 368.390542 154.388161 
L 391.79911 142.223806 
L 387.897682 144.391251 
L 390.96309 142.693225 
L 392.913804 141.59365 
L 393.192478 141.435346 
L 395.421865 140.157801 
L 398.208599 138.532744 
L 398.487273 138.368499 
L 398.487273 138.368499 
L 397.372579 139.023574 
L 394.028498 140.958588 
L 394.864518 140.479048 
L 396.536559 139.511558 
L 394.864518 140.479048 
L 398.208599 138.532744 
L 397.929926 138.696672 
L 395.143192 140.31858 
L 396.536559 139.511558 
L 398.487273 138.368499 
L 395.143192 140.31858 
L 395.143192 140.31858 
L 398.487273 138.368499 
" clip-path="url(#pb2cd161b13)" style="fill: none; stroke: #d62728; stroke-width: 1.5; stroke-linecap: square"/>
   </g>
   <g id="patch_3">
    <path d="M 57.6 307.584 
L 57.6 41.472 
" style="fill: none; stroke: #000000; stroke-width: 0.8; stroke-linejoin: miter; stroke-linecap: square"/>
   </g>
   <g id="patch_4">
    <path d="M 414.72 307.584 
L 414.72 41.472 
" style="fill: none; stroke: #000000; stroke-width: 0.8; stroke-linejoin: miter; stroke-linecap: square"/>
   </g>
   <g id="patch_5">
    <path d="M 57.6 307.584 
L 414.72 307.584 
" style="fill: none; stroke: #000000; stroke-width: 0.8; stroke-linejoin: miter; stroke-linecap: square"/>
   </g>
   <g id="patch_6">
    <path d="M 57.6 41.472 
L 414.72 41.472 
" style="fill: none; stroke: #000000; stroke-width: 0.8; stroke-linejoin: miter; stroke-linecap: square"/>
   </g>
   <g id="legend_1">
    <g id="patch_7">
     <path d="M 137.07 122.862625 
L 407.72 122.862625 
Q 409.72 122.862625 409.72 120.862625 
L 409.72 48.472 
Q 409.72 46.472 407.72 46.472 
L 137.07 46.472 
Q 135.07 46.472 135.07 48.472 
L 135.07 120.862625 
Q 135.07 122.862625 137.07 122.862625 
z
" style="fill: #ffffff; opacity: 0.8; stroke: #cccccc; stroke-linejoin: miter"/>
    </g>
    <g id="PathCollection_2">
     <g>
      <use xlink:href="#m85bd3c69ae" x="149.07" y="55.445438" style="stroke: #000000"/>
     </g>
    </g>
    <g id="text_13">
     <!-- Дискретные значения -->
     <g transform="translate(167.07 58.070438) scale(0.1 -0.1)">
      <defs>
       <path id="DejaVuSans-414" d="M 1459 531 
L 3522 531 
L 3522 4134 
L 2006 4134 
L 2006 3472 
Q 2006 1913 1656 878 
Q 1584 666 1459 531 
z
M 538 531 
Q 956 728 1075 1103 
Q 1378 2066 1378 3784 
L 1378 4666 
L 4153 4666 
L 4153 531 
L 4684 531 
L 4684 -1003 
L 4153 -1003 
L 4153 0 
L 847 0 
L 847 -1003 
L 316 -1003 
L 316 531 
L 538 531 
z
" transform="scale(0.015625)"/>
       <path id="DejaVuSans-438" d="M 3578 3500 
L 3578 0 
L 3006 0 
L 3006 2809 
L 1319 0 
L 581 0 
L 581 3500 
L 1153 3500 
L 1153 697 
L 2838 3500 
L 3578 3500 
z
" transform="scale(0.015625)"/>
       <path id="DejaVuSans-441" d="M 3122 3366 
L 3122 2828 
Q 2878 2963 2633 3030 
Q 2388 3097 2138 3097 
Q 1578 3097 1268 2742 
Q 959 2388 959 1747 
Q 959 1106 1268 751 
Q 1578 397 2138 397 
Q 2388 397 2633 464 
Q 2878 531 3122 666 
L 3122 134 
Q 2881 22 2623 -34 
Q 2366 -91 2075 -91 
Q 1284 -91 818 406 
Q 353 903 353 1747 
Q 353 2603 823 3093 
Q 1294 3584 2113 3584 
Q 2378 3584 2631 3529 
Q 2884 3475 3122 3366 
z
" transform="scale(0.015625)"/>
       <path id="DejaVuSans-43a" d="M 581 3500 
L 1153 3500 
L 1153 1856 
L 2775 3500 
L 3481 3500 
L 2144 2147 
L 3653 0 
L 3009 0 
L 1769 1766 
L 1153 1141 
L 1153 0 
L 581 0 
L 581 3500 
z
" transform="scale(0.015625)"/>
       <path id="DejaVuSans-440" d="M 1159 525 
L 1159 -1331 
L 581 -1331 
L 581 3500 
L 1159 3500 
L 1159 2969 
Q 1341 3281 1617 3432 
Q 1894 3584 2278 3584 
Q 2916 3584 3314 3078 
Q 3713 2572 3713 1747 
Q 3713 922 3314 415 
Q 2916 -91 2278 -91 
Q 1894 -91 1617 61 
Q 1341 213 1159 525 
z
M 3116 1747 
Q 3116 2381 2855 2742 
Q 2594 3103 2138 3103 
Q 1681 3103 1420 2742 
Q 1159 2381 1159 1747 
Q 1159 1113 1420 752 
Q 1681 391 2138 391 
Q 2594 391 2855 752 
Q 3116 1113 3116 1747 
z
" transform="scale(0.015625)"/>
       <path id="DejaVuSans-435" d="M 3597 1894 
L 3597 1613 
L 953 1613 
Q 991 1019 1311 708 
Q 1631 397 2203 397 
Q 2534 397 2845 478 
Q 3156 559 3463 722 
L 3463 178 
Q 3153 47 2828 -22 
Q 2503 -91 2169 -91 
Q 1331 -91 842 396 
Q 353 884 353 1716 
Q 353 2575 817 3079 
Q 1281 3584 2069 3584 
Q 2775 3584 3186 3129 
Q 3597 2675 3597 1894 
z
M 3022 2063 
Q 3016 2534 2758 2815 
Q 2500 3097 2075 3097 
Q 1594 3097 1305 2825 
Q 1016 2553 972 2059 
L 3022 2063 
z
" transform="scale(0.015625)"/>
       <path id="DejaVuSans-442" d="M 188 3500 
L 3541 3500 
L 3541 3041 
L 2147 3041 
L 2147 0 
L 1581 0 
L 1581 3041 
L 188 3041 
L 188 3500 
z
" transform="scale(0.015625)"/>
       <path id="DejaVuSans-43d" d="M 581 3500 
L 1159 3500 
L 1159 2072 
L 3025 2072 
L 3025 3500 
L 3603 3500 
L 3603 0 
L 3025 0 
L 3025 1613 
L 1159 1613 
L 1159 0 
L 581 0 
L 581 3500 
z
" transform="scale(0.015625)"/>
       <path id="DejaVuSans-44b" d="M 3907 3500 
L 4482 3500 
L 4482 0 
L 3907 0 
L 3907 3500 
z
M 4195 3584 
L 4195 3584 
z
M 2781 1038 
Q 2781 1319 2576 1466 
Q 2372 1613 1978 1613 
L 1159 1613 
L 1159 459 
L 1978 459 
Q 2372 459 2576 607 
Q 2781 756 2781 1038 
z
M 581 3500 
L 1159 3500 
L 1159 2072 
L 2003 2072 
Q 2672 2072 3033 1817 
Q 3394 1563 3394 1038 
Q 3394 513 3033 256 
Q 2672 0 2003 0 
L 581 0 
L 581 3500 
z
" transform="scale(0.015625)"/>
       <path id="DejaVuSans-20" transform="scale(0.015625)"/>
       <path id="DejaVuSans-437" d="M 2206 1888 
Q 2594 1813 2809 1584 
Q 3025 1356 3025 1019 
Q 3025 478 2622 193 
Q 2219 -91 1475 -91 
Q 1225 -91 961 -47 
Q 697 -3 416 84 
L 416 619 
Q 638 503 903 445 
Q 1169 388 1459 388 
Q 1931 388 2195 563 
Q 2459 738 2459 1019 
Q 2459 1294 2225 1461 
Q 1991 1628 1563 1628 
L 1100 1628 
L 1100 2103 
L 1584 2103 
Q 1947 2103 2158 2242 
Q 2369 2381 2369 2600 
Q 2369 2800 2151 2944 
Q 1934 3088 1563 3088 
Q 1341 3088 1089 3047 
Q 838 3006 534 2916 
L 534 3438 
Q 841 3513 1106 3550 
Q 1372 3588 1609 3588 
Q 2222 3588 2576 3342 
Q 2931 3097 2931 2656 
Q 2931 2366 2743 2164 
Q 2556 1963 2206 1888 
z
" transform="scale(0.015625)"/>
       <path id="DejaVuSans-430" d="M 2194 1759 
Q 1497 1759 1228 1600 
Q 959 1441 959 1056 
Q 959 750 1161 570 
Q 1363 391 1709 391 
Q 2188 391 2477 730 
Q 2766 1069 2766 1631 
L 2766 1759 
L 2194 1759 
z
M 3341 1997 
L 3341 0 
L 2766 0 
L 2766 531 
Q 2569 213 2275 61 
Q 1981 -91 1556 -91 
Q 1019 -91 701 211 
Q 384 513 384 1019 
Q 384 1609 779 1909 
Q 1175 2209 1959 2209 
L 2766 2209 
L 2766 2266 
Q 2766 2663 2505 2880 
Q 2244 3097 1772 3097 
Q 1472 3097 1187 3025 
Q 903 2953 641 2809 
L 641 3341 
Q 956 3463 1253 3523 
Q 1550 3584 1831 3584 
Q 2591 3584 2966 3190 
Q 3341 2797 3341 1997 
z
" transform="scale(0.015625)"/>
       <path id="DejaVuSans-447" d="M 2625 0 
L 2625 1472 
L 1553 1472 
Q 1075 1472 756 1769 
Q 469 2038 469 2613 
L 469 3500 
L 1044 3500 
L 1044 2666 
Q 1044 2300 1206 2116 
Q 1372 1931 1697 1931 
L 2625 1931 
L 2625 3500 
L 3200 3500 
L 3200 0 
L 2625 0 
z
" transform="scale(0.015625)"/>
       <path id="DejaVuSans-44f" d="M 1181 2491 
Q 1181 2231 1381 2084 
Q 1581 1938 1953 1938 
L 2728 1938 
L 2728 3041 
L 1953 3041 
Q 1581 3041 1381 2897 
Q 1181 2753 1181 2491 
z
M 363 0 
L 1431 1534 
Q 1069 1616 828 1830 
Q 588 2044 588 2491 
Q 588 2997 923 3248 
Q 1259 3500 1938 3500 
L 3306 3500 
L 3306 0 
L 2728 0 
L 2728 1478 
L 2013 1478 
L 981 0 
L 363 0 
z
" transform="scale(0.015625)"/>
      </defs>
      <use xlink:href="#DejaVuSans-414"/>
      <use xlink:href="#DejaVuSans-438" x="78.125"/>
      <use xlink:href="#DejaVuSans-441" x="143.115234"/>
      <use xlink:href="#DejaVuSans-43a" x="198.095703"/>
      <use xlink:href="#DejaVuSans-440" x="258.496094"/>
      <use xlink:href="#DejaVuSans-435" x="321.972656"/>
      <use xlink:href="#DejaVuSans-442" x="383.496094"/>
      <use xlink:href="#DejaVuSans-43d" x="441.748047"/>
      <use xlink:href="#DejaVuSans-44b" x="507.128906"/>
      <use xlink:href="#DejaVuSans-435" x="586.083984"/>
      <use xlink:href="#DejaVuSans-20" x="647.607422"/>
      <use xlink:href="#DejaVuSans-437" x="679.394531"/>
      <use xlink:href="#DejaVuSans-43d" x="732.568359"/>
      <use xlink:href="#DejaVuSans-430" x="797.949219"/>
      <use xlink:href="#DejaVuSans-447" x="859.228516"/>
      <use xlink:href="#DejaVuSans-435" x="918.310547"/>
      <use xlink:href="#DejaVuSans-43d" x="979.833984"/>
      <use xlink:href="#DejaVuSans-438" x="1045.214844"/>
      <use xlink:href="#DejaVuSans-44f" x="1110.205078"/>
     </g>
    </g>
    <g id="line2d_29">
     <path d="M 139.07 69.248563 
L 149.07 69.248563 
L 159.07 69.248563 
" style="fill: none; stroke: #1f77b4; stroke-width: 1.5; stroke-linecap: square"/>
    </g>
    <g id="text_14">
     <!-- Аппроксимирующая линейная функция -->
     <g transform="translate(167.07 72.748563) scale(0.1 -0.1)">
      <defs>
       <path id="DejaVuSans-410" d="M 2188 4044 
L 1331 1722 
L 3047 1722 
L 2188 4044 
z
M 1831 4666 
L 2547 4666 
L 4325 0 
L 3669 0 
L 3244 1197 
L 1141 1197 
L 716 0 
L 50 0 
L 1831 4666 
z
" transform="scale(0.015625)"/>
       <path id="DejaVuSans-43f" d="M 3603 3500 
L 3603 0 
L 3025 0 
L 3025 3041 
L 1159 3041 
L 1159 0 
L 581 0 
L 581 3500 
L 3603 3500 
z
" transform="scale(0.015625)"/>
       <path id="DejaVuSans-43e" d="M 1959 3097 
Q 1497 3097 1228 2736 
Q 959 2375 959 1747 
Q 959 1119 1226 758 
Q 1494 397 1959 397 
Q 2419 397 2687 759 
Q 2956 1122 2956 1747 
Q 2956 2369 2687 2733 
Q 2419 3097 1959 3097 
z
M 1959 3584 
Q 2709 3584 3137 3096 
Q 3566 2609 3566 1747 
Q 3566 888 3137 398 
Q 2709 -91 1959 -91 
Q 1206 -91 779 398 
Q 353 888 353 1747 
Q 353 2609 779 3096 
Q 1206 3584 1959 3584 
z
" transform="scale(0.015625)"/>
       <path id="DejaVuSans-43c" d="M 581 3500 
L 1422 3500 
L 2416 1156 
L 3413 3500 
L 4247 3500 
L 4247 0 
L 3669 0 
L 3669 2950 
L 2703 672 
L 2128 672 
L 1159 2950 
L 1159 0 
L 581 0 
L 581 3500 
z
" transform="scale(0.015625)"/>
       <path id="DejaVuSans-443" d="M 2059 -325 
Q 1816 -950 1584 -1140 
Q 1353 -1331 966 -1331 
L 506 -1331 
L 506 -850 
L 844 -850 
Q 1081 -850 1212 -737 
Q 1344 -625 1503 -206 
L 1606 56 
L 191 3500 
L 800 3500 
L 1894 763 
L 2988 3500 
L 3597 3500 
L 2059 -325 
z
" transform="scale(0.015625)"/>
       <path id="DejaVuSans-44e" d="M 3431 3097 
Q 2969 3097 2700 2736 
Q 2431 2375 2431 1747 
Q 2431 1119 2698 758 
Q 2966 397 3431 397 
Q 3891 397 4159 759 
Q 4428 1122 4428 1747 
Q 4428 2369 4159 2733 
Q 3891 3097 3431 3097 
z
M 1844 2103 
Q 1903 2697 2292 3140 
Q 2681 3584 3431 3584 
Q 4181 3584 4609 3096 
Q 5038 2609 5038 1747 
Q 5038 888 4609 398 
Q 4181 -91 3431 -91 
Q 2678 -91 2267 381 
Q 1856 853 1828 1628 
L 1178 1628 
L 1178 0 
L 603 0 
L 603 3500 
L 1178 3500 
L 1178 2103 
L 1844 2103 
z
" transform="scale(0.015625)"/>
       <path id="DejaVuSans-449" d="M 5275 0 
L 581 0 
L 581 3500 
L 1159 3500 
L 1159 459 
L 2638 459 
L 2638 3500 
L 3216 3500 
L 3216 459 
L 4697 459 
L 4697 3500 
L 5275 3500 
L 5275 459 
L 5734 459 
L 5734 -884 
L 5275 -884 
L 5275 0 
z
" transform="scale(0.015625)"/>
       <path id="DejaVuSans-43b" d="M 238 0 
L 238 478 
Q 806 566 981 959 
Q 1194 1513 1194 2928 
L 1194 3500 
L 3559 3500 
L 3559 0 
L 2984 0 
L 2984 3041 
L 1769 3041 
L 1769 2694 
Q 1769 1344 1494 738 
Q 1200 91 238 0 
z
" transform="scale(0.015625)"/>
       <path id="DejaVuSans-439" d="M 3578 3500 
L 3578 0 
L 3006 0 
L 3006 2809 
L 1319 0 
L 581 0 
L 581 3500 
L 1153 3500 
L 1153 697 
L 2838 3500 
L 3578 3500 
z
M 1102 4833 
L 1471 4833 
Q 1505 4599 1656 4481 
Q 1808 4364 2080 4364 
Q 2349 4364 2499 4480 
Q 2649 4596 2689 4833 
L 3058 4833 
Q 3027 4386 2780 4161 
Q 2533 3936 2080 3936 
Q 1627 3936 1380 4161 
Q 1133 4386 1102 4833 
z
" transform="scale(0.015625)"/>
       <path id="DejaVuSans-444" d="M 947 1747 
Q 947 1013 1173 702 
Q 1400 391 1784 391 
Q 2091 391 2447 916 
L 2447 2578 
Q 2091 3103 1784 3103 
Q 1400 3103 1173 2792 
Q 947 2481 947 1747 
z
M 2447 -1331 
L 2447 447 
Q 2269 153 2064 31 
Q 1859 -91 1600 -91 
Q 1078 -91 714 392 
Q 350 875 350 1734 
Q 350 2594 714 3089 
Q 1078 3584 1600 3584 
Q 1859 3584 2064 3465 
Q 2269 3347 2447 3053 
L 2447 4666 
L 3025 4666 
L 3025 3053 
Q 3203 3347 3408 3465 
Q 3613 3584 3872 3584 
Q 4394 3584 4758 3089 
Q 5122 2594 5122 1734 
Q 5122 875 4758 392 
Q 4394 -91 3872 -91 
Q 3613 -91 3408 31 
Q 3203 153 3025 447 
L 3025 -1331 
L 2447 -1331 
z
M 4525 1747 
Q 4525 2481 4298 2792 
Q 4072 3103 3688 3103 
Q 3381 3103 3025 2578 
L 3025 916 
Q 3381 391 3688 391 
Q 4072 391 4298 702 
Q 4525 1013 4525 1747 
z
" transform="scale(0.015625)"/>
       <path id="DejaVuSans-446" d="M 3603 0 
L 581 0 
L 581 3500 
L 1159 3500 
L 1159 459 
L 3025 459 
L 3025 3500 
L 3603 3500 
L 3603 459 
L 4063 459 
L 4063 -884 
L 3603 -884 
L 3603 0 
z
" transform="scale(0.015625)"/>
      </defs>
      <use xlink:href="#DejaVuSans-410"/>
      <use xlink:href="#DejaVuSans-43f" x="68.408203"/>
      <use xlink:href="#DejaVuSans-43f" x="133.789062"/>
      <use xlink:href="#DejaVuSans-440" x="199.169922"/>
      <use xlink:href="#DejaVuSans-43e" x="262.646484"/>
      <use xlink:href="#DejaVuSans-43a" x="323.828125"/>
      <use xlink:href="#DejaVuSans-441" x="384.228516"/>
      <use xlink:href="#DejaVuSans-438" x="439.208984"/>
      <use xlink:href="#DejaVuSans-43c" x="504.199219"/>
      <use xlink:href="#DejaVuSans-438" x="579.638672"/>
      <use xlink:href="#DejaVuSans-440" x="644.628906"/>
      <use xlink:href="#DejaVuSans-443" x="708.105469"/>
      <use xlink:href="#DejaVuSans-44e" x="767.285156"/>
      <use xlink:href="#DejaVuSans-449" x="851.464844"/>
      <use xlink:href="#DejaVuSans-430" x="945.654297"/>
      <use xlink:href="#DejaVuSans-44f" x="1006.933594"/>
      <use xlink:href="#DejaVuSans-20" x="1067.089844"/>
      <use xlink:href="#DejaVuSans-43b" x="1098.876953"/>
      <use xlink:href="#DejaVuSans-438" x="1162.792969"/>
      <use xlink:href="#DejaVuSans-43d" x="1227.783203"/>
      <use xlink:href="#DejaVuSans-435" x="1293.164062"/>
      <use xlink:href="#DejaVuSans-439" x="1354.6875"/>
      <use xlink:href="#DejaVuSans-43d" x="1419.677734"/>
      <use xlink:href="#DejaVuSans-430" x="1485.058594"/>
      <use xlink:href="#DejaVuSans-44f" x="1546.337891"/>
      <use xlink:href="#DejaVuSans-20" x="1606.494141"/>
      <use xlink:href="#DejaVuSans-444" x="1638.28125"/>
      <use xlink:href="#DejaVuSans-443" x="1723.779297"/>
      <use xlink:href="#DejaVuSans-43d" x="1782.958984"/>
      <use xlink:href="#DejaVuSans-43a" x="1848.339844"/>
      <use xlink:href="#DejaVuSans-446" x="1908.740234"/>
      <use xlink:href="#DejaVuSans-438" x="1976.806641"/>
      <use xlink:href="#DejaVuSans-44f" x="2041.796875"/>
     </g>
    </g>
    <g id="line2d_30">
     <path d="M 139.07 83.926688 
L 149.07 83.926688 
L 159.07 83.926688 
" style="fill: none; stroke: #ff7f0e; stroke-width: 1.5; stroke-linecap: square"/>
    </g>
    <g id="text_15">
     <!-- Аппроксимирующая квадратичная функция -->
     <g transform="translate(167.07 87.426688) scale(0.1 -0.1)">
      <defs>
       <path id="DejaVuSans-432" d="M 1156 1613 
L 1156 459 
L 1975 459 
Q 2369 459 2575 607 
Q 2781 756 2781 1038 
Q 2781 1319 2575 1466 
Q 2369 1613 1975 1613 
L 1156 1613 
z
M 1156 3041 
L 1156 2072 
L 1913 2072 
Q 2238 2072 2444 2201 
Q 2650 2331 2650 2563 
Q 2650 2794 2444 2917 
Q 2238 3041 1913 3041 
L 1156 3041 
z
M 581 3500 
L 1950 3500 
Q 2566 3500 2897 3275 
Q 3228 3050 3228 2634 
Q 3228 2313 3059 2123 
Q 2891 1934 2559 1888 
Q 2956 1813 3175 1575 
Q 3394 1338 3394 981 
Q 3394 513 3033 256 
Q 2672 0 2003 0 
L 581 0 
L 581 3500 
z
" transform="scale(0.015625)"/>
       <path id="DejaVuSans-434" d="M 1384 459 
L 3053 459 
L 3053 3041 
L 1844 3041 
L 1844 2603 
Q 1844 1316 1475 628 
L 1384 459 
z
M 550 459 
Q 834 584 959 850 
Q 1266 1509 1266 2838 
L 1266 3500 
L 3631 3500 
L 3631 459 
L 4091 459 
L 4091 -884 
L 3631 -884 
L 3631 0 
L 794 0 
L 794 -884 
L 334 -884 
L 334 459 
L 550 459 
z
" transform="scale(0.015625)"/>
      </defs>
      <use xlink:href="#DejaVuSans-410"/>
      <use xlink:href="#DejaVuSans-43f" x="68.408203"/>
      <use xlink:href="#DejaVuSans-43f" x="133.789062"/>
      <use xlink:href="#DejaVuSans-440" x="199.169922"/>
      <use xlink:href="#DejaVuSans-43e" x="262.646484"/>
      <use xlink:href="#DejaVuSans-43a" x="323.828125"/>
      <use xlink:href="#DejaVuSans-441" x="384.228516"/>
      <use xlink:href="#DejaVuSans-438" x="439.208984"/>
      <use xlink:href="#DejaVuSans-43c" x="504.199219"/>
      <use xlink:href="#DejaVuSans-438" x="579.638672"/>
      <use xlink:href="#DejaVuSans-440" x="644.628906"/>
      <use xlink:href="#DejaVuSans-443" x="708.105469"/>
      <use xlink:href="#DejaVuSans-44e" x="767.285156"/>
      <use xlink:href="#DejaVuSans-449" x="851.464844"/>
      <use xlink:href="#DejaVuSans-430" x="945.654297"/>
      <use xlink:href="#DejaVuSans-44f" x="1006.933594"/>
      <use xlink:href="#DejaVuSans-20" x="1067.089844"/>
      <use xlink:href="#DejaVuSans-43a" x="1098.876953"/>
      <use xlink:href="#DejaVuSans-432" x="1159.277344"/>
      <use xlink:href="#DejaVuSans-430" x="1218.212891"/>
      <use xlink:href="#DejaVuSans-434" x="1279.492188"/>
      <use xlink:href="#DejaVuSans-440" x="1348.632812"/>
      <use xlink:href="#DejaVuSans-430" x="1412.109375"/>
      <use xlink:href="#DejaVuSans-442" x="1473.388672"/>
      <use xlink:href="#DejaVuSans-438" x="1531.640625"/>
      <use xlink:href="#DejaVuSans-447" x="1596.630859"/>
      <use xlink:href="#DejaVuSans-43d" x="1655.712891"/>
      <use xlink:href="#DejaVuSans-430" x="1721.09375"/>
      <use xlink:href="#DejaVuSans-44f" x="1782.373047"/>
      <use xlink:href="#DejaVuSans-20" x="1842.529297"/>
      <use xlink:href="#DejaVuSans-444" x="1874.316406"/>
      <use xlink:href="#DejaVuSans-443" x="1959.814453"/>
      <use xlink:href="#DejaVuSans-43d" x="2018.994141"/>
      <use xlink:href="#DejaVuSans-43a" x="2084.375"/>
      <use xlink:href="#DejaVuSans-446" x="2144.775391"/>
      <use xlink:href="#DejaVuSans-438" x="2212.841797"/>
      <use xlink:href="#DejaVuSans-44f" x="2277.832031"/>
     </g>
    </g>
    <g id="line2d_31">
     <path d="M 139.07 98.604813 
L 149.07 98.604813 
L 159.07 98.604813 
" style="fill: none; stroke: #2ca02c; stroke-width: 1.5; stroke-linecap: square"/>
    </g>
    <g id="text_16">
     <!-- Аппроксимирующая степенная функция -->
     <g transform="translate(167.07 102.104813) scale(0.1 -0.1)">
      <use xlink:href="#DejaVuSans-410"/>
      <use xlink:href="#DejaVuSans-43f" x="68.408203"/>
      <use xlink:href="#DejaVuSans-43f" x="133.789062"/>
      <use xlink:href="#DejaVuSans-440" x="199.169922"/>
      <use xlink:href="#DejaVuSans-43e" x="262.646484"/>
      <use xlink:href="#DejaVuSans-43a" x="323.828125"/>
      <use xlink:href="#DejaVuSans-441" x="384.228516"/>
      <use xlink:href="#DejaVuSans-438" x="439.208984"/>
      <use xlink:href="#DejaVuSans-43c" x="504.199219"/>
      <use xlink:href="#DejaVuSans-438" x="579.638672"/>
      <use xlink:href="#DejaVuSans-440" x="644.628906"/>
      <use xlink:href="#DejaVuSans-443" x="708.105469"/>
      <use xlink:href="#DejaVuSans-44e" x="767.285156"/>
      <use xlink:href="#DejaVuSans-449" x="851.464844"/>
      <use xlink:href="#DejaVuSans-430" x="945.654297"/>
      <use xlink:href="#DejaVuSans-44f" x="1006.933594"/>
      <use xlink:href="#DejaVuSans-20" x="1067.089844"/>
      <use xlink:href="#DejaVuSans-441" x="1098.876953"/>
      <use xlink:href="#DejaVuSans-442" x="1153.857422"/>
      <use xlink:href="#DejaVuSans-435" x="1212.109375"/>
      <use xlink:href="#DejaVuSans-43f" x="1273.632812"/>
      <use xlink:href="#DejaVuSans-435" x="1339.013672"/>
      <use xlink:href="#DejaVuSans-43d" x="1400.537109"/>
      <use xlink:href="#DejaVuSans-43d" x="1465.917969"/>
      <use xlink:href="#DejaVuSans-430" x="1531.298828"/>
      <use xlink:href="#DejaVuSans-44f" x="1592.578125"/>
      <use xlink:href="#DejaVuSans-20" x="1652.734375"/>
      <use xlink:href="#DejaVuSans-444" x="1684.521484"/>
      <use xlink:href="#DejaVuSans-443" x="1770.019531"/>
      <use xlink:href="#DejaVuSans-43d" x="1829.199219"/>
      <use xlink:href="#DejaVuSans-43a" x="1894.580078"/>
      <use xlink:href="#DejaVuSans-446" x="1954.980469"/>
      <use xlink:href="#DejaVuSans-438" x="2023.046875"/>
      <use xlink:href="#DejaVuSans-44f" x="2088.037109"/>
     </g>
    </g>
    <g id="line2d_32">
     <path d="M 139.07 113.282938 
L 149.07 113.282938 
L 159.07 113.282938 
" style="fill: none; stroke: #d62728; stroke-width: 1.5; stroke-linecap: square"/>
    </g>
    <g id="text_17">
     <!-- Аппроксимирующая показательная функция -->
     <g transform="translate(167.07 116.782938) scale(0.1 -0.1)">
      <defs>
       <path id="DejaVuSans-44c" d="M 2781 1038 
Q 2781 1319 2576 1466 
Q 2372 1613 1978 1613 
L 1159 1613 
L 1159 459 
L 1978 459 
Q 2372 459 2576 607 
Q 2781 756 2781 1038 
z
M 581 3500 
L 1159 3500 
L 1159 2072 
L 2003 2072 
Q 2672 2072 3033 1817 
Q 3394 1563 3394 1038 
Q 3394 513 3033 256 
Q 2672 0 2003 0 
L 581 0 
L 581 3500 
z
" transform="scale(0.015625)"/>
      </defs>
      <use xlink:href="#DejaVuSans-410"/>
      <use xlink:href="#DejaVuSans-43f" x="68.408203"/>
      <use xlink:href="#DejaVuSans-43f" x="133.789062"/>
      <use xlink:href="#DejaVuSans-440" x="199.169922"/>
      <use xlink:href="#DejaVuSans-43e" x="262.646484"/>
      <use xlink:href="#DejaVuSans-43a" x="323.828125"/>
      <use xlink:href="#DejaVuSans-441" x="384.228516"/>
      <use xlink:href="#DejaVuSans-438" x="439.208984"/>
      <use xlink:href="#DejaVuSans-43c" x="504.199219"/>
      <use xlink:href="#DejaVuSans-438" x="579.638672"/>
      <use xlink:href="#DejaVuSans-440" x="644.628906"/>
      <use xlink:href="#DejaVuSans-443" x="708.105469"/>
      <use xlink:href="#DejaVuSans-44e" x="767.285156"/>
      <use xlink:href="#DejaVuSans-449" x="851.464844"/>
      <use xlink:href="#DejaVuSans-430" x="945.654297"/>
      <use xlink:href="#DejaVuSans-44f" x="1006.933594"/>
      <use xlink:href="#DejaVuSans-20" x="1067.089844"/>
      <use xlink:href="#DejaVuSans-43f" x="1098.876953"/>
      <use xlink:href="#DejaVuSans-43e" x="1164.257812"/>
      <use xlink:href="#DejaVuSans-43a" x="1225.439453"/>
      <use xlink:href="#DejaVuSans-430" x="1285.839844"/>
      <use xlink:href="#DejaVuSans-437" x="1347.119141"/>
      <use xlink:href="#DejaVuSans-430" x="1400.292969"/>
      <use xlink:href="#DejaVuSans-442" x="1461.572266"/>
      <use xlink:href="#DejaVuSans-435" x="1519.824219"/>
      <use xlink:href="#DejaVuSans-43b" x="1581.347656"/>
      <use xlink:href="#DejaVuSans-44c" x="1645.263672"/>
      <use xlink:href="#DejaVuSans-43d" x="1704.199219"/>
      <use xlink:href="#DejaVuSans-430" x="1769.580078"/>
      <use xlink:href="#DejaVuSans-44f" x="1830.859375"/>
      <use xlink:href="#DejaVuSans-20" x="1891.015625"/>
      <use xlink:href="#DejaVuSans-444" x="1922.802734"/>
      <use xlink:href="#DejaVuSans-443" x="2008.300781"/>
      <use xlink:href="#DejaVuSans-43d" x="2067.480469"/>
      <use xlink:href="#DejaVuSans-43a" x="2132.861328"/>
      <use xlink:href="#DejaVuSans-446" x="2193.261719"/>
      <use xlink:href="#DejaVuSans-438" x="2261.328125"/>
      <use xlink:href="#DejaVuSans-44f" x="2326.318359"/>
     </g>
    </g>
   </g>
  </g>
 </g>
 <defs>
  <clipPath id="pb2cd161b13">
   <rect x="57.6" y="41.472" width="357.12" height="266.112"/>
  </clipPath>
 </defs>
</svg>
