<?xml version="1.0" encoding="utf-8" standalone="no"?>
<!DOCTYPE svg PUBLIC "-//W3C//DTD SVG 1.1//EN"
  "http://www.w3.org/Graphics/SVG/1.1/DTD/svg11.dtd">
<svg xmlns:xlink="http://www.w3.org/1999/xlink" width="460.8pt" height="345.6pt" viewBox="0 0 460.8 345.6" xmlns="http://www.w3.org/2000/svg" version="1.1">
 <metadata>
  <rdf:RDF xmlns:dc="http://purl.org/dc/elements/1.1/" xmlns:cc="http://creativecommons.org/ns#" xmlns:rdf="http://www.w3.org/1999/02/22-rdf-syntax-ns#">
   <cc:Work>
    <dc:type rdf:resource="http://purl.org/dc/dcmitype/StillImage"/>
    <dc:date>2024-09-06T11:01:23.210495</dc:date>
    <dc:format>image/svg+xml</dc:format>
    <dc:creator>
     <cc:Agent>
      <dc:title>Matplotlib v3.8.3, https://matplotlib.org/</dc:title>
     </cc:Agent>
    </dc:creator>
   </cc:Work>
  </rdf:RDF>
 </metadata>
 <defs>
  <style type="text/css">*{stroke-linejoin: round; stroke-linecap: butt}</style>
 </defs>
 <g id="figure_1">
  <g id="patch_1">
   <path d="M 0 345.6 
L 460.8 345.6 
L 460.8 0 
L 0 0 
z
" style="fill: #ffffff"/>
  </g>
  <g id="axes_1">
   <g id="patch_2">
    <path d="M 57.6 307.584 
L 414.72 307.584 
L 414.72 41.472 
L 57.6 41.472 
z
" style="fill: #ffffff"/>
   </g>
   <g id="matplotlib.axis_1">
    <g id="xtick_1">
     <g id="line2d_1">
      <path d="M 73.832727 307.584 
L 73.832727 41.472 
" clip-path="url(#pb49d5e12f3)" style="fill: none; stroke: #b0b0b0; stroke-width: 0.8; stroke-linecap: square"/>
     </g>
     <g id="line2d_2">
      <defs>
       <path id="mc9a2b66926" d="M 0 0 
L 0 3.5 
" style="stroke: #000000; stroke-width: 0.8"/>
      </defs>
      <g>
       <use xlink:href="#mc9a2b66926" x="73.832727" y="307.584" style="stroke: #000000; stroke-width: 0.8"/>
      </g>
     </g>
     <g id="text_1">
      <!-- 0 -->
      <g transform="translate(70.651477 322.182437) scale(0.1 -0.1)">
       <defs>
        <path id="DejaVuSans-30" d="M 2034 4250 
Q 1547 4250 1301 3770 
Q 1056 3291 1056 2328 
Q 1056 1369 1301 889 
Q 1547 409 2034 409 
Q 2525 409 2770 889 
Q 3016 1369 3016 2328 
Q 3016 3291 2770 3770 
Q 2525 4250 2034 4250 
z
M 2034 4750 
Q 2819 4750 3233 4129 
Q 3647 3509 3647 2328 
Q 3647 1150 3233 529 
Q 2819 -91 2034 -91 
Q 1250 -91 836 529 
Q 422 1150 422 2328 
Q 422 3509 836 4129 
Q 1250 4750 2034 4750 
z
" transform="scale(0.015625)"/>
       </defs>
       <use xlink:href="#DejaVuSans-30"/>
      </g>
     </g>
    </g>
    <g id="xtick_2">
     <g id="line2d_3">
      <path d="M 130.451936 307.584 
L 130.451936 41.472 
" clip-path="url(#pb49d5e12f3)" style="fill: none; stroke: #b0b0b0; stroke-width: 0.8; stroke-linecap: square"/>
     </g>
     <g id="line2d_4">
      <g>
       <use xlink:href="#mc9a2b66926" x="130.451936" y="307.584" style="stroke: #000000; stroke-width: 0.8"/>
      </g>
     </g>
     <g id="text_2">
      <!-- 50 -->
      <g transform="translate(124.089436 322.182437) scale(0.1 -0.1)">
       <defs>
        <path id="DejaVuSans-35" d="M 691 4666 
L 3169 4666 
L 3169 4134 
L 1269 4134 
L 1269 2991 
Q 1406 3038 1543 3061 
Q 1681 3084 1819 3084 
Q 2600 3084 3056 2656 
Q 3513 2228 3513 1497 
Q 3513 744 3044 326 
Q 2575 -91 1722 -91 
Q 1428 -91 1123 -41 
Q 819 9 494 109 
L 494 744 
Q 775 591 1075 516 
Q 1375 441 1709 441 
Q 2250 441 2565 725 
Q 2881 1009 2881 1497 
Q 2881 1984 2565 2268 
Q 2250 2553 1709 2553 
Q 1456 2553 1204 2497 
Q 953 2441 691 2322 
L 691 4666 
z
" transform="scale(0.015625)"/>
       </defs>
       <use xlink:href="#DejaVuSans-35"/>
       <use xlink:href="#DejaVuSans-30" x="63.623047"/>
      </g>
     </g>
    </g>
    <g id="xtick_3">
     <g id="line2d_5">
      <path d="M 187.071146 307.584 
L 187.071146 41.472 
" clip-path="url(#pb49d5e12f3)" style="fill: none; stroke: #b0b0b0; stroke-width: 0.8; stroke-linecap: square"/>
     </g>
     <g id="line2d_6">
      <g>
       <use xlink:href="#mc9a2b66926" x="187.071146" y="307.584" style="stroke: #000000; stroke-width: 0.8"/>
      </g>
     </g>
     <g id="text_3">
      <!-- 100 -->
      <g transform="translate(177.527396 322.182437) scale(0.1 -0.1)">
       <defs>
        <path id="DejaVuSans-31" d="M 794 531 
L 1825 531 
L 1825 4091 
L 703 3866 
L 703 4441 
L 1819 4666 
L 2450 4666 
L 2450 531 
L 3481 531 
L 3481 0 
L 794 0 
L 794 531 
z
" transform="scale(0.015625)"/>
       </defs>
       <use xlink:href="#DejaVuSans-31"/>
       <use xlink:href="#DejaVuSans-30" x="63.623047"/>
       <use xlink:href="#DejaVuSans-30" x="127.246094"/>
      </g>
     </g>
    </g>
    <g id="xtick_4">
     <g id="line2d_7">
      <path d="M 243.690355 307.584 
L 243.690355 41.472 
" clip-path="url(#pb49d5e12f3)" style="fill: none; stroke: #b0b0b0; stroke-width: 0.8; stroke-linecap: square"/>
     </g>
     <g id="line2d_8">
      <g>
       <use xlink:href="#mc9a2b66926" x="243.690355" y="307.584" style="stroke: #000000; stroke-width: 0.8"/>
      </g>
     </g>
     <g id="text_4">
      <!-- 150 -->
      <g transform="translate(234.146605 322.182437) scale(0.1 -0.1)">
       <use xlink:href="#DejaVuSans-31"/>
       <use xlink:href="#DejaVuSans-35" x="63.623047"/>
       <use xlink:href="#DejaVuSans-30" x="127.246094"/>
      </g>
     </g>
    </g>
    <g id="xtick_5">
     <g id="line2d_9">
      <path d="M 300.309564 307.584 
L 300.309564 41.472 
" clip-path="url(#pb49d5e12f3)" style="fill: none; stroke: #b0b0b0; stroke-width: 0.8; stroke-linecap: square"/>
     </g>
     <g id="line2d_10">
      <g>
       <use xlink:href="#mc9a2b66926" x="300.309564" y="307.584" style="stroke: #000000; stroke-width: 0.8"/>
      </g>
     </g>
     <g id="text_5">
      <!-- 200 -->
      <g transform="translate(290.765814 322.182437) scale(0.1 -0.1)">
       <defs>
        <path id="DejaVuSans-32" d="M 1228 531 
L 3431 531 
L 3431 0 
L 469 0 
L 469 531 
Q 828 903 1448 1529 
Q 2069 2156 2228 2338 
Q 2531 2678 2651 2914 
Q 2772 3150 2772 3378 
Q 2772 3750 2511 3984 
Q 2250 4219 1831 4219 
Q 1534 4219 1204 4116 
Q 875 4013 500 3803 
L 500 4441 
Q 881 4594 1212 4672 
Q 1544 4750 1819 4750 
Q 2544 4750 2975 4387 
Q 3406 4025 3406 3419 
Q 3406 3131 3298 2873 
Q 3191 2616 2906 2266 
Q 2828 2175 2409 1742 
Q 1991 1309 1228 531 
z
" transform="scale(0.015625)"/>
       </defs>
       <use xlink:href="#DejaVuSans-32"/>
       <use xlink:href="#DejaVuSans-30" x="63.623047"/>
       <use xlink:href="#DejaVuSans-30" x="127.246094"/>
      </g>
     </g>
    </g>
    <g id="xtick_6">
     <g id="line2d_11">
      <path d="M 356.928773 307.584 
L 356.928773 41.472 
" clip-path="url(#pb49d5e12f3)" style="fill: none; stroke: #b0b0b0; stroke-width: 0.8; stroke-linecap: square"/>
     </g>
     <g id="line2d_12">
      <g>
       <use xlink:href="#mc9a2b66926" x="356.928773" y="307.584" style="stroke: #000000; stroke-width: 0.8"/>
      </g>
     </g>
     <g id="text_6">
      <!-- 250 -->
      <g transform="translate(347.385023 322.182437) scale(0.1 -0.1)">
       <use xlink:href="#DejaVuSans-32"/>
       <use xlink:href="#DejaVuSans-35" x="63.623047"/>
       <use xlink:href="#DejaVuSans-30" x="127.246094"/>
      </g>
     </g>
    </g>
    <g id="xtick_7">
     <g id="line2d_13">
      <path d="M 413.547982 307.584 
L 413.547982 41.472 
" clip-path="url(#pb49d5e12f3)" style="fill: none; stroke: #b0b0b0; stroke-width: 0.8; stroke-linecap: square"/>
     </g>
     <g id="line2d_14">
      <g>
       <use xlink:href="#mc9a2b66926" x="413.547982" y="307.584" style="stroke: #000000; stroke-width: 0.8"/>
      </g>
     </g>
     <g id="text_7">
      <!-- 300 -->
      <g transform="translate(404.004232 322.182437) scale(0.1 -0.1)">
       <defs>
        <path id="DejaVuSans-33" d="M 2597 2516 
Q 3050 2419 3304 2112 
Q 3559 1806 3559 1356 
Q 3559 666 3084 287 
Q 2609 -91 1734 -91 
Q 1441 -91 1130 -33 
Q 819 25 488 141 
L 488 750 
Q 750 597 1062 519 
Q 1375 441 1716 441 
Q 2309 441 2620 675 
Q 2931 909 2931 1356 
Q 2931 1769 2642 2001 
Q 2353 2234 1838 2234 
L 1294 2234 
L 1294 2753 
L 1863 2753 
Q 2328 2753 2575 2939 
Q 2822 3125 2822 3475 
Q 2822 3834 2567 4026 
Q 2313 4219 1838 4219 
Q 1578 4219 1281 4162 
Q 984 4106 628 3988 
L 628 4550 
Q 988 4650 1302 4700 
Q 1616 4750 1894 4750 
Q 2613 4750 3031 4423 
Q 3450 4097 3450 3541 
Q 3450 3153 3228 2886 
Q 3006 2619 2597 2516 
z
" transform="scale(0.015625)"/>
       </defs>
       <use xlink:href="#DejaVuSans-33"/>
       <use xlink:href="#DejaVuSans-30" x="63.623047"/>
       <use xlink:href="#DejaVuSans-30" x="127.246094"/>
      </g>
     </g>
    </g>
    <g id="text_8">
     <!-- Число запросов в секунду -->
     <g transform="translate(167.292812 335.860562) scale(0.1 -0.1)">
      <defs>
       <path id="DejaVuSans-427" d="M 3125 0 
L 3125 1913 
L 1822 1913 
Q 1241 1913 894 2277 
Q 547 2641 547 3384 
L 547 4666 
L 1175 4666 
L 1175 3434 
Q 1175 2938 1369 2691 
Q 1563 2444 1950 2444 
L 3125 2444 
L 3125 4666 
L 3759 4666 
L 3759 0 
L 3125 0 
z
" transform="scale(0.015625)"/>
       <path id="DejaVuSans-438" d="M 3578 3500 
L 3578 0 
L 3006 0 
L 3006 2809 
L 1319 0 
L 581 0 
L 581 3500 
L 1153 3500 
L 1153 697 
L 2838 3500 
L 3578 3500 
z
" transform="scale(0.015625)"/>
       <path id="DejaVuSans-441" d="M 3122 3366 
L 3122 2828 
Q 2878 2963 2633 3030 
Q 2388 3097 2138 3097 
Q 1578 3097 1268 2742 
Q 959 2388 959 1747 
Q 959 1106 1268 751 
Q 1578 397 2138 397 
Q 2388 397 2633 464 
Q 2878 531 3122 666 
L 3122 134 
Q 2881 22 2623 -34 
Q 2366 -91 2075 -91 
Q 1284 -91 818 406 
Q 353 903 353 1747 
Q 353 2603 823 3093 
Q 1294 3584 2113 3584 
Q 2378 3584 2631 3529 
Q 2884 3475 3122 3366 
z
" transform="scale(0.015625)"/>
       <path id="DejaVuSans-43b" d="M 238 0 
L 238 478 
Q 806 566 981 959 
Q 1194 1513 1194 2928 
L 1194 3500 
L 3559 3500 
L 3559 0 
L 2984 0 
L 2984 3041 
L 1769 3041 
L 1769 2694 
Q 1769 1344 1494 738 
Q 1200 91 238 0 
z
" transform="scale(0.015625)"/>
       <path id="DejaVuSans-43e" d="M 1959 3097 
Q 1497 3097 1228 2736 
Q 959 2375 959 1747 
Q 959 1119 1226 758 
Q 1494 397 1959 397 
Q 2419 397 2687 759 
Q 2956 1122 2956 1747 
Q 2956 2369 2687 2733 
Q 2419 3097 1959 3097 
z
M 1959 3584 
Q 2709 3584 3137 3096 
Q 3566 2609 3566 1747 
Q 3566 888 3137 398 
Q 2709 -91 1959 -91 
Q 1206 -91 779 398 
Q 353 888 353 1747 
Q 353 2609 779 3096 
Q 1206 3584 1959 3584 
z
" transform="scale(0.015625)"/>
       <path id="DejaVuSans-20" transform="scale(0.015625)"/>
       <path id="DejaVuSans-437" d="M 2206 1888 
Q 2594 1813 2809 1584 
Q 3025 1356 3025 1019 
Q 3025 478 2622 193 
Q 2219 -91 1475 -91 
Q 1225 -91 961 -47 
Q 697 -3 416 84 
L 416 619 
Q 638 503 903 445 
Q 1169 388 1459 388 
Q 1931 388 2195 563 
Q 2459 738 2459 1019 
Q 2459 1294 2225 1461 
Q 1991 1628 1563 1628 
L 1100 1628 
L 1100 2103 
L 1584 2103 
Q 1947 2103 2158 2242 
Q 2369 2381 2369 2600 
Q 2369 2800 2151 2944 
Q 1934 3088 1563 3088 
Q 1341 3088 1089 3047 
Q 838 3006 534 2916 
L 534 3438 
Q 841 3513 1106 3550 
Q 1372 3588 1609 3588 
Q 2222 3588 2576 3342 
Q 2931 3097 2931 2656 
Q 2931 2366 2743 2164 
Q 2556 1963 2206 1888 
z
" transform="scale(0.015625)"/>
       <path id="DejaVuSans-430" d="M 2194 1759 
Q 1497 1759 1228 1600 
Q 959 1441 959 1056 
Q 959 750 1161 570 
Q 1363 391 1709 391 
Q 2188 391 2477 730 
Q 2766 1069 2766 1631 
L 2766 1759 
L 2194 1759 
z
M 3341 1997 
L 3341 0 
L 2766 0 
L 2766 531 
Q 2569 213 2275 61 
Q 1981 -91 1556 -91 
Q 1019 -91 701 211 
Q 384 513 384 1019 
Q 384 1609 779 1909 
Q 1175 2209 1959 2209 
L 2766 2209 
L 2766 2266 
Q 2766 2663 2505 2880 
Q 2244 3097 1772 3097 
Q 1472 3097 1187 3025 
Q 903 2953 641 2809 
L 641 3341 
Q 956 3463 1253 3523 
Q 1550 3584 1831 3584 
Q 2591 3584 2966 3190 
Q 3341 2797 3341 1997 
z
" transform="scale(0.015625)"/>
       <path id="DejaVuSans-43f" d="M 3603 3500 
L 3603 0 
L 3025 0 
L 3025 3041 
L 1159 3041 
L 1159 0 
L 581 0 
L 581 3500 
L 3603 3500 
z
" transform="scale(0.015625)"/>
       <path id="DejaVuSans-440" d="M 1159 525 
L 1159 -1331 
L 581 -1331 
L 581 3500 
L 1159 3500 
L 1159 2969 
Q 1341 3281 1617 3432 
Q 1894 3584 2278 3584 
Q 2916 3584 3314 3078 
Q 3713 2572 3713 1747 
Q 3713 922 3314 415 
Q 2916 -91 2278 -91 
Q 1894 -91 1617 61 
Q 1341 213 1159 525 
z
M 3116 1747 
Q 3116 2381 2855 2742 
Q 2594 3103 2138 3103 
Q 1681 3103 1420 2742 
Q 1159 2381 1159 1747 
Q 1159 1113 1420 752 
Q 1681 391 2138 391 
Q 2594 391 2855 752 
Q 3116 1113 3116 1747 
z
" transform="scale(0.015625)"/>
       <path id="DejaVuSans-432" d="M 1156 1613 
L 1156 459 
L 1975 459 
Q 2369 459 2575 607 
Q 2781 756 2781 1038 
Q 2781 1319 2575 1466 
Q 2369 1613 1975 1613 
L 1156 1613 
z
M 1156 3041 
L 1156 2072 
L 1913 2072 
Q 2238 2072 2444 2201 
Q 2650 2331 2650 2563 
Q 2650 2794 2444 2917 
Q 2238 3041 1913 3041 
L 1156 3041 
z
M 581 3500 
L 1950 3500 
Q 2566 3500 2897 3275 
Q 3228 3050 3228 2634 
Q 3228 2313 3059 2123 
Q 2891 1934 2559 1888 
Q 2956 1813 3175 1575 
Q 3394 1338 3394 981 
Q 3394 513 3033 256 
Q 2672 0 2003 0 
L 581 0 
L 581 3500 
z
" transform="scale(0.015625)"/>
       <path id="DejaVuSans-435" d="M 3597 1894 
L 3597 1613 
L 953 1613 
Q 991 1019 1311 708 
Q 1631 397 2203 397 
Q 2534 397 2845 478 
Q 3156 559 3463 722 
L 3463 178 
Q 3153 47 2828 -22 
Q 2503 -91 2169 -91 
Q 1331 -91 842 396 
Q 353 884 353 1716 
Q 353 2575 817 3079 
Q 1281 3584 2069 3584 
Q 2775 3584 3186 3129 
Q 3597 2675 3597 1894 
z
M 3022 2063 
Q 3016 2534 2758 2815 
Q 2500 3097 2075 3097 
Q 1594 3097 1305 2825 
Q 1016 2553 972 2059 
L 3022 2063 
z
" transform="scale(0.015625)"/>
       <path id="DejaVuSans-43a" d="M 581 3500 
L 1153 3500 
L 1153 1856 
L 2775 3500 
L 3481 3500 
L 2144 2147 
L 3653 0 
L 3009 0 
L 1769 1766 
L 1153 1141 
L 1153 0 
L 581 0 
L 581 3500 
z
" transform="scale(0.015625)"/>
       <path id="DejaVuSans-443" d="M 2059 -325 
Q 1816 -950 1584 -1140 
Q 1353 -1331 966 -1331 
L 506 -1331 
L 506 -850 
L 844 -850 
Q 1081 -850 1212 -737 
Q 1344 -625 1503 -206 
L 1606 56 
L 191 3500 
L 800 3500 
L 1894 763 
L 2988 3500 
L 3597 3500 
L 2059 -325 
z
" transform="scale(0.015625)"/>
       <path id="DejaVuSans-43d" d="M 581 3500 
L 1159 3500 
L 1159 2072 
L 3025 2072 
L 3025 3500 
L 3603 3500 
L 3603 0 
L 3025 0 
L 3025 1613 
L 1159 1613 
L 1159 0 
L 581 0 
L 581 3500 
z
" transform="scale(0.015625)"/>
       <path id="DejaVuSans-434" d="M 1384 459 
L 3053 459 
L 3053 3041 
L 1844 3041 
L 1844 2603 
Q 1844 1316 1475 628 
L 1384 459 
z
M 550 459 
Q 834 584 959 850 
Q 1266 1509 1266 2838 
L 1266 3500 
L 3631 3500 
L 3631 459 
L 4091 459 
L 4091 -884 
L 3631 -884 
L 3631 0 
L 794 0 
L 794 -884 
L 334 -884 
L 334 459 
L 550 459 
z
" transform="scale(0.015625)"/>
      </defs>
      <use xlink:href="#DejaVuSans-427"/>
      <use xlink:href="#DejaVuSans-438" x="68.554688"/>
      <use xlink:href="#DejaVuSans-441" x="133.544922"/>
      <use xlink:href="#DejaVuSans-43b" x="188.525391"/>
      <use xlink:href="#DejaVuSans-43e" x="252.441406"/>
      <use xlink:href="#DejaVuSans-20" x="313.623047"/>
      <use xlink:href="#DejaVuSans-437" x="345.410156"/>
      <use xlink:href="#DejaVuSans-430" x="398.583984"/>
      <use xlink:href="#DejaVuSans-43f" x="459.863281"/>
      <use xlink:href="#DejaVuSans-440" x="525.244141"/>
      <use xlink:href="#DejaVuSans-43e" x="588.720703"/>
      <use xlink:href="#DejaVuSans-441" x="649.902344"/>
      <use xlink:href="#DejaVuSans-43e" x="704.882812"/>
      <use xlink:href="#DejaVuSans-432" x="766.064453"/>
      <use xlink:href="#DejaVuSans-20" x="825"/>
      <use xlink:href="#DejaVuSans-432" x="856.787109"/>
      <use xlink:href="#DejaVuSans-20" x="915.722656"/>
      <use xlink:href="#DejaVuSans-441" x="947.509766"/>
      <use xlink:href="#DejaVuSans-435" x="1002.490234"/>
      <use xlink:href="#DejaVuSans-43a" x="1064.013672"/>
      <use xlink:href="#DejaVuSans-443" x="1124.414062"/>
      <use xlink:href="#DejaVuSans-43d" x="1183.59375"/>
      <use xlink:href="#DejaVuSans-434" x="1248.974609"/>
      <use xlink:href="#DejaVuSans-443" x="1318.115234"/>
     </g>
    </g>
   </g>
   <g id="matplotlib.axis_2">
    <g id="ytick_1">
     <g id="line2d_15">
      <path d="M 57.6 299.936085 
L 414.72 299.936085 
" clip-path="url(#pb49d5e12f3)" style="fill: none; stroke: #b0b0b0; stroke-width: 0.8; stroke-linecap: square"/>
     </g>
     <g id="line2d_16">
      <defs>
       <path id="m9b9e63ce4c" d="M 0 0 
L -3.5 0 
" style="stroke: #000000; stroke-width: 0.8"/>
      </defs>
      <g>
       <use xlink:href="#m9b9e63ce4c" x="57.6" y="299.936085" style="stroke: #000000; stroke-width: 0.8"/>
      </g>
     </g>
     <g id="text_9">
      <!-- 0 -->
      <g transform="translate(44.2375 303.735304) scale(0.1 -0.1)">
       <use xlink:href="#DejaVuSans-30"/>
      </g>
     </g>
    </g>
    <g id="ytick_2">
     <g id="line2d_17">
      <path d="M 57.6 264.109362 
L 414.72 264.109362 
" clip-path="url(#pb49d5e12f3)" style="fill: none; stroke: #b0b0b0; stroke-width: 0.8; stroke-linecap: square"/>
     </g>
     <g id="line2d_18">
      <g>
       <use xlink:href="#m9b9e63ce4c" x="57.6" y="264.109362" style="stroke: #000000; stroke-width: 0.8"/>
      </g>
     </g>
     <g id="text_10">
      <!-- 100 -->
      <g transform="translate(31.5125 267.908581) scale(0.1 -0.1)">
       <use xlink:href="#DejaVuSans-31"/>
       <use xlink:href="#DejaVuSans-30" x="63.623047"/>
       <use xlink:href="#DejaVuSans-30" x="127.246094"/>
      </g>
     </g>
    </g>
    <g id="ytick_3">
     <g id="line2d_19">
      <path d="M 57.6 228.28264 
L 414.72 228.28264 
" clip-path="url(#pb49d5e12f3)" style="fill: none; stroke: #b0b0b0; stroke-width: 0.8; stroke-linecap: square"/>
     </g>
     <g id="line2d_20">
      <g>
       <use xlink:href="#m9b9e63ce4c" x="57.6" y="228.28264" style="stroke: #000000; stroke-width: 0.8"/>
      </g>
     </g>
     <g id="text_11">
      <!-- 200 -->
      <g transform="translate(31.5125 232.081858) scale(0.1 -0.1)">
       <use xlink:href="#DejaVuSans-32"/>
       <use xlink:href="#DejaVuSans-30" x="63.623047"/>
       <use xlink:href="#DejaVuSans-30" x="127.246094"/>
      </g>
     </g>
    </g>
    <g id="ytick_4">
     <g id="line2d_21">
      <path d="M 57.6 192.455917 
L 414.72 192.455917 
" clip-path="url(#pb49d5e12f3)" style="fill: none; stroke: #b0b0b0; stroke-width: 0.8; stroke-linecap: square"/>
     </g>
     <g id="line2d_22">
      <g>
       <use xlink:href="#m9b9e63ce4c" x="57.6" y="192.455917" style="stroke: #000000; stroke-width: 0.8"/>
      </g>
     </g>
     <g id="text_12">
      <!-- 300 -->
      <g transform="translate(31.5125 196.255136) scale(0.1 -0.1)">
       <use xlink:href="#DejaVuSans-33"/>
       <use xlink:href="#DejaVuSans-30" x="63.623047"/>
       <use xlink:href="#DejaVuSans-30" x="127.246094"/>
      </g>
     </g>
    </g>
    <g id="ytick_5">
     <g id="line2d_23">
      <path d="M 57.6 156.629194 
L 414.72 156.629194 
" clip-path="url(#pb49d5e12f3)" style="fill: none; stroke: #b0b0b0; stroke-width: 0.8; stroke-linecap: square"/>
     </g>
     <g id="line2d_24">
      <g>
       <use xlink:href="#m9b9e63ce4c" x="57.6" y="156.629194" style="stroke: #000000; stroke-width: 0.8"/>
      </g>
     </g>
     <g id="text_13">
      <!-- 400 -->
      <g transform="translate(31.5125 160.428413) scale(0.1 -0.1)">
       <defs>
        <path id="DejaVuSans-34" d="M 2419 4116 
L 825 1625 
L 2419 1625 
L 2419 4116 
z
M 2253 4666 
L 3047 4666 
L 3047 1625 
L 3713 1625 
L 3713 1100 
L 3047 1100 
L 3047 0 
L 2419 0 
L 2419 1100 
L 313 1100 
L 313 1709 
L 2253 4666 
z
" transform="scale(0.015625)"/>
       </defs>
       <use xlink:href="#DejaVuSans-34"/>
       <use xlink:href="#DejaVuSans-30" x="63.623047"/>
       <use xlink:href="#DejaVuSans-30" x="127.246094"/>
      </g>
     </g>
    </g>
    <g id="ytick_6">
     <g id="line2d_25">
      <path d="M 57.6 120.802472 
L 414.72 120.802472 
" clip-path="url(#pb49d5e12f3)" style="fill: none; stroke: #b0b0b0; stroke-width: 0.8; stroke-linecap: square"/>
     </g>
     <g id="line2d_26">
      <g>
       <use xlink:href="#m9b9e63ce4c" x="57.6" y="120.802472" style="stroke: #000000; stroke-width: 0.8"/>
      </g>
     </g>
     <g id="text_14">
      <!-- 500 -->
      <g transform="translate(31.5125 124.60169) scale(0.1 -0.1)">
       <use xlink:href="#DejaVuSans-35"/>
       <use xlink:href="#DejaVuSans-30" x="63.623047"/>
       <use xlink:href="#DejaVuSans-30" x="127.246094"/>
      </g>
     </g>
    </g>
    <g id="ytick_7">
     <g id="line2d_27">
      <path d="M 57.6 84.975749 
L 414.72 84.975749 
" clip-path="url(#pb49d5e12f3)" style="fill: none; stroke: #b0b0b0; stroke-width: 0.8; stroke-linecap: square"/>
     </g>
     <g id="line2d_28">
      <g>
       <use xlink:href="#m9b9e63ce4c" x="57.6" y="84.975749" style="stroke: #000000; stroke-width: 0.8"/>
      </g>
     </g>
     <g id="text_15">
      <!-- 600 -->
      <g transform="translate(31.5125 88.774968) scale(0.1 -0.1)">
       <defs>
        <path id="DejaVuSans-36" d="M 2113 2584 
Q 1688 2584 1439 2293 
Q 1191 2003 1191 1497 
Q 1191 994 1439 701 
Q 1688 409 2113 409 
Q 2538 409 2786 701 
Q 3034 994 3034 1497 
Q 3034 2003 2786 2293 
Q 2538 2584 2113 2584 
z
M 3366 4563 
L 3366 3988 
Q 3128 4100 2886 4159 
Q 2644 4219 2406 4219 
Q 1781 4219 1451 3797 
Q 1122 3375 1075 2522 
Q 1259 2794 1537 2939 
Q 1816 3084 2150 3084 
Q 2853 3084 3261 2657 
Q 3669 2231 3669 1497 
Q 3669 778 3244 343 
Q 2819 -91 2113 -91 
Q 1303 -91 875 529 
Q 447 1150 447 2328 
Q 447 3434 972 4092 
Q 1497 4750 2381 4750 
Q 2619 4750 2861 4703 
Q 3103 4656 3366 4563 
z
" transform="scale(0.015625)"/>
       </defs>
       <use xlink:href="#DejaVuSans-36"/>
       <use xlink:href="#DejaVuSans-30" x="63.623047"/>
       <use xlink:href="#DejaVuSans-30" x="127.246094"/>
      </g>
     </g>
    </g>
    <g id="ytick_8">
     <g id="line2d_29">
      <path d="M 57.6 49.149026 
L 414.72 49.149026 
" clip-path="url(#pb49d5e12f3)" style="fill: none; stroke: #b0b0b0; stroke-width: 0.8; stroke-linecap: square"/>
     </g>
     <g id="line2d_30">
      <g>
       <use xlink:href="#m9b9e63ce4c" x="57.6" y="49.149026" style="stroke: #000000; stroke-width: 0.8"/>
      </g>
     </g>
     <g id="text_16">
      <!-- 700 -->
      <g transform="translate(31.5125 52.948245) scale(0.1 -0.1)">
       <defs>
        <path id="DejaVuSans-37" d="M 525 4666 
L 3525 4666 
L 3525 4397 
L 1831 0 
L 1172 0 
L 2766 4134 
L 525 4134 
L 525 4666 
z
" transform="scale(0.015625)"/>
       </defs>
       <use xlink:href="#DejaVuSans-37"/>
       <use xlink:href="#DejaVuSans-30" x="63.623047"/>
       <use xlink:href="#DejaVuSans-30" x="127.246094"/>
      </g>
     </g>
    </g>
    <g id="text_17">
     <!-- Среднее время ответа -->
     <g transform="translate(25.432812 234.276437) rotate(-90) scale(0.1 -0.1)">
      <defs>
       <path id="DejaVuSans-421" d="M 4122 4306 
L 4122 3641 
Q 3803 3938 3442 4084 
Q 3081 4231 2675 4231 
Q 1875 4231 1450 3742 
Q 1025 3253 1025 2328 
Q 1025 1406 1450 917 
Q 1875 428 2675 428 
Q 3081 428 3442 575 
Q 3803 722 4122 1019 
L 4122 359 
Q 3791 134 3420 21 
Q 3050 -91 2638 -91 
Q 1578 -91 968 557 
Q 359 1206 359 2328 
Q 359 3453 968 4101 
Q 1578 4750 2638 4750 
Q 3056 4750 3426 4639 
Q 3797 4528 4122 4306 
z
" transform="scale(0.015625)"/>
       <path id="DejaVuSans-43c" d="M 581 3500 
L 1422 3500 
L 2416 1156 
L 3413 3500 
L 4247 3500 
L 4247 0 
L 3669 0 
L 3669 2950 
L 2703 672 
L 2128 672 
L 1159 2950 
L 1159 0 
L 581 0 
L 581 3500 
z
" transform="scale(0.015625)"/>
       <path id="DejaVuSans-44f" d="M 1181 2491 
Q 1181 2231 1381 2084 
Q 1581 1938 1953 1938 
L 2728 1938 
L 2728 3041 
L 1953 3041 
Q 1581 3041 1381 2897 
Q 1181 2753 1181 2491 
z
M 363 0 
L 1431 1534 
Q 1069 1616 828 1830 
Q 588 2044 588 2491 
Q 588 2997 923 3248 
Q 1259 3500 1938 3500 
L 3306 3500 
L 3306 0 
L 2728 0 
L 2728 1478 
L 2013 1478 
L 981 0 
L 363 0 
z
" transform="scale(0.015625)"/>
       <path id="DejaVuSans-442" d="M 188 3500 
L 3541 3500 
L 3541 3041 
L 2147 3041 
L 2147 0 
L 1581 0 
L 1581 3041 
L 188 3041 
L 188 3500 
z
" transform="scale(0.015625)"/>
      </defs>
      <use xlink:href="#DejaVuSans-421"/>
      <use xlink:href="#DejaVuSans-440" x="69.824219"/>
      <use xlink:href="#DejaVuSans-435" x="133.300781"/>
      <use xlink:href="#DejaVuSans-434" x="194.824219"/>
      <use xlink:href="#DejaVuSans-43d" x="263.964844"/>
      <use xlink:href="#DejaVuSans-435" x="329.345703"/>
      <use xlink:href="#DejaVuSans-435" x="390.869141"/>
      <use xlink:href="#DejaVuSans-20" x="452.392578"/>
      <use xlink:href="#DejaVuSans-432" x="484.179688"/>
      <use xlink:href="#DejaVuSans-440" x="543.115234"/>
      <use xlink:href="#DejaVuSans-435" x="606.591797"/>
      <use xlink:href="#DejaVuSans-43c" x="668.115234"/>
      <use xlink:href="#DejaVuSans-44f" x="743.554688"/>
      <use xlink:href="#DejaVuSans-20" x="803.710938"/>
      <use xlink:href="#DejaVuSans-43e" x="835.498047"/>
      <use xlink:href="#DejaVuSans-442" x="896.679688"/>
      <use xlink:href="#DejaVuSans-432" x="954.931641"/>
      <use xlink:href="#DejaVuSans-435" x="1013.867188"/>
      <use xlink:href="#DejaVuSans-442" x="1075.390625"/>
      <use xlink:href="#DejaVuSans-430" x="1133.642578"/>
     </g>
    </g>
   </g>
   <g id="line2d_31">
    <path d="M 73.832727 287.488722 
L 73.832727 281.042127 
L 116.863326 275.333411 
L 135.736396 270.764947 
L 149.419372 266.330892 
L 156.043819 260.40119 
L 156.874234 253.932023 
L 158.92331 248.852901 
L 163.291078 243.203542 
L 164.046001 236.787745 
L 165.102892 232.69469 
L 176.313496 228.255904 
L 181.182748 223.105766 
L 183.107801 218.362709 
L 184.466662 215.43039 
L 184.693139 209.876837 
L 189.449152 206.69718 
L 190.694775 202.523453 
L 190.35506 198.118446 
L 193.752212 193.918177 
L 197.48908 190.233569 
L 200.546517 185.118604 
L 197.036126 180.244338 
L 196.922888 175.797004 
L 199.867087 171.017643 
L 201.452425 167.448199 
L 199.527372 162.457563 
L 201.678902 157.392403 
L 201.79214 154.336435 
L 201.225948 149.165251 
L 200.433279 147.050201 
L 199.527372 143.734326 
L 201.225948 139.506633 
L 199.300895 135.652262 
L 195.111073 130.369795 
L 197.149365 126.054604 
L 196.583173 121.883431 
L 196.80965 118.087455 
L 197.262603 116.486761 
L 198.847941 114.238882 
L 196.583173 109.715994 
L 195.790504 106.231256 
L 197.036126 100.027189 
L 202.358332 95.063372 
L 203.151001 90.83522 
L 200.546517 87.280019 
L 201.678902 84.07427 
L 203.377478 80.260444 
L 204.962816 77.263996 
L 202.811286 73.532749 
L 204.170147 72.326598 
L 204.509862 67.379297 
L 203.94367 63.447217 
L 199.074418 57.258596 
L 196.016981 53.568 
" clip-path="url(#pb49d5e12f3)" style="fill: none; stroke: #1f77b4; stroke-width: 1.5; stroke-linecap: square"/>
    <defs>
     <path id="ma157b008d1" d="M -3 3 
L 3 -3 
M -3 -3 
L 3 3 
" style="stroke: #1f77b4"/>
    </defs>
    <g clip-path="url(#pb49d5e12f3)">
     <use xlink:href="#ma157b008d1" x="73.832727" y="287.488722" style="fill: #1f77b4; stroke: #1f77b4"/>
     <use xlink:href="#ma157b008d1" x="73.832727" y="281.042127" style="fill: #1f77b4; stroke: #1f77b4"/>
     <use xlink:href="#ma157b008d1" x="116.863326" y="275.333411" style="fill: #1f77b4; stroke: #1f77b4"/>
     <use xlink:href="#ma157b008d1" x="135.736396" y="270.764947" style="fill: #1f77b4; stroke: #1f77b4"/>
     <use xlink:href="#ma157b008d1" x="149.419372" y="266.330892" style="fill: #1f77b4; stroke: #1f77b4"/>
     <use xlink:href="#ma157b008d1" x="156.043819" y="260.40119" style="fill: #1f77b4; stroke: #1f77b4"/>
     <use xlink:href="#ma157b008d1" x="156.874234" y="253.932023" style="fill: #1f77b4; stroke: #1f77b4"/>
     <use xlink:href="#ma157b008d1" x="158.92331" y="248.852901" style="fill: #1f77b4; stroke: #1f77b4"/>
     <use xlink:href="#ma157b008d1" x="163.291078" y="243.203542" style="fill: #1f77b4; stroke: #1f77b4"/>
     <use xlink:href="#ma157b008d1" x="164.046001" y="236.787745" style="fill: #1f77b4; stroke: #1f77b4"/>
     <use xlink:href="#ma157b008d1" x="165.102892" y="232.69469" style="fill: #1f77b4; stroke: #1f77b4"/>
     <use xlink:href="#ma157b008d1" x="176.313496" y="228.255904" style="fill: #1f77b4; stroke: #1f77b4"/>
     <use xlink:href="#ma157b008d1" x="181.182748" y="223.105766" style="fill: #1f77b4; stroke: #1f77b4"/>
     <use xlink:href="#ma157b008d1" x="183.107801" y="218.362709" style="fill: #1f77b4; stroke: #1f77b4"/>
     <use xlink:href="#ma157b008d1" x="184.466662" y="215.43039" style="fill: #1f77b4; stroke: #1f77b4"/>
     <use xlink:href="#ma157b008d1" x="184.693139" y="209.876837" style="fill: #1f77b4; stroke: #1f77b4"/>
     <use xlink:href="#ma157b008d1" x="189.449152" y="206.69718" style="fill: #1f77b4; stroke: #1f77b4"/>
     <use xlink:href="#ma157b008d1" x="190.694775" y="202.523453" style="fill: #1f77b4; stroke: #1f77b4"/>
     <use xlink:href="#ma157b008d1" x="190.35506" y="198.118446" style="fill: #1f77b4; stroke: #1f77b4"/>
     <use xlink:href="#ma157b008d1" x="193.752212" y="193.918177" style="fill: #1f77b4; stroke: #1f77b4"/>
     <use xlink:href="#ma157b008d1" x="197.48908" y="190.233569" style="fill: #1f77b4; stroke: #1f77b4"/>
     <use xlink:href="#ma157b008d1" x="200.546517" y="185.118604" style="fill: #1f77b4; stroke: #1f77b4"/>
     <use xlink:href="#ma157b008d1" x="197.036126" y="180.244338" style="fill: #1f77b4; stroke: #1f77b4"/>
     <use xlink:href="#ma157b008d1" x="196.922888" y="175.797004" style="fill: #1f77b4; stroke: #1f77b4"/>
     <use xlink:href="#ma157b008d1" x="199.867087" y="171.017643" style="fill: #1f77b4; stroke: #1f77b4"/>
     <use xlink:href="#ma157b008d1" x="201.452425" y="167.448199" style="fill: #1f77b4; stroke: #1f77b4"/>
     <use xlink:href="#ma157b008d1" x="199.527372" y="162.457563" style="fill: #1f77b4; stroke: #1f77b4"/>
     <use xlink:href="#ma157b008d1" x="201.678902" y="157.392403" style="fill: #1f77b4; stroke: #1f77b4"/>
     <use xlink:href="#ma157b008d1" x="201.79214" y="154.336435" style="fill: #1f77b4; stroke: #1f77b4"/>
     <use xlink:href="#ma157b008d1" x="201.225948" y="149.165251" style="fill: #1f77b4; stroke: #1f77b4"/>
     <use xlink:href="#ma157b008d1" x="200.433279" y="147.050201" style="fill: #1f77b4; stroke: #1f77b4"/>
     <use xlink:href="#ma157b008d1" x="199.527372" y="143.734326" style="fill: #1f77b4; stroke: #1f77b4"/>
     <use xlink:href="#ma157b008d1" x="201.225948" y="139.506633" style="fill: #1f77b4; stroke: #1f77b4"/>
     <use xlink:href="#ma157b008d1" x="199.300895" y="135.652262" style="fill: #1f77b4; stroke: #1f77b4"/>
     <use xlink:href="#ma157b008d1" x="195.111073" y="130.369795" style="fill: #1f77b4; stroke: #1f77b4"/>
     <use xlink:href="#ma157b008d1" x="197.149365" y="126.054604" style="fill: #1f77b4; stroke: #1f77b4"/>
     <use xlink:href="#ma157b008d1" x="196.583173" y="121.883431" style="fill: #1f77b4; stroke: #1f77b4"/>
     <use xlink:href="#ma157b008d1" x="196.80965" y="118.087455" style="fill: #1f77b4; stroke: #1f77b4"/>
     <use xlink:href="#ma157b008d1" x="197.262603" y="116.486761" style="fill: #1f77b4; stroke: #1f77b4"/>
     <use xlink:href="#ma157b008d1" x="198.847941" y="114.238882" style="fill: #1f77b4; stroke: #1f77b4"/>
     <use xlink:href="#ma157b008d1" x="196.583173" y="109.715994" style="fill: #1f77b4; stroke: #1f77b4"/>
     <use xlink:href="#ma157b008d1" x="195.790504" y="106.231256" style="fill: #1f77b4; stroke: #1f77b4"/>
     <use xlink:href="#ma157b008d1" x="197.036126" y="100.027189" style="fill: #1f77b4; stroke: #1f77b4"/>
     <use xlink:href="#ma157b008d1" x="202.358332" y="95.063372" style="fill: #1f77b4; stroke: #1f77b4"/>
     <use xlink:href="#ma157b008d1" x="203.151001" y="90.83522" style="fill: #1f77b4; stroke: #1f77b4"/>
     <use xlink:href="#ma157b008d1" x="200.546517" y="87.280019" style="fill: #1f77b4; stroke: #1f77b4"/>
     <use xlink:href="#ma157b008d1" x="201.678902" y="84.07427" style="fill: #1f77b4; stroke: #1f77b4"/>
     <use xlink:href="#ma157b008d1" x="203.377478" y="80.260444" style="fill: #1f77b4; stroke: #1f77b4"/>
     <use xlink:href="#ma157b008d1" x="204.962816" y="77.263996" style="fill: #1f77b4; stroke: #1f77b4"/>
     <use xlink:href="#ma157b008d1" x="202.811286" y="73.532749" style="fill: #1f77b4; stroke: #1f77b4"/>
     <use xlink:href="#ma157b008d1" x="204.170147" y="72.326598" style="fill: #1f77b4; stroke: #1f77b4"/>
     <use xlink:href="#ma157b008d1" x="204.509862" y="67.379297" style="fill: #1f77b4; stroke: #1f77b4"/>
     <use xlink:href="#ma157b008d1" x="203.94367" y="63.447217" style="fill: #1f77b4; stroke: #1f77b4"/>
     <use xlink:href="#ma157b008d1" x="199.074418" y="57.258596" style="fill: #1f77b4; stroke: #1f77b4"/>
     <use xlink:href="#ma157b008d1" x="196.016981" y="53.568" style="fill: #1f77b4; stroke: #1f77b4"/>
    </g>
   </g>
   <g id="line2d_32">
    <path d="M 73.832727 295.488 
L 73.832727 294.379996 
L 191.600682 292.880677 
L 222.741247 291.505841 
L 239.160818 290.362825 
L 250.767756 288.980358 
L 264.07327 287.758033 
L 270.490114 286.170581 
L 271.191113 284.630165 
L 273.556988 283.117152 
L 278.454549 281.771984 
L 285.58857 280.580996 
L 294.194689 279.598567 
L 304.839101 278.59707 
L 313.671697 276.496672 
L 319.673334 275.006572 
L 312.08636 273.588958 
L 312.199598 272.459198 
L 318.427711 271.229334 
L 329.97803 269.799809 
L 336.885573 267.917324 
L 344.585786 266.65479 
L 345.604931 264.855231 
L 341.075395 263.633628 
L 341.868064 261.998866 
L 342.09454 260.550613 
L 355.116958 258.863763 
L 362.817171 257.381811 
L 361.798025 255.846961 
L 359.759734 254.142805 
L 363.156886 252.494712 
L 366.554039 250.993092 
L 370.74386 249.360624 
L 364.062794 247.397764 
L 356.702296 245.760295 
L 354.550766 243.981682 
L 354.664005 241.926732 
L 350.927137 239.278388 
L 346.737316 237.271981 
L 331.789844 235.399829 
L 329.185361 233.821692 
L 317.861519 232.098702 
L 314.804082 230.60963 
L 319.107141 229.117836 
L 336.885573 227.740621 
L 341.41511 226.319412 
L 349.568276 225.060856 
L 356.136104 223.564731 
L 372.555675 222.249781 
L 380.595603 220.710285 
L 390.673822 219.13659 
L 394.184213 217.681323 
L 397.807842 216.441333 
L 397.807842 215.332203 
L 398.487273 214.327598 
" clip-path="url(#pb49d5e12f3)" style="fill: none; stroke: #ff7f0e; stroke-width: 1.5; stroke-linecap: square"/>
    <defs>
     <path id="m5756083dbc" d="M 0 -3 
L -0.673542 -0.927051 
L -2.85317 -0.927051 
L -1.089814 0.354102 
L -1.763356 2.427051 
L -0 1.145898 
L 1.763356 2.427051 
L 1.089814 0.354102 
L 2.85317 -0.927051 
L 0.673542 -0.927051 
z
" style="stroke: #ff7f0e; stroke-linejoin: bevel"/>
    </defs>
    <g clip-path="url(#pb49d5e12f3)">
     <use xlink:href="#m5756083dbc" x="73.832727" y="295.488" style="fill: #ff7f0e; stroke: #ff7f0e; stroke-linejoin: bevel"/>
     <use xlink:href="#m5756083dbc" x="73.832727" y="294.379996" style="fill: #ff7f0e; stroke: #ff7f0e; stroke-linejoin: bevel"/>
     <use xlink:href="#m5756083dbc" x="191.600682" y="292.880677" style="fill: #ff7f0e; stroke: #ff7f0e; stroke-linejoin: bevel"/>
     <use xlink:href="#m5756083dbc" x="222.741247" y="291.505841" style="fill: #ff7f0e; stroke: #ff7f0e; stroke-linejoin: bevel"/>
     <use xlink:href="#m5756083dbc" x="239.160818" y="290.362825" style="fill: #ff7f0e; stroke: #ff7f0e; stroke-linejoin: bevel"/>
     <use xlink:href="#m5756083dbc" x="250.767756" y="288.980358" style="fill: #ff7f0e; stroke: #ff7f0e; stroke-linejoin: bevel"/>
     <use xlink:href="#m5756083dbc" x="264.07327" y="287.758033" style="fill: #ff7f0e; stroke: #ff7f0e; stroke-linejoin: bevel"/>
     <use xlink:href="#m5756083dbc" x="270.490114" y="286.170581" style="fill: #ff7f0e; stroke: #ff7f0e; stroke-linejoin: bevel"/>
     <use xlink:href="#m5756083dbc" x="271.191113" y="284.630165" style="fill: #ff7f0e; stroke: #ff7f0e; stroke-linejoin: bevel"/>
     <use xlink:href="#m5756083dbc" x="273.556988" y="283.117152" style="fill: #ff7f0e; stroke: #ff7f0e; stroke-linejoin: bevel"/>
     <use xlink:href="#m5756083dbc" x="278.454549" y="281.771984" style="fill: #ff7f0e; stroke: #ff7f0e; stroke-linejoin: bevel"/>
     <use xlink:href="#m5756083dbc" x="285.58857" y="280.580996" style="fill: #ff7f0e; stroke: #ff7f0e; stroke-linejoin: bevel"/>
     <use xlink:href="#m5756083dbc" x="294.194689" y="279.598567" style="fill: #ff7f0e; stroke: #ff7f0e; stroke-linejoin: bevel"/>
     <use xlink:href="#m5756083dbc" x="304.839101" y="278.59707" style="fill: #ff7f0e; stroke: #ff7f0e; stroke-linejoin: bevel"/>
     <use xlink:href="#m5756083dbc" x="313.671697" y="276.496672" style="fill: #ff7f0e; stroke: #ff7f0e; stroke-linejoin: bevel"/>
     <use xlink:href="#m5756083dbc" x="319.673334" y="275.006572" style="fill: #ff7f0e; stroke: #ff7f0e; stroke-linejoin: bevel"/>
     <use xlink:href="#m5756083dbc" x="312.08636" y="273.588958" style="fill: #ff7f0e; stroke: #ff7f0e; stroke-linejoin: bevel"/>
     <use xlink:href="#m5756083dbc" x="312.199598" y="272.459198" style="fill: #ff7f0e; stroke: #ff7f0e; stroke-linejoin: bevel"/>
     <use xlink:href="#m5756083dbc" x="318.427711" y="271.229334" style="fill: #ff7f0e; stroke: #ff7f0e; stroke-linejoin: bevel"/>
     <use xlink:href="#m5756083dbc" x="329.97803" y="269.799809" style="fill: #ff7f0e; stroke: #ff7f0e; stroke-linejoin: bevel"/>
     <use xlink:href="#m5756083dbc" x="336.885573" y="267.917324" style="fill: #ff7f0e; stroke: #ff7f0e; stroke-linejoin: bevel"/>
     <use xlink:href="#m5756083dbc" x="344.585786" y="266.65479" style="fill: #ff7f0e; stroke: #ff7f0e; stroke-linejoin: bevel"/>
     <use xlink:href="#m5756083dbc" x="345.604931" y="264.855231" style="fill: #ff7f0e; stroke: #ff7f0e; stroke-linejoin: bevel"/>
     <use xlink:href="#m5756083dbc" x="341.075395" y="263.633628" style="fill: #ff7f0e; stroke: #ff7f0e; stroke-linejoin: bevel"/>
     <use xlink:href="#m5756083dbc" x="341.868064" y="261.998866" style="fill: #ff7f0e; stroke: #ff7f0e; stroke-linejoin: bevel"/>
     <use xlink:href="#m5756083dbc" x="342.09454" y="260.550613" style="fill: #ff7f0e; stroke: #ff7f0e; stroke-linejoin: bevel"/>
     <use xlink:href="#m5756083dbc" x="355.116958" y="258.863763" style="fill: #ff7f0e; stroke: #ff7f0e; stroke-linejoin: bevel"/>
     <use xlink:href="#m5756083dbc" x="362.817171" y="257.381811" style="fill: #ff7f0e; stroke: #ff7f0e; stroke-linejoin: bevel"/>
     <use xlink:href="#m5756083dbc" x="361.798025" y="255.846961" style="fill: #ff7f0e; stroke: #ff7f0e; stroke-linejoin: bevel"/>
     <use xlink:href="#m5756083dbc" x="359.759734" y="254.142805" style="fill: #ff7f0e; stroke: #ff7f0e; stroke-linejoin: bevel"/>
     <use xlink:href="#m5756083dbc" x="363.156886" y="252.494712" style="fill: #ff7f0e; stroke: #ff7f0e; stroke-linejoin: bevel"/>
     <use xlink:href="#m5756083dbc" x="366.554039" y="250.993092" style="fill: #ff7f0e; stroke: #ff7f0e; stroke-linejoin: bevel"/>
     <use xlink:href="#m5756083dbc" x="370.74386" y="249.360624" style="fill: #ff7f0e; stroke: #ff7f0e; stroke-linejoin: bevel"/>
     <use xlink:href="#m5756083dbc" x="364.062794" y="247.397764" style="fill: #ff7f0e; stroke: #ff7f0e; stroke-linejoin: bevel"/>
     <use xlink:href="#m5756083dbc" x="356.702296" y="245.760295" style="fill: #ff7f0e; stroke: #ff7f0e; stroke-linejoin: bevel"/>
     <use xlink:href="#m5756083dbc" x="354.550766" y="243.981682" style="fill: #ff7f0e; stroke: #ff7f0e; stroke-linejoin: bevel"/>
     <use xlink:href="#m5756083dbc" x="354.664005" y="241.926732" style="fill: #ff7f0e; stroke: #ff7f0e; stroke-linejoin: bevel"/>
     <use xlink:href="#m5756083dbc" x="350.927137" y="239.278388" style="fill: #ff7f0e; stroke: #ff7f0e; stroke-linejoin: bevel"/>
     <use xlink:href="#m5756083dbc" x="346.737316" y="237.271981" style="fill: #ff7f0e; stroke: #ff7f0e; stroke-linejoin: bevel"/>
     <use xlink:href="#m5756083dbc" x="331.789844" y="235.399829" style="fill: #ff7f0e; stroke: #ff7f0e; stroke-linejoin: bevel"/>
     <use xlink:href="#m5756083dbc" x="329.185361" y="233.821692" style="fill: #ff7f0e; stroke: #ff7f0e; stroke-linejoin: bevel"/>
     <use xlink:href="#m5756083dbc" x="317.861519" y="232.098702" style="fill: #ff7f0e; stroke: #ff7f0e; stroke-linejoin: bevel"/>
     <use xlink:href="#m5756083dbc" x="314.804082" y="230.60963" style="fill: #ff7f0e; stroke: #ff7f0e; stroke-linejoin: bevel"/>
     <use xlink:href="#m5756083dbc" x="319.107141" y="229.117836" style="fill: #ff7f0e; stroke: #ff7f0e; stroke-linejoin: bevel"/>
     <use xlink:href="#m5756083dbc" x="336.885573" y="227.740621" style="fill: #ff7f0e; stroke: #ff7f0e; stroke-linejoin: bevel"/>
     <use xlink:href="#m5756083dbc" x="341.41511" y="226.319412" style="fill: #ff7f0e; stroke: #ff7f0e; stroke-linejoin: bevel"/>
     <use xlink:href="#m5756083dbc" x="349.568276" y="225.060856" style="fill: #ff7f0e; stroke: #ff7f0e; stroke-linejoin: bevel"/>
     <use xlink:href="#m5756083dbc" x="356.136104" y="223.564731" style="fill: #ff7f0e; stroke: #ff7f0e; stroke-linejoin: bevel"/>
     <use xlink:href="#m5756083dbc" x="372.555675" y="222.249781" style="fill: #ff7f0e; stroke: #ff7f0e; stroke-linejoin: bevel"/>
     <use xlink:href="#m5756083dbc" x="380.595603" y="220.710285" style="fill: #ff7f0e; stroke: #ff7f0e; stroke-linejoin: bevel"/>
     <use xlink:href="#m5756083dbc" x="390.673822" y="219.13659" style="fill: #ff7f0e; stroke: #ff7f0e; stroke-linejoin: bevel"/>
     <use xlink:href="#m5756083dbc" x="394.184213" y="217.681323" style="fill: #ff7f0e; stroke: #ff7f0e; stroke-linejoin: bevel"/>
     <use xlink:href="#m5756083dbc" x="397.807842" y="216.441333" style="fill: #ff7f0e; stroke: #ff7f0e; stroke-linejoin: bevel"/>
     <use xlink:href="#m5756083dbc" x="397.807842" y="215.332203" style="fill: #ff7f0e; stroke: #ff7f0e; stroke-linejoin: bevel"/>
     <use xlink:href="#m5756083dbc" x="398.487273" y="214.327598" style="fill: #ff7f0e; stroke: #ff7f0e; stroke-linejoin: bevel"/>
    </g>
   </g>
   <g id="patch_3">
    <path d="M 57.6 307.584 
L 57.6 41.472 
" style="fill: none; stroke: #000000; stroke-width: 0.8; stroke-linejoin: miter; stroke-linecap: square"/>
   </g>
   <g id="patch_4">
    <path d="M 414.72 307.584 
L 414.72 41.472 
" style="fill: none; stroke: #000000; stroke-width: 0.8; stroke-linejoin: miter; stroke-linecap: square"/>
   </g>
   <g id="patch_5">
    <path d="M 57.6 307.584 
L 414.72 307.584 
" style="fill: none; stroke: #000000; stroke-width: 0.8; stroke-linejoin: miter; stroke-linecap: square"/>
   </g>
   <g id="patch_6">
    <path d="M 57.6 41.472 
L 414.72 41.472 
" style="fill: none; stroke: #000000; stroke-width: 0.8; stroke-linejoin: miter; stroke-linecap: square"/>
   </g>
   <g id="text_18">
    <!-- Исследование -->
    <g transform="translate(190.999687 35.472) scale(0.12 -0.12)">
     <defs>
      <path id="DejaVuSans-418" d="M 4159 4666 
L 4159 0 
L 3547 0 
L 3547 3903 
L 1478 0 
L 628 0 
L 628 4666 
L 1241 4666 
L 1241 763 
L 3309 4666 
L 4159 4666 
z
" transform="scale(0.015625)"/>
     </defs>
     <use xlink:href="#DejaVuSans-418"/>
     <use xlink:href="#DejaVuSans-441" x="74.804688"/>
     <use xlink:href="#DejaVuSans-441" x="129.785156"/>
     <use xlink:href="#DejaVuSans-43b" x="184.765625"/>
     <use xlink:href="#DejaVuSans-435" x="248.681641"/>
     <use xlink:href="#DejaVuSans-434" x="310.205078"/>
     <use xlink:href="#DejaVuSans-43e" x="379.345703"/>
     <use xlink:href="#DejaVuSans-432" x="440.527344"/>
     <use xlink:href="#DejaVuSans-430" x="499.462891"/>
     <use xlink:href="#DejaVuSans-43d" x="560.742188"/>
     <use xlink:href="#DejaVuSans-438" x="626.123047"/>
     <use xlink:href="#DejaVuSans-435" x="691.113281"/>
    </g>
   </g>
   <g id="legend_1">
    <g id="patch_7">
     <path d="M 244.112188 78.82825 
L 407.72 78.82825 
Q 409.72 78.82825 409.72 76.82825 
L 409.72 48.472 
Q 409.72 46.472 407.72 46.472 
L 244.112188 46.472 
Q 242.112188 46.472 242.112188 48.472 
L 242.112188 76.82825 
Q 242.112188 78.82825 244.112188 78.82825 
z
" style="fill: #ffffff; opacity: 0.8; stroke: #cccccc; stroke-linejoin: miter"/>
    </g>
    <g id="line2d_33">
     <path d="M 246.112188 54.570437 
L 256.112188 54.570437 
L 266.112188 54.570437 
" style="fill: none; stroke: #1f77b4; stroke-width: 1.5; stroke-linecap: square"/>
     <g>
      <use xlink:href="#ma157b008d1" x="256.112188" y="54.570437" style="fill: #1f77b4; stroke: #1f77b4"/>
     </g>
    </g>
    <g id="text_19">
     <!-- Без использования кеша -->
     <g transform="translate(274.112188 58.070437) scale(0.1 -0.1)">
      <defs>
       <path id="DejaVuSans-411" d="M 3272 1372 
Q 3272 1806 3026 2017 
Q 2781 2228 2272 2228 
L 1259 2228 
L 1259 519 
L 2272 519 
Q 2781 519 3026 730 
Q 3272 941 3272 1372 
z
M 3609 4666 
L 3609 4147 
L 1259 4147 
L 1259 2747 
L 2303 2747 
Q 3088 2747 3513 2406 
Q 3938 2066 3938 1372 
Q 3938 681 3527 340 
Q 3116 0 2303 0 
L 628 0 
L 628 4666 
L 3609 4666 
z
" transform="scale(0.015625)"/>
       <path id="DejaVuSans-44c" d="M 2781 1038 
Q 2781 1319 2576 1466 
Q 2372 1613 1978 1613 
L 1159 1613 
L 1159 459 
L 1978 459 
Q 2372 459 2576 607 
Q 2781 756 2781 1038 
z
M 581 3500 
L 1159 3500 
L 1159 2072 
L 2003 2072 
Q 2672 2072 3033 1817 
Q 3394 1563 3394 1038 
Q 3394 513 3033 256 
Q 2672 0 2003 0 
L 581 0 
L 581 3500 
z
" transform="scale(0.015625)"/>
       <path id="DejaVuSans-448" d="M 3216 459 
L 4697 459 
L 4697 3500 
L 5275 3500 
L 5275 0 
L 581 0 
L 581 3500 
L 1159 3500 
L 1159 459 
L 2638 459 
L 2638 3500 
L 3216 3500 
L 3216 459 
z
" transform="scale(0.015625)"/>
      </defs>
      <use xlink:href="#DejaVuSans-411"/>
      <use xlink:href="#DejaVuSans-435" x="68.603516"/>
      <use xlink:href="#DejaVuSans-437" x="130.126953"/>
      <use xlink:href="#DejaVuSans-20" x="183.300781"/>
      <use xlink:href="#DejaVuSans-438" x="215.087891"/>
      <use xlink:href="#DejaVuSans-441" x="280.078125"/>
      <use xlink:href="#DejaVuSans-43f" x="335.058594"/>
      <use xlink:href="#DejaVuSans-43e" x="400.439453"/>
      <use xlink:href="#DejaVuSans-43b" x="461.621094"/>
      <use xlink:href="#DejaVuSans-44c" x="525.537109"/>
      <use xlink:href="#DejaVuSans-437" x="584.472656"/>
      <use xlink:href="#DejaVuSans-43e" x="637.646484"/>
      <use xlink:href="#DejaVuSans-432" x="698.828125"/>
      <use xlink:href="#DejaVuSans-430" x="757.763672"/>
      <use xlink:href="#DejaVuSans-43d" x="819.042969"/>
      <use xlink:href="#DejaVuSans-438" x="884.423828"/>
      <use xlink:href="#DejaVuSans-44f" x="949.414062"/>
      <use xlink:href="#DejaVuSans-20" x="1009.570312"/>
      <use xlink:href="#DejaVuSans-43a" x="1041.357422"/>
      <use xlink:href="#DejaVuSans-435" x="1101.757812"/>
      <use xlink:href="#DejaVuSans-448" x="1163.28125"/>
      <use xlink:href="#DejaVuSans-430" x="1254.785156"/>
     </g>
    </g>
    <g id="line2d_34">
     <path d="M 246.112188 69.248562 
L 256.112188 69.248562 
L 266.112188 69.248562 
" style="fill: none; stroke: #ff7f0e; stroke-width: 1.5; stroke-linecap: square"/>
     <g>
      <use xlink:href="#m5756083dbc" x="256.112188" y="69.248562" style="fill: #ff7f0e; stroke: #ff7f0e; stroke-linejoin: bevel"/>
     </g>
    </g>
    <g id="text_20">
     <!-- С использованием кеша -->
     <g transform="translate(274.112188 72.748562) scale(0.1 -0.1)">
      <use xlink:href="#DejaVuSans-421"/>
      <use xlink:href="#DejaVuSans-20" x="69.824219"/>
      <use xlink:href="#DejaVuSans-438" x="101.611328"/>
      <use xlink:href="#DejaVuSans-441" x="166.601562"/>
      <use xlink:href="#DejaVuSans-43f" x="221.582031"/>
      <use xlink:href="#DejaVuSans-43e" x="286.962891"/>
      <use xlink:href="#DejaVuSans-43b" x="348.144531"/>
      <use xlink:href="#DejaVuSans-44c" x="412.060547"/>
      <use xlink:href="#DejaVuSans-437" x="470.996094"/>
      <use xlink:href="#DejaVuSans-43e" x="524.169922"/>
      <use xlink:href="#DejaVuSans-432" x="585.351562"/>
      <use xlink:href="#DejaVuSans-430" x="644.287109"/>
      <use xlink:href="#DejaVuSans-43d" x="705.566406"/>
      <use xlink:href="#DejaVuSans-438" x="770.947266"/>
      <use xlink:href="#DejaVuSans-435" x="835.9375"/>
      <use xlink:href="#DejaVuSans-43c" x="897.460938"/>
      <use xlink:href="#DejaVuSans-20" x="972.900391"/>
      <use xlink:href="#DejaVuSans-43a" x="1004.6875"/>
      <use xlink:href="#DejaVuSans-435" x="1065.087891"/>
      <use xlink:href="#DejaVuSans-448" x="1126.611328"/>
      <use xlink:href="#DejaVuSans-430" x="1218.115234"/>
     </g>
    </g>
   </g>
  </g>
 </g>
 <defs>
  <clipPath id="pb49d5e12f3">
   <rect x="57.6" y="41.472" width="357.12" height="266.112"/>
  </clipPath>
 </defs>
</svg>
