<?xml version="1.0" encoding="UTF-8"?><svg xmlns="http://www.w3.org/2000/svg" xmlns:xlink="http://www.w3.org/1999/xlink" fill-opacity="1" color-rendering="auto" color-interpolation="auto" text-rendering="auto" stroke="black" stroke-linecap="square" width="516" stroke-miterlimit="10" shape-rendering="auto" stroke-opacity="1" fill="black" stroke-dasharray="none" font-weight="normal" stroke-width="1" height="615" font-family="'Dialog'" font-style="normal" stroke-linejoin="miter" font-size="12px" stroke-dashoffset="0" image-rendering="auto">
  <!--Generated by ySVG 2.6-->
  <defs id="genericDefs"/>
  <g>
    <defs id="defs1">
      <clipPath clipPathUnits="userSpaceOnUse" id="clipPath1">
        <path d="M0 0 L516 0 L516 615 L0 615 L0 0 Z"/>
      </clipPath>
      <clipPath clipPathUnits="userSpaceOnUse" id="clipPath2">
        <path d="M416 88 L932 88 L932 703 L416 703 L416 88 Z"/>
      </clipPath>
    </defs>
    <g fill="white" text-rendering="geometricPrecision" shape-rendering="geometricPrecision" transform="translate(-416,-88)" stroke="white">
      <rect x="416" width="516" height="615" y="88" clip-path="url(#clipPath2)" stroke="none"/>
    </g>
    <g text-rendering="geometricPrecision" stroke-miterlimit="1.45" shape-rendering="geometricPrecision" transform="matrix(1,0,0,1,-416,-88)" stroke-linecap="butt">
      <rect x="431" y="139" clip-path="url(#clipPath2)" fill="none" width="206" rx="27" ry="27" height="54"/>
      <text x="511.084" xml:space="preserve" y="170.1543" clip-path="url(#clipPath2)" font-family="sans-serif" stroke="none">Начало</text>
    </g>
    <g text-rendering="geometricPrecision" stroke-miterlimit="1.45" shape-rendering="geometricPrecision" transform="matrix(1,0,0,1,-416,-88)" stroke-linecap="butt">
      <path fill="none" d="M714.875 103 L686 103 L686 229 L714.875 229" clip-path="url(#clipPath2)"/>
      <text x="711.0225" xml:space="preserve" y="121.2637" clip-path="url(#clipPath2)" font-family="sans-serif" stroke="none">Алгоритм построения </text>
      <text x="711.0225" xml:space="preserve" y="135.2324" clip-path="url(#clipPath2)" font-family="sans-serif" stroke="none">изображения</text>
      <text x="711.0225" xml:space="preserve" y="149.2012" clip-path="url(#clipPath2)" font-family="sans-serif" stroke="none">Вход:</text>
      <text x="711.0225" xml:space="preserve" y="163.1699" clip-path="url(#clipPath2)" font-family="sans-serif" stroke="none">Параметры ландшафта</text>
      <text x="711.0225" xml:space="preserve" y="177.1387" clip-path="url(#clipPath2)" font-family="sans-serif" stroke="none">Параметры шума Перлина</text>
      <text x="711.0225" xml:space="preserve" y="191.1074" clip-path="url(#clipPath2)" font-family="sans-serif" stroke="none">Параметры источника света</text>
      <text x="711.0225" xml:space="preserve" y="205.0762" clip-path="url(#clipPath2)" font-family="sans-serif" stroke="none">Выход:</text>
      <text x="711.0225" xml:space="preserve" y="219.0449" clip-path="url(#clipPath2)" font-family="sans-serif" stroke="none">Готовое изображение</text>
    </g>
    <g text-rendering="geometricPrecision" stroke-miterlimit="1.45" shape-rendering="geometricPrecision" transform="matrix(1,0,0,1,-416,-88)" stroke-linecap="butt">
      <rect fill="none" x="431" width="206" height="54" y="209" clip-path="url(#clipPath2)"/>
      <path fill="none" d="M441 209 L441 263 M627 209 L627 263 M441 209 Z" clip-path="url(#clipPath2)"/>
      <text x="456.1553" xml:space="preserve" y="226.1855" clip-path="url(#clipPath2)" font-family="sans-serif" stroke="none">Генерация карты высот </text>
      <text x="474.6094" xml:space="preserve" y="240.1543" clip-path="url(#clipPath2)" font-family="sans-serif" stroke="none">с использованием </text>
      <text x="451.8545" xml:space="preserve" y="254.123" clip-path="url(#clipPath2)" font-family="sans-serif" stroke="none">алгоритма шума Перлина</text>
    </g>
    <g text-rendering="geometricPrecision" stroke-miterlimit="1.45" shape-rendering="geometricPrecision" transform="matrix(1,0,0,1,-416,-88)" stroke-linecap="butt">
      <rect fill="none" x="431" width="206" height="54" y="279" clip-path="url(#clipPath2)"/>
      <path fill="none" d="M441 279 L441 333 M627 279 L627 333 M441 279 Z" clip-path="url(#clipPath2)"/>
      <text x="463.6875" xml:space="preserve" y="296.1855" clip-path="url(#clipPath2)" font-family="sans-serif" stroke="none">Применение афинных</text>
      <text x="481.9248" xml:space="preserve" y="310.1543" clip-path="url(#clipPath2)" font-family="sans-serif" stroke="none">преобразований</text>
      <text x="491.543" xml:space="preserve" y="324.123" clip-path="url(#clipPath2)" font-family="sans-serif" stroke="none">к ландшафту</text>
    </g>
    <g text-rendering="geometricPrecision" stroke-miterlimit="1.45" shape-rendering="geometricPrecision" transform="matrix(1,0,0,1,-416,-88)" stroke-linecap="butt">
      <rect fill="none" x="431" width="206" height="54" y="349" clip-path="url(#clipPath2)"/>
      <path fill="none" d="M441 349 L441 403 M627 349 L627 403 M441 349 Z" clip-path="url(#clipPath2)"/>
      <text x="443.209" xml:space="preserve" y="359.2012" clip-path="url(#clipPath2)" font-family="sans-serif" stroke="none">Расчет интенсивности света</text>
      <text x="445.2393" xml:space="preserve" y="373.1699" clip-path="url(#clipPath2)" font-family="sans-serif" stroke="none">в каждой точке ландшафта</text>
      <text x="448.9307" xml:space="preserve" y="387.1387" clip-path="url(#clipPath2)" font-family="sans-serif" stroke="none">с использованием модели </text>
      <text x="464.127" xml:space="preserve" y="401.1074" clip-path="url(#clipPath2)" font-family="sans-serif" stroke="none">освещения Ламберта.</text>
    </g>
    <g text-rendering="geometricPrecision" stroke-miterlimit="1.45" shape-rendering="geometricPrecision" transform="matrix(1,0,0,1,-416,-88)" stroke-linecap="butt">
      <rect fill="none" x="431" width="206" height="54" y="419" clip-path="url(#clipPath2)"/>
      <path fill="none" d="M441 419 L441 473 M627 419 L627 473 M441 419 Z" clip-path="url(#clipPath2)"/>
      <text x="461.9766" xml:space="preserve" y="436.1855" clip-path="url(#clipPath2)" font-family="sans-serif" stroke="none">Выполнение закраски </text>
      <text x="467.0537" xml:space="preserve" y="450.1543" clip-path="url(#clipPath2)" font-family="sans-serif" stroke="none">по Гуро для каждого</text>
      <text x="465.29" xml:space="preserve" y="464.123" clip-path="url(#clipPath2)" font-family="sans-serif" stroke="none">полигона ландшафта</text>
    </g>
    <g text-rendering="geometricPrecision" stroke-miterlimit="1.45" shape-rendering="geometricPrecision" transform="matrix(1,0,0,1,-416,-88)" stroke-linecap="butt">
      <rect fill="none" x="431" width="206" height="59" y="489" clip-path="url(#clipPath2)"/>
      <path fill="none" d="M441 489 L441 548 M627 489 L627 548 M441 489 Z" clip-path="url(#clipPath2)"/>
      <text x="463.752" xml:space="preserve" y="508.6855" clip-path="url(#clipPath2)" font-family="sans-serif" stroke="none">Удаление невидимых </text>
      <text x="470.5605" xml:space="preserve" y="522.6543" clip-path="url(#clipPath2)" font-family="sans-serif" stroke="none">линий алгоритмом, </text>
      <text x="458.8652" xml:space="preserve" y="536.623" clip-path="url(#clipPath2)" font-family="sans-serif" stroke="none">использующим z-буфер</text>
    </g>
    <g text-rendering="geometricPrecision" stroke-miterlimit="1.45" shape-rendering="geometricPrecision" transform="matrix(1,0,0,1,-416,-88)" stroke-linecap="butt">
      <rect fill="none" x="431" width="206" height="54" y="564" clip-path="url(#clipPath2)"/>
      <path fill="none" d="M441 564 L441 618 M627 564 L627 618 M441 564 Z" clip-path="url(#clipPath2)"/>
      <text x="443.0654" xml:space="preserve" y="595.1543" clip-path="url(#clipPath2)" font-family="sans-serif" stroke="none">Визуализация буфера кадра</text>
    </g>
    <g text-rendering="geometricPrecision" stroke-miterlimit="1.45" shape-rendering="geometricPrecision" transform="matrix(1,0,0,1,-416,-88)" stroke-linecap="butt">
      <rect x="431" y="634" clip-path="url(#clipPath2)" fill="none" width="206" rx="27" ry="27" height="54"/>
      <text x="514.3711" xml:space="preserve" y="665.1543" clip-path="url(#clipPath2)" font-family="sans-serif" stroke="none">Конец</text>
    </g>
    <g text-rendering="geometricPrecision" stroke-miterlimit="1.45" stroke-dasharray="6,2" shape-rendering="geometricPrecision" transform="matrix(1,0,0,1,-416,-88)" stroke-linecap="butt">
      <path fill="none" d="M686.0035 166 L636.9809 166" clip-path="url(#clipPath2)"/>
    </g>
    <g text-rendering="geometricPrecision" stroke-miterlimit="1.45" shape-rendering="geometricPrecision" transform="matrix(1,0,0,1,-416,-88)" stroke-linecap="butt">
      <path fill="none" d="M534 192.9678 L534 208.9788" clip-path="url(#clipPath2)"/>
      <path fill="none" d="M534 262.9678 L534 278.9788" clip-path="url(#clipPath2)"/>
      <path fill="none" d="M534 332.9678 L534 348.9788" clip-path="url(#clipPath2)"/>
      <path fill="none" d="M534 402.9678 L534 418.9788" clip-path="url(#clipPath2)"/>
      <path fill="none" d="M534 473.0105 L534 488.9585" clip-path="url(#clipPath2)"/>
      <path fill="none" d="M534 547.9885 L534 563.9918" clip-path="url(#clipPath2)"/>
      <path fill="none" d="M534 617.9678 L534 633.9788" clip-path="url(#clipPath2)"/>
    </g>
  </g>
</svg>
