<?xml version="1.0" encoding="UTF-8"?><svg xmlns="http://www.w3.org/2000/svg" xmlns:xlink="http://www.w3.org/1999/xlink" fill-opacity="1" color-rendering="auto" color-interpolation="auto" text-rendering="auto" stroke="black" stroke-linecap="square" width="545" stroke-miterlimit="10" shape-rendering="auto" stroke-opacity="1" fill="black" stroke-dasharray="none" font-weight="normal" stroke-width="1" height="528" font-family="'Dialog'" font-style="normal" stroke-linejoin="miter" font-size="12px" stroke-dashoffset="0" image-rendering="auto">
  <!--Generated by ySVG 2.6-->
  <defs id="genericDefs"/>
  <g>
    <defs id="defs1">
      <clipPath clipPathUnits="userSpaceOnUse" id="clipPath1">
        <path d="M0 0 L545 0 L545 528 L0 528 L0 0 Z"/>
      </clipPath>
      <clipPath clipPathUnits="userSpaceOnUse" id="clipPath2">
        <path d="M576 139 L1121 139 L1121 667 L576 667 L576 139 Z"/>
      </clipPath>
    </defs>
    <g fill="white" text-rendering="geometricPrecision" shape-rendering="geometricPrecision" transform="translate(-576,-139)" stroke="white">
      <rect x="576" width="545" height="528" y="139" clip-path="url(#clipPath2)" stroke="none"/>
    </g>
    <g text-rendering="geometricPrecision" stroke-miterlimit="1.45" shape-rendering="geometricPrecision" transform="matrix(1,0,0,1,-576,-139)" stroke-linecap="butt">
      <rect x="591.5" y="171.6667" clip-path="url(#clipPath2)" fill="none" width="180" rx="30" ry="30" height="60"/>
      <text x="658.584" xml:space="preserve" y="205.821" clip-path="url(#clipPath2)" font-family="sans-serif" stroke="none">Начало</text>
    </g>
    <g text-rendering="geometricPrecision" stroke-miterlimit="1.45" shape-rendering="geometricPrecision" transform="matrix(1,0,0,1,-576,-139)" stroke-linecap="butt">
      <path fill="none" d="M839.5 154.6667 L801.5 154.6667 L801.5 236.6667 L839.5 236.6667" clip-path="url(#clipPath2)"/>
      <text x="807.7193" xml:space="preserve" y="171.8053" clip-path="url(#clipPath2)" font-family="sans-serif" stroke="none">Алгоритм генерации карты высот</text>
      <text x="807.7193" xml:space="preserve" y="185.7741" clip-path="url(#clipPath2)" font-family="sans-serif" stroke="none">Вход:</text>
      <text x="807.7193" xml:space="preserve" y="199.7428" clip-path="url(#clipPath2)" font-family="sans-serif" stroke="none">Двумерный массив A размером NxM</text>
      <text x="807.7193" xml:space="preserve" y="213.7116" clip-path="url(#clipPath2)" font-family="sans-serif" stroke="none">Выход:</text>
      <text x="807.7193" xml:space="preserve" y="227.6803" clip-path="url(#clipPath2)" font-family="sans-serif" stroke="none">Карта высот A </text>
      <text x="807.7193" xml:space="preserve" y="241.6491" clip-path="url(#clipPath2)" font-family="sans-serif" stroke="none"> </text>
    </g>
    <g text-rendering="geometricPrecision" stroke-miterlimit="1.45" shape-rendering="geometricPrecision" transform="matrix(1,0,0,1,-576,-139)" stroke-linecap="butt">
      <path fill="none" d="M601.5 241.6667 L761.5 241.6667 L771.5 251.6667 L771.5 301.6667 L591.5 301.6667 L591.5 251.6667 Z" clip-path="url(#clipPath2)"/>
      <text x="611.6914" xml:space="preserve" y="275.821" clip-path="url(#clipPath2)" font-family="sans-serif" stroke="none">Цикл по i от 0 до N - 1</text>
    </g>
    <g text-rendering="geometricPrecision" stroke-miterlimit="1.45" shape-rendering="geometricPrecision" transform="matrix(1,0,0,1,-576,-139)" stroke-linecap="butt">
      <path fill="none" d="M601.5 311.6667 L761.5 311.6667 L771.5 321.6667 L771.5 371.6667 L591.5 371.6667 L591.5 321.6667 Z" clip-path="url(#clipPath2)"/>
      <text x="611.0029" xml:space="preserve" y="345.821" clip-path="url(#clipPath2)" font-family="sans-serif" stroke="none">Цикл по j от 0 до M - 1</text>
    </g>
    <g text-rendering="geometricPrecision" stroke-miterlimit="1.45" shape-rendering="geometricPrecision" transform="matrix(1,0,0,1,-576,-139)" stroke-linecap="butt">
      <rect fill="none" x="591.5" width="180" height="60" y="381.6667" clip-path="url(#clipPath2)"/>
      <path fill="none" d="M601.5 381.6667 L601.5 441.6667 M761.5 381.6667 L761.5 441.6667 M601.5 381.6667 Z" clip-path="url(#clipPath2)"/>
      <text x="614.1846" xml:space="preserve" y="408.8366" clip-path="url(#clipPath2)" font-family="sans-serif" stroke="none">Генерация значения </text>
      <text x="623.9082" xml:space="preserve" y="422.8053" clip-path="url(#clipPath2)" font-family="sans-serif" stroke="none">высоты  для A[i][j]</text>
    </g>
    <g text-rendering="geometricPrecision" stroke-miterlimit="1.45" shape-rendering="geometricPrecision" transform="matrix(1,0,0,1,-576,-139)" stroke-linecap="butt">
      <path fill="none" d="M591.5 451.6667 L771.5 451.6667 L771.5 501.6667 L761.5 511.6667 L601.5 511.6667 L591.5 501.6667 Z" clip-path="url(#clipPath2)"/>
      <text x="627.7695" xml:space="preserve" y="485.821" clip-path="url(#clipPath2)" font-family="sans-serif" stroke="none">Конец цикла по j</text>
    </g>
    <g text-rendering="geometricPrecision" stroke-miterlimit="1.45" shape-rendering="geometricPrecision" transform="matrix(1,0,0,1,-576,-139)" stroke-linecap="butt">
      <path fill="none" d="M591.5 521.6667 L771.5 521.6667 L771.5 571.6667 L761.5 581.6667 L601.5 581.6667 L591.5 571.6667 Z" clip-path="url(#clipPath2)"/>
      <text x="627.7695" xml:space="preserve" y="555.821" clip-path="url(#clipPath2)" font-family="sans-serif" stroke="none">Конец цикла по i</text>
    </g>
    <g text-rendering="geometricPrecision" stroke-miterlimit="1.45" shape-rendering="geometricPrecision" transform="matrix(1,0,0,1,-576,-139)" stroke-linecap="butt">
      <rect x="591.5" y="591.6667" clip-path="url(#clipPath2)" fill="none" width="180" rx="30" ry="30" height="60"/>
      <text x="661.8711" xml:space="preserve" y="625.821" clip-path="url(#clipPath2)" font-family="sans-serif" stroke="none">Конец</text>
    </g>
    <g text-rendering="geometricPrecision" stroke-miterlimit="1.45" shape-rendering="geometricPrecision" transform="matrix(1,0,0,1,-576,-139)" stroke-linecap="butt">
      <path fill="none" d="M829 377.6667 L801.5 377.6667 L801.5 445.6667 L829 445.6667" clip-path="url(#clipPath2)"/>
      <text x="812.4795" xml:space="preserve" y="394.8678" clip-path="url(#clipPath2)" font-family="sans-serif" stroke="none">Для генерации высоты</text>
      <text x="812.4795" xml:space="preserve" y="408.8366" clip-path="url(#clipPath2)" font-family="sans-serif" stroke="none">используется алгоритм</text>
      <text x="812.4795" xml:space="preserve" y="422.8053" clip-path="url(#clipPath2)" font-family="sans-serif" stroke="none">шума Перлина с применением </text>
      <text x="812.4795" xml:space="preserve" y="436.7741" clip-path="url(#clipPath2)" font-family="sans-serif" stroke="none">нескольких октав</text>
    </g>
    <g text-rendering="geometricPrecision" stroke-miterlimit="1.45" stroke-dasharray="6,2" shape-rendering="geometricPrecision" transform="matrix(1,0,0,1,-576,-139)" stroke-linecap="butt">
      <path fill="none" d="M801.5293 199.019 L771.4341 199.6828" clip-path="url(#clipPath2)"/>
    </g>
    <g text-rendering="geometricPrecision" stroke-miterlimit="1.45" shape-rendering="geometricPrecision" transform="matrix(1,0,0,1,-576,-139)" stroke-linecap="butt">
      <path fill="none" d="M681.5 231.6423 L681.5 241.6874" clip-path="url(#clipPath2)"/>
      <path fill="none" d="M681.5 301.6422 L681.5 311.6874" clip-path="url(#clipPath2)"/>
      <path fill="none" d="M681.5 371.6422 L681.5 381.6874" clip-path="url(#clipPath2)"/>
      <path fill="none" d="M681.5 441.6422 L681.5 451.6874" clip-path="url(#clipPath2)"/>
      <path fill="none" d="M681.5 511.6422 L681.5 521.6874" clip-path="url(#clipPath2)"/>
      <path fill="none" d="M681.5 581.6423 L681.5 591.6874" clip-path="url(#clipPath2)"/>
      <path fill="none" stroke-dasharray="6,2" d="M801.5256 411.6667 L771.4899 411.6667" clip-path="url(#clipPath2)"/>
    </g>
  </g>
</svg>
