<?xml version="1.0" encoding="UTF-8"?><svg xmlns="http://www.w3.org/2000/svg" xmlns:xlink="http://www.w3.org/1999/xlink" fill-opacity="1" color-rendering="auto" color-interpolation="auto" text-rendering="auto" stroke="black" stroke-linecap="square" width="797" stroke-miterlimit="10" shape-rendering="auto" stroke-opacity="1" fill="black" stroke-dasharray="none" font-weight="normal" stroke-width="1" height="732" font-family="'Dialog'" font-style="normal" stroke-linejoin="miter" font-size="12px" stroke-dashoffset="0" image-rendering="auto">
  <!--Generated by ySVG 2.6-->
  <defs id="genericDefs"/>
  <g>
    <defs id="defs1">
      <clipPath clipPathUnits="userSpaceOnUse" id="clipPath1">
        <path d="M0 0 L797 0 L797 732 L0 732 L0 0 Z"/>
      </clipPath>
      <clipPath clipPathUnits="userSpaceOnUse" id="clipPath2">
        <path d="M514 65 L1311 65 L1311 797 L514 797 L514 65 Z"/>
      </clipPath>
    </defs>
    <g fill="white" text-rendering="geometricPrecision" shape-rendering="geometricPrecision" transform="translate(-514,-65)" stroke="white">
      <rect x="514" width="797" height="732" y="65" clip-path="url(#clipPath2)" stroke="none"/>
    </g>
    <g text-rendering="geometricPrecision" stroke-miterlimit="1.45" shape-rendering="geometricPrecision" transform="matrix(1,0,0,1,-514,-65)" stroke-linecap="butt">
      <rect x="529.8456" y="96.9759" clip-path="url(#clipPath2)" fill="none" width="244.6943" rx="40.9697" ry="40.9697" height="81.9393"/>
      <text x="629.2767" xml:space="preserve" y="142.0998" clip-path="url(#clipPath2)" font-family="sans-serif" stroke="none">Начало</text>
    </g>
    <g text-rendering="geometricPrecision" stroke-miterlimit="1.45" shape-rendering="geometricPrecision" transform="matrix(1,0,0,1,-514,-65)" stroke-linecap="butt">
      <path fill="none" d="M835.1266 80.9214 L804.5399 80.9214 L804.5399 194.9697 L835.1266 194.9697" clip-path="url(#clipPath2)"/>
      <text x="817.3926" xml:space="preserve" y="100.1936" clip-path="url(#clipPath2)" font-family="sans-serif" stroke="none">Алгоритм шума Перлина</text>
      <text x="817.3926" xml:space="preserve" y="114.1623" clip-path="url(#clipPath2)" font-family="sans-serif" stroke="none">Вход:</text>
      <text x="817.3926" xml:space="preserve" y="128.1311" clip-path="url(#clipPath2)" font-family="sans-serif" stroke="none">Точка с координатами (x, y)</text>
      <text x="817.3926" xml:space="preserve" y="142.0998" clip-path="url(#clipPath2)" font-family="sans-serif" stroke="none">Выход:</text>
      <text x="817.3926" xml:space="preserve" y="156.0686" clip-path="url(#clipPath2)" font-family="sans-serif" stroke="none">Значение шума Перлина</text>
      <text x="817.3926" xml:space="preserve" y="170.0373" clip-path="url(#clipPath2)" font-family="sans-serif" stroke="none">в точке с координатами (x, y)</text>
      <text x="817.3926" xml:space="preserve" y="184.0061" clip-path="url(#clipPath2)" font-family="sans-serif" stroke="none">в интервале [0, 1]</text>
    </g>
    <g text-rendering="geometricPrecision" stroke-miterlimit="1.45" shape-rendering="geometricPrecision" transform="matrix(1,0,0,1,-514,-65)" stroke-linecap="butt">
      <path fill="none" d="M529.8456 280.0666 L774.5399 280.0666 L774.5399 362.4986 L529.8456 362.4986 Z" clip-path="url(#clipPath2)"/>
      <text x="574.1254" xml:space="preserve" y="311.4681" clip-path="url(#clipPath2)" font-family="sans-serif" stroke="none">Вычисление единичного</text>
      <text x="587.0013" xml:space="preserve" y="325.4369" clip-path="url(#clipPath2)" font-family="sans-serif" stroke="none">квадрата  для точки</text>
      <text x="583.4623" xml:space="preserve" y="339.4056" clip-path="url(#clipPath2)" font-family="sans-serif" stroke="none">с координатами (x, y)</text>
    </g>
    <g text-rendering="geometricPrecision" stroke-miterlimit="1.45" shape-rendering="geometricPrecision" transform="matrix(1,0,0,1,-514,-65)" stroke-linecap="butt">
      <path fill="none" d="M529.8456 372.3055 L774.5399 372.3055 L774.5399 454.7375 L529.8456 454.7375 Z" clip-path="url(#clipPath2)"/>
      <text x="555.8441" xml:space="preserve" y="403.707" clip-path="url(#clipPath2)" font-family="sans-serif" stroke="none">Генерация псевдослучайного </text>
      <text x="551.4789" xml:space="preserve" y="417.6758" clip-path="url(#clipPath2)" font-family="sans-serif" stroke="none">вектора градиента для каждой</text>
      <text x="552.1263" xml:space="preserve" y="431.6445" clip-path="url(#clipPath2)" font-family="sans-serif" stroke="none">вершины единичного квадрата</text>
    </g>
    <g text-rendering="geometricPrecision" stroke-miterlimit="1.45" shape-rendering="geometricPrecision" transform="matrix(1,0,0,1,-514,-65)" stroke-linecap="butt">
      <rect fill="none" x="529.8456" width="244.6943" height="82.432" y="649.0222" clip-path="url(#clipPath2)"/>
      <path fill="none" d="M539.8456 649.0222 L539.8456 731.4542 M764.5399 649.0222 L764.5399 731.4542 M539.8456 649.0222 Z" clip-path="url(#clipPath2)"/>
      <text x="580.7025" xml:space="preserve" y="687.4081" clip-path="url(#clipPath2)" font-family="sans-serif" stroke="none">Применение функции </text>
      <text x="557.8685" xml:space="preserve" y="701.3768" clip-path="url(#clipPath2)" font-family="sans-serif" stroke="none">сглаживания к координате x </text>
    </g>
    <g text-rendering="geometricPrecision" stroke-miterlimit="1.45" shape-rendering="geometricPrecision" transform="matrix(1,0,0,1,-514,-65)" stroke-linecap="butt">
      <rect fill="none" x="804.5399" width="244.6943" height="82.432" y="346.3791" clip-path="url(#clipPath2)"/>
      <path fill="none" d="M814.5399 346.3791 L814.5399 428.8111 M1039.2341 346.3791 L1039.2341 428.8111 M814.5399 346.3791 Z" clip-path="url(#clipPath2)"/>
      <text x="855.3967" xml:space="preserve" y="384.765" clip-path="url(#clipPath2)" font-family="sans-serif" stroke="none">Применение функции </text>
      <text x="834.47" xml:space="preserve" y="398.7338" clip-path="url(#clipPath2)" font-family="sans-serif" stroke="none">сглаживания к координате y</text>
    </g>
    <g text-rendering="geometricPrecision" stroke-miterlimit="1.45" shape-rendering="geometricPrecision" transform="matrix(1,0,0,1,-514,-65)" stroke-linecap="butt">
      <path fill="none" d="M529.8456 464.5444 L774.5399 464.5444 L774.5399 546.9764 L529.8456 546.9764 Z" clip-path="url(#clipPath2)"/>
      <text x="543.1205" xml:space="preserve" y="495.9459" clip-path="url(#clipPath2)" font-family="sans-serif" stroke="none">Вычисление векторов, идущих  от</text>
      <text x="554.9564" xml:space="preserve" y="509.9146" clip-path="url(#clipPath2)" font-family="sans-serif" stroke="none">вершин единичного квадрата </text>
      <text x="553.5941" xml:space="preserve" y="523.8834" clip-path="url(#clipPath2)" font-family="sans-serif" stroke="none">до точки с координатами (x, y)</text>
    </g>
    <g text-rendering="geometricPrecision" stroke-miterlimit="1.45" shape-rendering="geometricPrecision" transform="matrix(1,0,0,1,-514,-65)" stroke-linecap="butt">
      <path fill="none" d="M529.8456 556.7833 L774.5399 556.7833 L774.5399 639.2153 L529.8456 639.2153 Z" clip-path="url(#clipPath2)"/>
      <text x="575.6781" xml:space="preserve" y="574.2161" clip-path="url(#clipPath2)" font-family="sans-serif" stroke="none">Вычисление скалярных </text>
      <text x="572.1566" xml:space="preserve" y="588.1848" clip-path="url(#clipPath2)" font-family="sans-serif" stroke="none">произведений  векторов </text>
      <text x="552.2084" xml:space="preserve" y="602.1536" clip-path="url(#clipPath2)" font-family="sans-serif" stroke="none">градиента и соответствующих </text>
      <text x="577.4974" xml:space="preserve" y="616.1223" clip-path="url(#clipPath2)" font-family="sans-serif" stroke="none">им векторов от вершин</text>
      <text x="533.8392" xml:space="preserve" y="630.0911" clip-path="url(#clipPath2)" font-family="sans-serif" stroke="none">единичного квадрата до точки  (x, y)</text>
    </g>
    <g text-rendering="geometricPrecision" stroke-miterlimit="1.45" shape-rendering="geometricPrecision" transform="matrix(1,0,0,1,-514,-65)" stroke-linecap="butt">
      <rect fill="none" x="804.5399" width="244.6943" height="82.432" y="438.618" clip-path="url(#clipPath2)"/>
      <path fill="none" d="M814.5399 438.618 L814.5399 521.05 M1039.2341 438.618 L1039.2341 521.05 M814.5399 438.618 Z" clip-path="url(#clipPath2)"/>
      <text x="837.7336" xml:space="preserve" y="470.0196" clip-path="url(#clipPath2)" font-family="sans-serif" stroke="none">Вычисление значения шума</text>
      <text x="824.5149" xml:space="preserve" y="483.9883" clip-path="url(#clipPath2)" font-family="sans-serif" stroke="none">для точки с координатами (x, y)</text>
      <text x="862.6506" xml:space="preserve" y="497.9571" clip-path="url(#clipPath2)" font-family="sans-serif" stroke="none">в переменную result</text>
    </g>
    <g text-rendering="geometricPrecision" stroke-miterlimit="1.45" shape-rendering="geometricPrecision" transform="matrix(1,0,0,1,-514,-65)" stroke-linecap="butt">
      <path fill="none" d="M1106.3152 445.1064 L1079.2341 445.1064 L1079.2341 514.5616 L1106.3152 514.5616" clip-path="url(#clipPath2)"/>
      <text x="1086.6576" xml:space="preserve" y="462.2451" clip-path="url(#clipPath2)" font-family="sans-serif" stroke="none">Производится путем</text>
      <text x="1086.6576" xml:space="preserve" y="476.2138" clip-path="url(#clipPath2)" font-family="sans-serif" stroke="none">двумерной интерполяции </text>
      <text x="1086.6576" xml:space="preserve" y="490.1826" clip-path="url(#clipPath2)" font-family="sans-serif" stroke="none">полученных скалярных </text>
      <text x="1086.6576" xml:space="preserve" y="504.1513" clip-path="url(#clipPath2)" font-family="sans-serif" stroke="none">произведений</text>
    </g>
    <g text-rendering="geometricPrecision" stroke-miterlimit="1.45" shape-rendering="geometricPrecision" transform="matrix(1,0,0,1,-514,-65)" stroke-linecap="butt">
      <rect x="804.5399" y="623.0958" clip-path="url(#clipPath2)" fill="none" width="244.6943" rx="41.216" ry="41.216" height="82.432"/>
      <text x="907.2581" xml:space="preserve" y="668.4661" clip-path="url(#clipPath2)" font-family="sans-serif" stroke="none">Конец</text>
    </g>
    <g text-rendering="geometricPrecision" stroke-miterlimit="1.45" shape-rendering="geometricPrecision" transform="matrix(1,0,0,1,-514,-65)" stroke-linecap="butt">
      <circle fill="none" r="20" clip-path="url(#clipPath2)" cx="652.1927" cy="761.261"/>
      <text x="648.0883" xml:space="preserve" y="765.4153" clip-path="url(#clipPath2)" font-family="sans-serif" stroke="none">A</text>
    </g>
    <g text-rendering="geometricPrecision" stroke-miterlimit="1.45" shape-rendering="geometricPrecision" transform="matrix(1,0,0,1,-514,-65)" stroke-linecap="butt">
      <circle fill="none" r="20" clip-path="url(#clipPath2)" cx="926.887" cy="316.5722"/>
      <text x="922.7825" xml:space="preserve" y="320.7265" clip-path="url(#clipPath2)" font-family="sans-serif" stroke="none">A</text>
    </g>
    <g text-rendering="geometricPrecision" stroke-miterlimit="1.45" shape-rendering="geometricPrecision" transform="matrix(1,0,0,1,-514,-65)" stroke-linecap="butt">
      <path fill="none" d="M825.56 530.8569 L1049.2341 530.8569 L1028.214 613.2889 L804.5399 613.2889 Z" clip-path="url(#clipPath2)"/>
      <text x="850.3049" xml:space="preserve" y="576.2272" clip-path="url(#clipPath2)" font-family="sans-serif" stroke="none">Вернуть значение result</text>
    </g>
    <g text-rendering="geometricPrecision" stroke-miterlimit="1.45" shape-rendering="geometricPrecision" transform="matrix(1,0,0,1,-514,-65)" stroke-linecap="butt">
      <path fill="none" d="M529.8456 187.8277 L774.5399 187.8277 L774.5399 270.2597 L529.8456 270.2597 Z" clip-path="url(#clipPath2)"/>
      <text x="620.4056" xml:space="preserve" y="233.198" clip-path="url(#clipPath2)" font-family="sans-serif" stroke="none">result := 0</text>
    </g>
    <g text-rendering="geometricPrecision" stroke-miterlimit="1.45" stroke-dasharray="6,2" shape-rendering="geometricPrecision" transform="matrix(1,0,0,1,-514,-65)" stroke-linecap="butt">
      <path fill="none" d="M804.5287 137.9455 L774.5152 137.9455" clip-path="url(#clipPath2)"/>
    </g>
    <g text-rendering="geometricPrecision" stroke-miterlimit="1.45" shape-rendering="geometricPrecision" transform="matrix(1,0,0,1,-514,-65)" stroke-linecap="butt">
      <path fill="none" d="M652.1927 362.5027 L652.1927 372.3092" clip-path="url(#clipPath2)"/>
      <path fill="none" d="M652.1927 454.7317 L652.1927 464.5487" clip-path="url(#clipPath2)"/>
      <path fill="none" d="M652.1927 546.9706 L652.1927 556.7877" clip-path="url(#clipPath2)"/>
      <path fill="none" d="M652.1927 639.2095 L652.1927 649.0266" clip-path="url(#clipPath2)"/>
      <path fill="none" d="M926.887 428.8054 L926.887 438.6224" clip-path="url(#clipPath2)"/>
      <path fill="none" stroke-dasharray="6,2" d="M1079.2104 479.834 L1049.1995 479.834" clip-path="url(#clipPath2)"/>
      <path fill="none" d="M652.1927 731.4717 L652.1927 741.2754" clip-path="url(#clipPath2)"/>
      <path fill="none" d="M926.887 336.5821 L926.887 346.3961" clip-path="url(#clipPath2)"/>
      <path fill="none" d="M926.887 521.0443 L926.887 530.8613" clip-path="url(#clipPath2)"/>
      <path fill="none" d="M926.887 613.2831 L926.887 623.1002" clip-path="url(#clipPath2)"/>
      <path fill="none" d="M652.1927 178.913 L652.1927 187.8719" clip-path="url(#clipPath2)"/>
      <path fill="none" d="M652.1927 270.2539 L652.1927 280.071" clip-path="url(#clipPath2)"/>
    </g>
  </g>
</svg>
