<?xml version="1.0" encoding="UTF-8"?><svg xmlns="http://www.w3.org/2000/svg" xmlns:xlink="http://www.w3.org/1999/xlink" fill-opacity="1" color-rendering="auto" color-interpolation="auto" text-rendering="auto" stroke="black" stroke-linecap="square" width="539" stroke-miterlimit="10" shape-rendering="auto" stroke-opacity="1" fill="black" stroke-dasharray="none" font-weight="normal" stroke-width="1" height="778" font-family="'Dialog'" font-style="normal" stroke-linejoin="miter" font-size="12px" stroke-dashoffset="0" image-rendering="auto">
  <!--Generated by ySVG 2.6-->
  <defs id="genericDefs"/>
  <g>
    <defs id="defs1">
      <clipPath clipPathUnits="userSpaceOnUse" id="clipPath1">
        <path d="M0 0 L539 0 L539 778 L0 778 L0 0 Z"/>
      </clipPath>
      <clipPath clipPathUnits="userSpaceOnUse" id="clipPath2">
        <path d="M622 90 L1161 90 L1161 868 L622 868 L622 90 Z"/>
      </clipPath>
    </defs>
    <g fill="white" text-rendering="geometricPrecision" shape-rendering="geometricPrecision" transform="translate(-622,-90)" stroke="white">
      <rect x="622" width="539" height="778" y="90" clip-path="url(#clipPath2)" stroke="none"/>
    </g>
    <g text-rendering="geometricPrecision" stroke-miterlimit="1.45" shape-rendering="geometricPrecision" transform="matrix(1,0,0,1,-622,-90)" stroke-linecap="butt">
      <rect x="637.5142" y="170" clip-path="url(#clipPath2)" fill="none" width="200.7358" rx="26" ry="26" height="52"/>
      <text x="714.9661" xml:space="preserve" y="200.1543" clip-path="url(#clipPath2)" font-family="sans-serif" stroke="none">Начало</text>
    </g>
    <g text-rendering="geometricPrecision" stroke-miterlimit="1.45" shape-rendering="geometricPrecision" transform="matrix(1,0,0,1,-622,-90)" stroke-linecap="butt">
      <path fill="none" d="M902.875 105.875 L868.25 105.875 L868.25 286.125 L902.875 286.125" clip-path="url(#clipPath2)"/>
      <text x="885.8203" xml:space="preserve" y="130.3105" clip-path="url(#clipPath2)" font-family="sans-serif" stroke="none">Алгоритм шума Перлина </text>
      <text x="885.8203" xml:space="preserve" y="144.2793" clip-path="url(#clipPath2)" font-family="sans-serif" stroke="none">с применением нескольких октав</text>
      <text x="885.8203" xml:space="preserve" y="158.248" clip-path="url(#clipPath2)" font-family="sans-serif" stroke="none">Вход:</text>
      <text x="885.8203" xml:space="preserve" y="172.2168" clip-path="url(#clipPath2)" font-family="sans-serif" stroke="none">Точка с координатами (x, y)</text>
      <text x="885.8203" xml:space="preserve" y="186.1855" clip-path="url(#clipPath2)" font-family="sans-serif" stroke="none">Параметры шума Перлина </text>
      <text x="885.8203" xml:space="preserve" y="200.1543" clip-path="url(#clipPath2)" font-family="sans-serif" stroke="none">(стойкость - persistense,</text>
      <text x="885.8203" xml:space="preserve" y="214.123" clip-path="url(#clipPath2)" font-family="sans-serif" stroke="none">лакунарность - lacunarity, </text>
      <text x="885.8203" xml:space="preserve" y="228.0918" clip-path="url(#clipPath2)" font-family="sans-serif" stroke="none">число октав - num_octaves)</text>
      <text x="885.8203" xml:space="preserve" y="242.0605" clip-path="url(#clipPath2)" font-family="sans-serif" stroke="none">Выход:</text>
      <text x="885.8203" xml:space="preserve" y="256.0293" clip-path="url(#clipPath2)" font-family="sans-serif" stroke="none">Значение шума Перлина  </text>
      <text x="885.8203" xml:space="preserve" y="269.998" clip-path="url(#clipPath2)" font-family="sans-serif" stroke="none">в точке с координатами (x, y)</text>
    </g>
    <g text-rendering="geometricPrecision" stroke-miterlimit="1.45" shape-rendering="geometricPrecision" transform="matrix(1,0,0,1,-622,-90)" stroke-linecap="butt">
      <path fill="none" d="M637.5142 234 L838.25 234 L838.25 286 L637.5142 286 Z" clip-path="url(#clipPath2)"/>
      <text x="692.9759" xml:space="preserve" y="264.1543" clip-path="url(#clipPath2)" font-family="sans-serif" stroke="none">frequency := 1</text>
    </g>
    <g text-rendering="geometricPrecision" stroke-miterlimit="1.45" shape-rendering="geometricPrecision" transform="matrix(1,0,0,1,-622,-90)" stroke-linecap="butt">
      <path fill="none" d="M637.5142 296.5 L838.25 296.5 L838.25 348.5 L637.5142 348.5 Z" clip-path="url(#clipPath2)"/>
      <text x="692.8821" xml:space="preserve" y="326.6543" clip-path="url(#clipPath2)" font-family="sans-serif" stroke="none">amplitude := 1</text>
    </g>
    <g text-rendering="geometricPrecision" stroke-miterlimit="1.45" shape-rendering="geometricPrecision" transform="matrix(1,0,0,1,-622,-90)" stroke-linecap="butt">
      <path fill="none" d="M637.5142 359 L838.25 359 L838.25 411 L637.5142 411 Z" clip-path="url(#clipPath2)"/>
      <text x="706.095" xml:space="preserve" y="389.1543" clip-path="url(#clipPath2)" font-family="sans-serif" stroke="none">result := 0</text>
    </g>
    <g text-rendering="geometricPrecision" stroke-miterlimit="1.45" shape-rendering="geometricPrecision" transform="matrix(1,0,0,1,-622,-90)" stroke-linecap="butt">
      <path fill="none" d="M637.5142 421.5 L838.25 421.5 L838.25 473.5 L637.5142 473.5 Z" clip-path="url(#clipPath2)"/>
      <text x="695.0032" xml:space="preserve" y="451.6543" clip-path="url(#clipPath2)" font-family="sans-serif" stroke="none">sumAmpl := 0</text>
    </g>
    <g text-rendering="geometricPrecision" stroke-miterlimit="1.45" shape-rendering="geometricPrecision" transform="matrix(1,0,0,1,-622,-90)" stroke-linecap="butt">
      <path fill="none" d="M647.5142 546.5 L828.25 546.5 L838.25 556.5 L838.25 598.5 L637.5142 598.5 L637.5142 556.5 Z" clip-path="url(#clipPath2)"/>
      <text x="684.2659" xml:space="preserve" y="569.6699" clip-path="url(#clipPath2)" font-family="sans-serif" stroke="none">Цикл по i от 0 до</text>
      <text x="686.3607" xml:space="preserve" y="583.6387" clip-path="url(#clipPath2)" font-family="sans-serif" stroke="none"> num_octaves - 1</text>
    </g>
    <g text-rendering="geometricPrecision" stroke-miterlimit="1.45" shape-rendering="geometricPrecision" transform="matrix(1,0,0,1,-622,-90)" stroke-linecap="butt">
      <rect fill="none" x="637.5142" width="200.7358" height="68" y="609" clip-path="url(#clipPath2)"/>
      <path fill="none" d="M647.5142 609 L647.5142 677 M828.25 609 L828.25 677 M647.5142 609 Z" clip-path="url(#clipPath2)"/>
      <text x="653.3226" xml:space="preserve" y="633.1855" clip-path="url(#clipPath2)" font-family="sans-serif" stroke="none">Генерация значения шума</text>
      <text x="672.1312" xml:space="preserve" y="647.1543" clip-path="url(#clipPath2)" font-family="sans-serif" stroke="none">для текущей октавы</text>
      <text x="659.9085" xml:space="preserve" y="661.123" clip-path="url(#clipPath2)" font-family="sans-serif" stroke="none">в переменную currResult</text>
    </g>
    <g text-rendering="geometricPrecision" stroke-miterlimit="1.45" shape-rendering="geometricPrecision" transform="matrix(1,0,0,1,-622,-90)" stroke-linecap="butt">
      <path fill="none" d="M637.5142 750.2779 L838.25 750.2779 L838.25 802.2779 L637.5142 802.2779 Z" clip-path="url(#clipPath2)"/>
      <text x="698.8206" xml:space="preserve" y="773.4478" clip-path="url(#clipPath2)" font-family="sans-serif" stroke="none">sumAmpl := </text>
      <text x="670.5228" xml:space="preserve" y="787.4166" clip-path="url(#clipPath2)" font-family="sans-serif" stroke="none">sumAmpl + amplitude</text>
    </g>
    <g text-rendering="geometricPrecision" stroke-miterlimit="1.45" shape-rendering="geometricPrecision" transform="matrix(1,0,0,1,-622,-90)" stroke-linecap="butt">
      <path fill="none" d="M906.3821 409.5 L1107.1179 409.5 L1107.1179 461.5 L906.3821 461.5 Z" clip-path="url(#clipPath2)"/>
      <text x="967.4746" xml:space="preserve" y="432.6699" clip-path="url(#clipPath2)" font-family="sans-serif" stroke="none">amplitude :=</text>
      <text x="935.0664" xml:space="preserve" y="446.6387" clip-path="url(#clipPath2)" font-family="sans-serif" stroke="none">amplitude * persistense</text>
    </g>
    <g text-rendering="geometricPrecision" stroke-miterlimit="1.45" shape-rendering="geometricPrecision" transform="matrix(1,0,0,1,-622,-90)" stroke-linecap="butt">
      <path fill="none" d="M906.3821 472 L1107.1179 472 L1107.1179 524 L906.3821 524 Z" clip-path="url(#clipPath2)"/>
      <text x="965.6611" xml:space="preserve" y="495.1699" clip-path="url(#clipPath2)" font-family="sans-serif" stroke="none">frequency := </text>
      <text x="939.748" xml:space="preserve" y="509.1387" clip-path="url(#clipPath2)" font-family="sans-serif" stroke="none">frequency * lacunarity</text>
    </g>
    <g text-rendering="geometricPrecision" stroke-miterlimit="1.45" shape-rendering="geometricPrecision" transform="matrix(1,0,0,1,-622,-90)" stroke-linecap="butt">
      <path fill="none" d="M906.3821 534.5 L1107.1179 534.5 L1107.1179 576.5 L1097.1179 586.5 L916.3821 586.5 L906.3821 576.5 Z" clip-path="url(#clipPath2)"/>
      <text x="953.0195" xml:space="preserve" y="564.6543" clip-path="url(#clipPath2)" font-family="sans-serif" stroke="none">Конец цикла по i</text>
    </g>
    <g text-rendering="geometricPrecision" stroke-miterlimit="1.45" shape-rendering="geometricPrecision" transform="matrix(1,0,0,1,-622,-90)" stroke-linecap="butt">
      <path fill="none" d="M906.3821 597 L1107.1179 597 L1107.1179 649 L906.3821 649 Z" clip-path="url(#clipPath2)"/>
      <text x="927.6396" xml:space="preserve" y="627.1543" clip-path="url(#clipPath2)" font-family="sans-serif" stroke="none">result := result / sumAmpl</text>
    </g>
    <g text-rendering="geometricPrecision" stroke-miterlimit="1.45" shape-rendering="geometricPrecision" transform="matrix(1,0,0,1,-622,-90)" stroke-linecap="butt">
      <rect x="906.3821" y="722" clip-path="url(#clipPath2)" fill="none" width="200.7358" rx="26" ry="26" height="52"/>
      <text x="987.1211" xml:space="preserve" y="752.1543" clip-path="url(#clipPath2)" font-family="sans-serif" stroke="none">Конец</text>
    </g>
    <g text-rendering="geometricPrecision" stroke-miterlimit="1.45" shape-rendering="geometricPrecision" transform="matrix(1,0,0,1,-622,-90)" stroke-linecap="butt">
      <path fill="none" d="M637.5142 484 L838.25 484 L838.25 536 L637.5142 536 Z" clip-path="url(#clipPath2)"/>
      <text x="692.3577" xml:space="preserve" y="514.1543" clip-path="url(#clipPath2)" font-family="sans-serif" stroke="none">currResult := 0</text>
    </g>
    <g text-rendering="geometricPrecision" stroke-miterlimit="1.45" shape-rendering="geometricPrecision" transform="matrix(1,0,0,1,-622,-90)" stroke-linecap="butt">
      <path fill="none" d="M637.5142 687.639 L838.25 687.639 L838.25 739.639 L637.5142 739.639 Z" clip-path="url(#clipPath2)"/>
      <text x="711.8196" xml:space="preserve" y="710.8089" clip-path="url(#clipPath2)" font-family="sans-serif" stroke="none">result :=</text>
      <text x="678.6234" xml:space="preserve" y="724.7776" clip-path="url(#clipPath2)" font-family="sans-serif" stroke="none">result + currrResult</text>
    </g>
    <g text-rendering="geometricPrecision" stroke-miterlimit="1.45" shape-rendering="geometricPrecision" transform="matrix(1,0,0,1,-622,-90)" stroke-linecap="butt">
      <circle fill="none" r="20" clip-path="url(#clipPath2)" cx="737.8821" cy="832.9169"/>
      <text x="733.7776" xml:space="preserve" y="837.0712" clip-path="url(#clipPath2)" font-family="sans-serif" stroke="none">A</text>
    </g>
    <g text-rendering="geometricPrecision" stroke-miterlimit="1.45" shape-rendering="geometricPrecision" transform="matrix(1,0,0,1,-622,-90)" stroke-linecap="butt">
      <circle fill="none" r="20" clip-path="url(#clipPath2)" cx="1006.75" cy="379"/>
      <text x="1002.6455" xml:space="preserve" y="383.1543" clip-path="url(#clipPath2)" font-family="sans-serif" stroke="none">A</text>
    </g>
    <g text-rendering="geometricPrecision" stroke-miterlimit="1.45" shape-rendering="geometricPrecision" transform="matrix(1,0,0,1,-622,-90)" stroke-linecap="butt">
      <path fill="none" d="M919.6421 659.5 L1107.1179 659.5 L1093.8579 711.5 L906.3821 711.5 Z" clip-path="url(#clipPath2)"/>
      <text x="930.168" xml:space="preserve" y="689.6543" clip-path="url(#clipPath2)" font-family="sans-serif" stroke="none">Вернуть значение result</text>
    </g>
    <g text-rendering="geometricPrecision" stroke-miterlimit="1.45" stroke-dasharray="6,2" shape-rendering="geometricPrecision" transform="matrix(1,0,0,1,-622,-90)" stroke-linecap="butt">
      <path fill="none" d="M868.2791 196 L838.2585 196" clip-path="url(#clipPath2)"/>
    </g>
    <g text-rendering="geometricPrecision" stroke-miterlimit="1.45" shape-rendering="geometricPrecision" transform="matrix(1,0,0,1,-622,-90)" stroke-linecap="butt">
      <path fill="none" d="M737.8821 221.9688 L737.8821 233.9649" clip-path="url(#clipPath2)"/>
      <path fill="none" d="M737.8821 285.9705 L737.8821 296.4941" clip-path="url(#clipPath2)"/>
      <path fill="none" d="M737.8821 348.4705 L737.8821 358.9941" clip-path="url(#clipPath2)"/>
      <path fill="none" d="M737.8821 410.9705 L737.8821 421.4941" clip-path="url(#clipPath2)"/>
      <path fill="none" d="M737.8821 598.49 L737.8821 608.9655" clip-path="url(#clipPath2)"/>
      <path fill="none" d="M1006.75 461.4705 L1006.75 471.9941" clip-path="url(#clipPath2)"/>
      <path fill="none" d="M1006.75 523.9705 L1006.75 534.4941" clip-path="url(#clipPath2)"/>
      <path fill="none" d="M1006.75 586.4705 L1006.75 596.9941" clip-path="url(#clipPath2)"/>
      <path fill="none" d="M737.8821 473.4705 L737.8821 483.9941" clip-path="url(#clipPath2)"/>
      <path fill="none" d="M737.8821 535.9705 L737.8821 546.4941" clip-path="url(#clipPath2)"/>
      <path fill="none" d="M737.8821 676.9743 L737.8821 687.6085" clip-path="url(#clipPath2)"/>
      <path fill="none" d="M737.8821 739.6672 L737.8821 750.2857" clip-path="url(#clipPath2)"/>
      <path fill="none" d="M737.8821 802.3019 L737.8821 812.9155" clip-path="url(#clipPath2)"/>
      <path fill="none" d="M1006.75 399.0012 L1006.75 409.516" clip-path="url(#clipPath2)"/>
      <path fill="none" d="M1006.75 648.9705 L1006.75 659.4941" clip-path="url(#clipPath2)"/>
      <path fill="none" d="M1006.75 711.4705 L1006.75 721.9941" clip-path="url(#clipPath2)"/>
    </g>
  </g>
</svg>
