<?xml version="1.0" encoding="UTF-8"?><svg xmlns="http://www.w3.org/2000/svg" xmlns:xlink="http://www.w3.org/1999/xlink" fill-opacity="1" color-rendering="auto" color-interpolation="auto" text-rendering="auto" stroke="black" stroke-linecap="square" width="545" stroke-miterlimit="10" shape-rendering="auto" stroke-opacity="1" fill="black" stroke-dasharray="none" font-weight="normal" stroke-width="1" height="817" font-family="'Dialog'" font-style="normal" stroke-linejoin="miter" font-size="12px" stroke-dashoffset="0" image-rendering="auto">
  <!--Generated by ySVG 2.6-->
  <defs id="genericDefs"/>
  <g>
    <defs id="defs1">
      <clipPath clipPathUnits="userSpaceOnUse" id="clipPath1">
        <path d="M0 0 L545 0 L545 817 L0 817 L0 0 Z"/>
      </clipPath>
      <clipPath clipPathUnits="userSpaceOnUse" id="clipPath2">
        <path d="M484 126 L1029 126 L1029 943 L484 943 L484 126 Z"/>
      </clipPath>
    </defs>
    <g fill="white" text-rendering="geometricPrecision" shape-rendering="geometricPrecision" transform="translate(-484,-126)" stroke="white">
      <rect x="484" width="545" height="817" y="126" clip-path="url(#clipPath2)" stroke="none"/>
    </g>
    <g text-rendering="geometricPrecision" stroke-miterlimit="1.45" shape-rendering="geometricPrecision" transform="matrix(1,0,0,1,-484,-126)" stroke-linecap="butt">
      <rect x="499" y="169" clip-path="url(#clipPath2)" fill="none" width="238" rx="30.5" ry="30.5" height="61"/>
      <text x="595.084" xml:space="preserve" y="203.6543" clip-path="url(#clipPath2)" font-family="sans-serif" stroke="none">Начало</text>
    </g>
    <g text-rendering="geometricPrecision" stroke-miterlimit="1.45" shape-rendering="geometricPrecision" transform="matrix(1,0,0,1,-484,-126)" stroke-linecap="butt">
      <path fill="none" d="M803.5 141.5 L776 141.5 L776 257.5 L803.5 257.5" clip-path="url(#clipPath2)"/>
      <text x="782" xml:space="preserve" y="161.748" clip-path="url(#clipPath2)" font-family="sans-serif" stroke="none">Алгоритм закраски по Гуро</text>
      <text x="782" xml:space="preserve" y="175.7168" clip-path="url(#clipPath2)" font-family="sans-serif" stroke="none">Вход:</text>
      <text x="782" xml:space="preserve" y="189.6855" clip-path="url(#clipPath2)" font-family="sans-serif" stroke="none">Список граней, представленных</text>
      <text x="782" xml:space="preserve" y="203.6543" clip-path="url(#clipPath2)" font-family="sans-serif" stroke="none">треугольниками</text>
      <text x="782" xml:space="preserve" y="217.623" clip-path="url(#clipPath2)" font-family="sans-serif" stroke="none">Выход:</text>
      <text x="782" xml:space="preserve" y="231.5918" clip-path="url(#clipPath2)" font-family="sans-serif" stroke="none">Интенсивносить цвета каждого </text>
      <text x="782" xml:space="preserve" y="245.5605" clip-path="url(#clipPath2)" font-family="sans-serif" stroke="none">пикселя каждой грани</text>
    </g>
    <g text-rendering="geometricPrecision" stroke-miterlimit="1.45" shape-rendering="geometricPrecision" transform="matrix(1,0,0,1,-484,-126)" stroke-linecap="butt">
      <path fill="none" d="M509 237 L727 237 L737 247 L737 298 L499 298 L499 247 Z" clip-path="url(#clipPath2)"/>
      <text x="550.9189" xml:space="preserve" y="264.6699" clip-path="url(#clipPath2)" font-family="sans-serif" stroke="none">Цикл по всем граням</text>
      <text x="563.2236" xml:space="preserve" y="278.6387" clip-path="url(#clipPath2)" font-family="sans-serif" stroke="none">из списка граней</text>
    </g>
    <g text-rendering="geometricPrecision" stroke-miterlimit="1.45" shape-rendering="geometricPrecision" transform="matrix(1,0,0,1,-484,-126)" stroke-linecap="butt">
      <rect fill="none" x="499" width="238" height="61" y="307" clip-path="url(#clipPath2)"/>
      <path fill="none" d="M509 307 L509 368 M727 307 L727 368 M509 307 Z" clip-path="url(#clipPath2)"/>
      <text x="550.0459" xml:space="preserve" y="327.6855" clip-path="url(#clipPath2)" font-family="sans-serif" stroke="none">Вычисление вектора </text>
      <text x="553.1602" xml:space="preserve" y="341.6543" clip-path="url(#clipPath2)" font-family="sans-serif" stroke="none">внешней нормали к </text>
      <text x="553.7695" xml:space="preserve" y="355.623" clip-path="url(#clipPath2)" font-family="sans-serif" stroke="none">грани треугольника</text>
    </g>
    <g text-rendering="geometricPrecision" stroke-miterlimit="1.45" shape-rendering="geometricPrecision" transform="matrix(1,0,0,1,-484,-126)" stroke-linecap="butt">
      <rect fill="none" x="499" width="238" height="61" y="517" clip-path="url(#clipPath2)"/>
      <path fill="none" d="M509 517 L509 578 M727 517 L727 578 M509 517 Z" clip-path="url(#clipPath2)"/>
      <text x="548.4229" xml:space="preserve" y="530.7012" clip-path="url(#clipPath2)" font-family="sans-serif" stroke="none">Вычисление векторов</text>
      <text x="525.1582" xml:space="preserve" y="544.6699" clip-path="url(#clipPath2)" font-family="sans-serif" stroke="none">нормалей к каждой вершине</text>
      <text x="513.5918" xml:space="preserve" y="558.6387" clip-path="url(#clipPath2)" font-family="sans-serif" stroke="none">треугольника путем усреднения</text>
      <text x="514.6553" xml:space="preserve" y="572.6074" clip-path="url(#clipPath2)" font-family="sans-serif" stroke="none">нормалей примыкающих граней</text>
    </g>
    <g text-rendering="geometricPrecision" stroke-miterlimit="1.45" shape-rendering="geometricPrecision" transform="matrix(1,0,0,1,-484,-126)" stroke-linecap="butt">
      <rect fill="none" x="499" width="238" height="61" y="587" clip-path="url(#clipPath2)"/>
      <path fill="none" d="M509 587 L509 648 M727 587 L727 648 M509 587 Z" clip-path="url(#clipPath2)"/>
      <text x="527.5957" xml:space="preserve" y="614.6699" clip-path="url(#clipPath2)" font-family="sans-serif" stroke="none">Вычисление интенсивности </text>
      <text x="535.21" xml:space="preserve" y="628.6387" clip-path="url(#clipPath2)" font-family="sans-serif" stroke="none">в вершинах треугольника</text>
    </g>
    <g text-rendering="geometricPrecision" stroke-miterlimit="1.45" shape-rendering="geometricPrecision" transform="matrix(1,0,0,1,-484,-126)" stroke-linecap="butt">
      <rect fill="none" x="499" width="238" height="61" y="657" clip-path="url(#clipPath2)"/>
      <path fill="none" d="M509 657 L509 718 M727 657 L727 718 M509 657 Z" clip-path="url(#clipPath2)"/>
      <text x="539.5898" xml:space="preserve" y="677.6855" clip-path="url(#clipPath2)" font-family="sans-serif" stroke="none">Вычисление yMin и yMax</text>
      <text x="558.4951" xml:space="preserve" y="691.6543" clip-path="url(#clipPath2)" font-family="sans-serif" stroke="none">значений по оси Y </text>
      <text x="556.5293" xml:space="preserve" y="705.623" clip-path="url(#clipPath2)" font-family="sans-serif" stroke="none">для текущей грани</text>
    </g>
    <g text-rendering="geometricPrecision" stroke-miterlimit="1.45" shape-rendering="geometricPrecision" transform="matrix(1,0,0,1,-484,-126)" stroke-linecap="butt">
      <path fill="none" d="M509 727 L727 727 L737 737 L737 788 L499 788 L499 737 Z" clip-path="url(#clipPath2)"/>
      <text x="534.2578" xml:space="preserve" y="754.6699" clip-path="url(#clipPath2)" font-family="sans-serif" stroke="none">Цикл по y от yMin до yMax</text>
      <text x="586.5527" xml:space="preserve" y="768.6387" clip-path="url(#clipPath2)" font-family="sans-serif" stroke="none">с шагом 1</text>
    </g>
    <g text-rendering="geometricPrecision" stroke-miterlimit="1.45" shape-rendering="geometricPrecision" transform="matrix(1,0,0,1,-484,-126)" stroke-linecap="butt">
      <rect fill="none" x="499" width="238" height="61" y="797" clip-path="url(#clipPath2)"/>
      <path fill="none" d="M509 797 L509 858 M727 797 L727 858 M509 797 Z" clip-path="url(#clipPath2)"/>
      <text x="539.5898" xml:space="preserve" y="810.7012" clip-path="url(#clipPath2)" font-family="sans-serif" stroke="none">Вычисление xMin и xMax</text>
      <text x="558.0498" xml:space="preserve" y="824.6699" clip-path="url(#clipPath2)" font-family="sans-serif" stroke="none">значений по оси X </text>
      <text x="530.915" xml:space="preserve" y="838.6387" clip-path="url(#clipPath2)" font-family="sans-serif" stroke="none">для текущей сканирующей</text>
      <text x="596.2031" xml:space="preserve" y="852.6074" clip-path="url(#clipPath2)" font-family="sans-serif" stroke="none">строки</text>
    </g>
    <g text-rendering="geometricPrecision" stroke-miterlimit="1.45" shape-rendering="geometricPrecision" transform="matrix(1,0,0,1,-484,-126)" stroke-linecap="butt">
      <path fill="none" d="M776 447 L1014 447 L1014 508 L776 508 Z" clip-path="url(#clipPath2)"/>
      <text x="824.708" xml:space="preserve" y="460.7012" clip-path="url(#clipPath2)" font-family="sans-serif" stroke="none">Вычисление значений</text>
      <text x="793.7734" xml:space="preserve" y="474.6699" clip-path="url(#clipPath2)" font-family="sans-serif" stroke="none">интенсивности для xMin и xMax</text>
      <text x="793.6123" xml:space="preserve" y="488.6387" clip-path="url(#clipPath2)" font-family="sans-serif" stroke="none">путем линейной интерполяции </text>
      <text x="805.8057" xml:space="preserve" y="502.6074" clip-path="url(#clipPath2)" font-family="sans-serif" stroke="none">интенсивности вдоль ребер</text>
    </g>
    <g text-rendering="geometricPrecision" stroke-miterlimit="1.45" shape-rendering="geometricPrecision" transform="matrix(1,0,0,1,-484,-126)" stroke-linecap="butt">
      <path fill="none" d="M786 517 L1004 517 L1014 527 L1014 578 L776 578 L776 527 Z" clip-path="url(#clipPath2)"/>
      <text x="811.2578" xml:space="preserve" y="544.6699" clip-path="url(#clipPath2)" font-family="sans-serif" stroke="none">Цикл по x от xMin до xMax</text>
      <text x="863.5527" xml:space="preserve" y="558.6387" clip-path="url(#clipPath2)" font-family="sans-serif" stroke="none">с шагом 1</text>
    </g>
    <g text-rendering="geometricPrecision" stroke-miterlimit="1.45" shape-rendering="geometricPrecision" transform="matrix(1,0,0,1,-484,-126)" stroke-linecap="butt">
      <path fill="none" d="M776 587 L1014 587 L1014 648 L776 648 Z" clip-path="url(#clipPath2)"/>
      <text x="824.998" xml:space="preserve" y="600.7012" clip-path="url(#clipPath2)" font-family="sans-serif" stroke="none">Вычисление значения</text>
      <text x="790.1611" xml:space="preserve" y="614.6699" clip-path="url(#clipPath2)" font-family="sans-serif" stroke="none">интенсивности для пикселя (x,y)</text>
      <text x="795.5195" xml:space="preserve" y="628.6387" clip-path="url(#clipPath2)" font-family="sans-serif" stroke="none">путем линейной интерполяции</text>
      <text x="806.5879" xml:space="preserve" y="642.6074" clip-path="url(#clipPath2)" font-family="sans-serif" stroke="none">вдоль сканирующей строки</text>
    </g>
    <g text-rendering="geometricPrecision" stroke-miterlimit="1.45" shape-rendering="geometricPrecision" transform="matrix(1,0,0,1,-484,-126)" stroke-linecap="butt">
      <path fill="none" d="M776 657 L1014 657 L1014 708 L1004 718 L786 718 L776 708 Z" clip-path="url(#clipPath2)"/>
      <text x="839.3857" xml:space="preserve" y="691.6543" clip-path="url(#clipPath2)" font-family="sans-serif" stroke="none">Конец цикла по x</text>
    </g>
    <g text-rendering="geometricPrecision" stroke-miterlimit="1.45" shape-rendering="geometricPrecision" transform="matrix(1,0,0,1,-484,-126)" stroke-linecap="butt">
      <path fill="none" d="M776 727 L1014 727 L1014 778 L1004 788 L786 788 L776 778 Z" clip-path="url(#clipPath2)"/>
      <text x="839.3857" xml:space="preserve" y="761.6543" clip-path="url(#clipPath2)" font-family="sans-serif" stroke="none">Конец цикла по y</text>
    </g>
    <g text-rendering="geometricPrecision" stroke-miterlimit="1.45" shape-rendering="geometricPrecision" transform="matrix(1,0,0,1,-484,-126)" stroke-linecap="butt">
      <path fill="none" d="M499 377 L737 377 L737 428 L727 438 L509 438 L499 428 Z" clip-path="url(#clipPath2)"/>
      <text x="526.2803" xml:space="preserve" y="411.6543" clip-path="url(#clipPath2)" font-family="sans-serif" stroke="none">Конец цикла по всем граням</text>
    </g>
    <g text-rendering="geometricPrecision" stroke-miterlimit="1.45" shape-rendering="geometricPrecision" transform="matrix(1,0,0,1,-484,-126)" stroke-linecap="butt">
      <path fill="none" d="M509 447 L727 447 L737 457 L737 508 L499 508 L499 457 Z" clip-path="url(#clipPath2)"/>
      <text x="550.9189" xml:space="preserve" y="474.6699" clip-path="url(#clipPath2)" font-family="sans-serif" stroke="none">Цикл по всем граням</text>
      <text x="563.2236" xml:space="preserve" y="488.6387" clip-path="url(#clipPath2)" font-family="sans-serif" stroke="none">из списка граней</text>
    </g>
    <g text-rendering="geometricPrecision" stroke-miterlimit="1.45" shape-rendering="geometricPrecision" transform="matrix(1,0,0,1,-484,-126)" stroke-linecap="butt">
      <path fill="none" d="M776 797 L1014 797 L1014 848 L1004 858 L786 858 L776 848 Z" clip-path="url(#clipPath2)"/>
      <text x="803.2803" xml:space="preserve" y="831.6543" clip-path="url(#clipPath2)" font-family="sans-serif" stroke="none">Конец цикла по всем граням</text>
    </g>
    <g text-rendering="geometricPrecision" stroke-miterlimit="1.45" shape-rendering="geometricPrecision" transform="matrix(1,0,0,1,-484,-126)" stroke-linecap="butt">
      <rect x="776" y="867" clip-path="url(#clipPath2)" fill="none" width="238" rx="30.5" ry="30.5" height="61"/>
      <text x="875.3711" xml:space="preserve" y="901.6543" clip-path="url(#clipPath2)" font-family="sans-serif" stroke="none">Конец</text>
    </g>
    <g text-rendering="geometricPrecision" stroke-miterlimit="1.45" shape-rendering="geometricPrecision" transform="matrix(1,0,0,1,-484,-126)" stroke-linecap="butt">
      <circle fill="none" r="30.5" clip-path="url(#clipPath2)" cx="618" cy="897.5"/>
      <text x="613.8955" xml:space="preserve" y="901.6543" clip-path="url(#clipPath2)" font-family="sans-serif" stroke="none">A</text>
    </g>
    <g text-rendering="geometricPrecision" stroke-miterlimit="1.45" shape-rendering="geometricPrecision" transform="matrix(1,0,0,1,-484,-126)" stroke-linecap="butt">
      <circle fill="none" r="30.5" clip-path="url(#clipPath2)" cx="895" cy="407.5"/>
      <text x="890.8955" xml:space="preserve" y="411.6543" clip-path="url(#clipPath2)" font-family="sans-serif" stroke="none">A</text>
    </g>
    <g text-rendering="geometricPrecision" stroke-miterlimit="1.45" stroke-dasharray="6,2" shape-rendering="geometricPrecision" transform="matrix(1,0,0,1,-484,-126)" stroke-linecap="butt">
      <path fill="none" d="M775.98 199.5 L736.9864 199.5" clip-path="url(#clipPath2)"/>
    </g>
    <g text-rendering="geometricPrecision" stroke-miterlimit="1.45" shape-rendering="geometricPrecision" transform="matrix(1,0,0,1,-484,-126)" stroke-linecap="butt">
      <path fill="none" d="M618 230.0137 L618 237.0058" clip-path="url(#clipPath2)"/>
      <path fill="none" d="M618 298.0225 L618 307.0052" clip-path="url(#clipPath2)"/>
      <path fill="none" d="M618 578.0225 L618 587.0051" clip-path="url(#clipPath2)"/>
      <path fill="none" d="M618 648.0225 L618 657.0051" clip-path="url(#clipPath2)"/>
      <path fill="none" d="M618 718.0225 L618 727.0051" clip-path="url(#clipPath2)"/>
      <path fill="none" d="M618 788.0225 L618 797.0051" clip-path="url(#clipPath2)"/>
      <path fill="none" d="M895 508.0225 L895 517.0051" clip-path="url(#clipPath2)"/>
      <path fill="none" d="M895 578.0225 L895 587.0051" clip-path="url(#clipPath2)"/>
      <path fill="none" d="M895 648.0225 L895 657.0051" clip-path="url(#clipPath2)"/>
      <path fill="none" d="M895 718.0225 L895 727.0051" clip-path="url(#clipPath2)"/>
      <path fill="none" d="M618 368.0225 L618 377.0052" clip-path="url(#clipPath2)"/>
      <path fill="none" d="M618 438.0225 L618 447.0052" clip-path="url(#clipPath2)"/>
      <path fill="none" d="M618 508.0225 L618 517.0051" clip-path="url(#clipPath2)"/>
      <path fill="none" d="M895 788.0225 L895 797.0051" clip-path="url(#clipPath2)"/>
      <path fill="none" d="M895 858.0225 L895 867.0051" clip-path="url(#clipPath2)"/>
      <path fill="none" d="M618 858.0225 L618 867.0051" clip-path="url(#clipPath2)"/>
      <path fill="none" d="M895 438.0225 L895 447.0052" clip-path="url(#clipPath2)"/>
    </g>
  </g>
</svg>
