<?xml version="1.0" encoding="UTF-8"?><svg xmlns="http://www.w3.org/2000/svg" xmlns:xlink="http://www.w3.org/1999/xlink" fill-opacity="1" color-rendering="auto" color-interpolation="auto" text-rendering="auto" stroke="black" stroke-linecap="square" width="592" stroke-miterlimit="10" shape-rendering="auto" stroke-opacity="1" fill="black" stroke-dasharray="none" font-weight="normal" stroke-width="1" height="489" font-family="'Dialog'" font-style="normal" stroke-linejoin="miter" font-size="12px" stroke-dashoffset="0" image-rendering="auto">
  <!--Generated by ySVG 2.6-->
  <defs id="genericDefs"/>
  <g>
    <defs id="defs1">
      <clipPath clipPathUnits="userSpaceOnUse" id="clipPath1">
        <path d="M0 0 L592 0 L592 489 L0 489 L0 0 Z"/>
      </clipPath>
      <clipPath clipPathUnits="userSpaceOnUse" id="clipPath2">
        <path d="M262 86 L854 86 L854 575 L262 575 L262 86 Z"/>
      </clipPath>
    </defs>
    <g fill="white" text-rendering="geometricPrecision" shape-rendering="geometricPrecision" transform="translate(-262,-86)" stroke="white">
      <rect x="262" width="592" height="489" y="86" clip-path="url(#clipPath2)" stroke="none"/>
    </g>
    <g text-rendering="geometricPrecision" stroke-miterlimit="1.45" shape-rendering="geometricPrecision" transform="matrix(1,0,0,1,-262,-86)" stroke-linecap="butt">
      <rect x="430" y="121" clip-path="url(#clipPath2)" fill="none" width="166.5" rx="29" ry="29" height="58"/>
      <text x="492.2793" xml:space="preserve" y="154.7139" clip-path="url(#clipPath2)" font-family="sans-serif" stroke="none">Начало</text>
    </g>
    <g text-rendering="geometricPrecision" stroke-miterlimit="1.45" shape-rendering="geometricPrecision" transform="matrix(1,0,0,1,-262,-86)" stroke-linecap="butt">
      <path fill="none" d="M513.25 191 L593.25 220 L513.25 249 L433.25 220 Z" clip-path="url(#clipPath2)"/>
      <text x="466.8936" xml:space="preserve" y="217.3633" clip-path="url(#clipPath2)" font-family="sans-serif" stroke="none">Есть ли рейтинг </text>
      <text x="469.624" xml:space="preserve" y="232.0645" clip-path="url(#clipPath2)" font-family="sans-serif" stroke="none">у этого товара?</text>
    </g>
    <g text-rendering="geometricPrecision" stroke-miterlimit="1.45" shape-rendering="geometricPrecision" transform="matrix(1,0,0,1,-262,-86)" stroke-linecap="butt">
      <path fill="none" d="M277.75 326 L444.25 326 L444.25 384 L277.75 384 Z" clip-path="url(#clipPath2)"/>
      <text x="280.7295" xml:space="preserve" y="352.3633" clip-path="url(#clipPath2)" font-family="sans-serif" stroke="none">Установить текущий рейтинг</text>
      <text x="304.4307" xml:space="preserve" y="367.0645" clip-path="url(#clipPath2)" font-family="sans-serif" stroke="none">в качестве среднего</text>
    </g>
    <g text-rendering="geometricPrecision" stroke-miterlimit="1.45" shape-rendering="geometricPrecision" transform="matrix(1,0,0,1,-262,-86)" stroke-linecap="butt">
      <path fill="none" d="M593.25 249 L759.75 249 L759.75 307 L593.25 307 Z" clip-path="url(#clipPath2)"/>
      <text x="601.2627" xml:space="preserve" y="268.0127" clip-path="url(#clipPath2)" font-family="sans-serif" stroke="none">Получить сумму рейтингов</text>
      <text x="600.9785" xml:space="preserve" y="282.7139" clip-path="url(#clipPath2)" font-family="sans-serif" stroke="none">для данного продаваемого</text>
      <text x="657.2168" xml:space="preserve" y="297.415" clip-path="url(#clipPath2)" font-family="sans-serif" stroke="none">товара</text>
    </g>
    <g text-rendering="geometricPrecision" stroke-miterlimit="1.45" shape-rendering="geometricPrecision" transform="matrix(1,0,0,1,-262,-86)" stroke-linecap="butt">
      <path fill="none" d="M593.25 326 L759.75 326 L759.75 384 L593.25 384 Z" clip-path="url(#clipPath2)"/>
      <text x="619.4854" xml:space="preserve" y="352.3633" clip-path="url(#clipPath2)" font-family="sans-serif" stroke="none">Вычислить среднее </text>
      <text x="599.3965" xml:space="preserve" y="367.0645" clip-path="url(#clipPath2)" font-family="sans-serif" stroke="none">арифметическое рейтингов</text>
    </g>
    <g text-rendering="geometricPrecision" stroke-miterlimit="1.45" shape-rendering="geometricPrecision" transform="matrix(1,0,0,1,-262,-86)" stroke-linecap="butt">
      <path fill="none" d="M593.25 398 L759.75 398 L759.75 456 L593.25 456 Z" clip-path="url(#clipPath2)"/>
      <text x="593.1152" xml:space="preserve" y="417.0127" clip-path="url(#clipPath2)" font-family="sans-serif" stroke="none">Обновить значение среднего </text>
      <text x="605.5928" xml:space="preserve" y="431.7139" clip-path="url(#clipPath2)" font-family="sans-serif" stroke="none">рейтинга у продаваемого</text>
      <text x="657.2168" xml:space="preserve" y="446.415" clip-path="url(#clipPath2)" font-family="sans-serif" stroke="none">товара</text>
    </g>
    <g text-rendering="geometricPrecision" stroke-miterlimit="1.45" shape-rendering="geometricPrecision" transform="matrix(1,0,0,1,-262,-86)" stroke-linecap="butt">
      <rect x="430" y="502" clip-path="url(#clipPath2)" fill="none" width="166.5" rx="29" ry="29" height="58"/>
      <text x="496.3311" xml:space="preserve" y="535.7139" clip-path="url(#clipPath2)" font-family="sans-serif" stroke="none">Конец</text>
    </g>
    <g text-rendering="geometricPrecision" stroke-miterlimit="1.45" shape-rendering="geometricPrecision" transform="matrix(1,0,0,1,-262,-86)" stroke-linecap="butt">
      <path fill="none" d="M673.625 101.5 L650 101.5 L650 198.5 L673.625 198.5" clip-path="url(#clipPath2)"/>
      <text x="657.2773" xml:space="preserve" y="117.9609" clip-path="url(#clipPath2)" font-family="sans-serif" stroke="none">Вход: </text>
      <text x="657.2773" xml:space="preserve" y="132.6621" clip-path="url(#clipPath2)" font-family="sans-serif" stroke="none">Новый отзвыв о</text>
      <text x="657.2773" xml:space="preserve" y="147.3633" clip-path="url(#clipPath2)" font-family="sans-serif" stroke="none">продаваемом товаре</text>
      <text x="657.2773" xml:space="preserve" y="162.0645" clip-path="url(#clipPath2)" font-family="sans-serif" stroke="none">Выход:</text>
      <text x="657.2773" xml:space="preserve" y="176.7656" clip-path="url(#clipPath2)" font-family="sans-serif" stroke="none">Обновленный средний рейтинг</text>
      <text x="657.2773" xml:space="preserve" y="191.4668" clip-path="url(#clipPath2)" font-family="sans-serif" stroke="none">продаваемого товара</text>
    </g>
    <g text-rendering="geometricPrecision" stroke-miterlimit="1.45" shape-rendering="geometricPrecision" transform="matrix(1,0,0,1,-262,-86)" stroke-linecap="butt">
      <path fill="none" d="M513.25 179.0186 L513.25 190.9848" clip-path="url(#clipPath2)"/>
    </g>
    <g text-rendering="geometricPrecision" stroke-miterlimit="1.45" shape-rendering="geometricPrecision" transform="matrix(1,0,0,1,-262,-86)" stroke-linecap="butt">
      <path fill="none" d="M433.2221 220 L361 220 L361 326.0291" clip-path="url(#clipPath2)"/>
      <path fill="none" d="M593.2409 220 L676.5 220 L676.5 248.9717" clip-path="url(#clipPath2)"/>
      <path fill="none" d="M676.5 306.9878 L676.5 325.977" clip-path="url(#clipPath2)"/>
      <path fill="none" d="M676.5 384.0039 L676.5 397.986" clip-path="url(#clipPath2)"/>
      <path fill="none" d="M361 383.9905 L361 482 L513.25 482 L513.25 501.9541" clip-path="url(#clipPath2)"/>
      <path fill="none" d="M676.5 455.9771 L676.5 482 L513.25 482 L513.25 501.9541" clip-path="url(#clipPath2)"/>
      <path fill="none" stroke-dasharray="6,2" d="M650.0183 150 L596.493 150" clip-path="url(#clipPath2)"/>
    </g>
  </g>
</svg>
