<?xml version="1.0" encoding="UTF-8"?><svg xmlns="http://www.w3.org/2000/svg" xmlns:xlink="http://www.w3.org/1999/xlink" fill-opacity="1" color-rendering="auto" color-interpolation="auto" text-rendering="auto" stroke="black" stroke-linecap="square" width="628" stroke-miterlimit="10" shape-rendering="auto" stroke-opacity="1" fill="black" stroke-dasharray="none" font-weight="normal" stroke-width="1" height="961" font-family="'Dialog'" font-style="normal" stroke-linejoin="miter" font-size="12px" stroke-dashoffset="0" image-rendering="auto">
  <!--Generated by ySVG 2.6-->
  <defs id="genericDefs"/>
  <g>
    <defs id="defs1">
      <clipPath clipPathUnits="userSpaceOnUse" id="clipPath1">
        <path d="M0 0 L628 0 L628 961 L0 961 L0 0 Z"/>
      </clipPath>
      <clipPath clipPathUnits="userSpaceOnUse" id="clipPath2">
        <path d="M436 -210 L1064 -210 L1064 751 L436 751 L436 -210 Z"/>
      </clipPath>
    </defs>
    <g fill="white" text-rendering="geometricPrecision" shape-rendering="geometricPrecision" transform="translate(-436,210)" stroke="white">
      <rect x="436" width="628" height="961" y="-210" clip-path="url(#clipPath2)" stroke="none"/>
    </g>
    <g text-rendering="geometricPrecision" stroke-miterlimit="1.45" shape-rendering="geometricPrecision" transform="matrix(1,0,0,1,-436,210)" stroke-linecap="butt">
      <rect x="522.5" y="-141" clip-path="url(#clipPath2)" fill="none" width="176" rx="28.5" ry="28.5" height="57"/>
      <text x="587.584" xml:space="preserve" y="-108.3457" clip-path="url(#clipPath2)" font-family="sans-serif" stroke="none">Начало</text>
    </g>
    <g text-rendering="geometricPrecision" stroke-miterlimit="1.45" shape-rendering="geometricPrecision" transform="matrix(1,0,0,1,-436,210)" stroke-linecap="butt">
      <path fill="none" d="M757.625 -194.5 L728.5 -194.5 L728.5 -30.5 L757.625 -30.5" clip-path="url(#clipPath2)"/>
      <text x="735.2246" xml:space="preserve" y="-171.2051" clip-path="url(#clipPath2)" font-family="sans-serif" stroke="none">Алгоритм, использующий Z-буфер</text>
      <text x="735.2246" xml:space="preserve" y="-157.2363" clip-path="url(#clipPath2)" font-family="sans-serif" stroke="none">Вход:</text>
      <text x="735.2246" xml:space="preserve" y="-143.2676" clip-path="url(#clipPath2)" font-family="sans-serif" stroke="none">frame - буфер кадра</text>
      <text x="735.2246" xml:space="preserve" y="-129.2988" clip-path="url(#clipPath2)" font-family="sans-serif" stroke="none">z-буфер - буфер глубины</text>
      <text x="735.2246" xml:space="preserve" y="-115.3301" clip-path="url(#clipPath2)" font-family="sans-serif" stroke="none">длина и ширина сцены</text>
      <text x="735.2246" xml:space="preserve" y="-101.3613" clip-path="url(#clipPath2)" font-family="sans-serif" stroke="none">список многоугольников</text>
      <text x="735.2246" xml:space="preserve" y="-87.3926" clip-path="url(#clipPath2)" font-family="sans-serif" stroke="none">цвета многоугольников</text>
      <text x="735.2246" xml:space="preserve" y="-73.4238" clip-path="url(#clipPath2)" font-family="sans-serif" stroke="none">Выход:</text>
      <text x="735.2246" xml:space="preserve" y="-59.4551" clip-path="url(#clipPath2)" font-family="sans-serif" stroke="none">Отрисовка готового</text>
      <text x="735.2246" xml:space="preserve" y="-45.4863" clip-path="url(#clipPath2)" font-family="sans-serif" stroke="none">изображения</text>
    </g>
    <g text-rendering="geometricPrecision" stroke-miterlimit="1.45" shape-rendering="geometricPrecision" transform="matrix(1,0,0,1,-436,210)" stroke-linecap="butt">
      <path fill="none" d="M522.5 -73 L698.5 -73 L698.5 -16 L522.5 -16 Z" clip-path="url(#clipPath2)"/>
      <text x="534.0645" xml:space="preserve" y="-54.3145" clip-path="url(#clipPath2)" font-family="sans-serif" stroke="none">Заполнить буфер кадра</text>
      <text x="543.4248" xml:space="preserve" y="-40.3457" clip-path="url(#clipPath2)" font-family="sans-serif" stroke="none">фоновым значением </text>
      <text x="528.6152" xml:space="preserve" y="-26.377" clip-path="url(#clipPath2)" font-family="sans-serif" stroke="none">интенсивности или цвета</text>
    </g>
    <g text-rendering="geometricPrecision" stroke-miterlimit="1.45" shape-rendering="geometricPrecision" transform="matrix(1,0,0,1,-436,210)" stroke-linecap="butt">
      <path fill="none" d="M522.5 -5 L698.5 -5 L698.5 52 L522.5 52 Z" clip-path="url(#clipPath2)"/>
      <text x="547.6846" xml:space="preserve" y="20.6699" clip-path="url(#clipPath2)" font-family="sans-serif" stroke="none">Заполнить z-буфер </text>
      <text x="524.4609" xml:space="preserve" y="34.6387" clip-path="url(#clipPath2)" font-family="sans-serif" stroke="none">минимальным значением z</text>
    </g>
    <g text-rendering="geometricPrecision" stroke-miterlimit="1.45" shape-rendering="geometricPrecision" transform="matrix(1,0,0,1,-436,210)" stroke-linecap="butt">
      <path fill="none" d="M532.5 63 L688.5 63 L698.5 73 L698.5 120 L522.5 120 L522.5 73 Z" clip-path="url(#clipPath2)"/>
      <text x="526.7373" xml:space="preserve" y="88.6699" clip-path="url(#clipPath2)" font-family="sans-serif" stroke="none">Цикл по многоугольникам</text>
      <text x="590.7656" xml:space="preserve" y="102.6387" clip-path="url(#clipPath2)" font-family="sans-serif" stroke="none">сцены</text>
    </g>
    <g text-rendering="geometricPrecision" stroke-miterlimit="1.45" shape-rendering="geometricPrecision" transform="matrix(1,0,0,1,-436,210)" stroke-linecap="butt">
      <path fill="none" d="M532.5 131 L688.5 131 L698.5 141 L698.5 188 L522.5 188 L522.5 141 Z" clip-path="url(#clipPath2)"/>
      <text x="552.668" xml:space="preserve" y="156.6699" clip-path="url(#clipPath2)" font-family="sans-serif" stroke="none">Цикл по пикселям</text>
      <text x="526.2539" xml:space="preserve" y="170.6387" clip-path="url(#clipPath2)" font-family="sans-serif" stroke="none">текущего многоугольника</text>
    </g>
    <g text-rendering="geometricPrecision" stroke-miterlimit="1.45" shape-rendering="geometricPrecision" transform="matrix(1,0,0,1,-436,210)" stroke-linecap="butt">
      <path fill="none" d="M522.5 199 L698.5 199 L698.5 256 L522.5 256 Z" clip-path="url(#clipPath2)"/>
      <text x="543.5625" xml:space="preserve" y="224.6699" clip-path="url(#clipPath2)" font-family="sans-serif" stroke="none">Вычислить глубину z</text>
      <text x="567.1143" xml:space="preserve" y="238.6387" clip-path="url(#clipPath2)" font-family="sans-serif" stroke="none">пикселя (x, y)</text>
    </g>
    <g text-rendering="geometricPrecision" stroke-miterlimit="1.45" shape-rendering="geometricPrecision" transform="matrix(1,0,0,1,-436,210)" stroke-linecap="butt">
      <path fill="none" d="M610.5 267 L698.5 295.5 L610.5 324 L522.5 295.5 Z" clip-path="url(#clipPath2)"/>
      <text x="552.624" xml:space="preserve" y="299.6543" clip-path="url(#clipPath2)" font-family="sans-serif" stroke="none">z &gt; z-буфер(x, y) ?</text>
    </g>
    <g text-rendering="geometricPrecision" stroke-miterlimit="1.45" shape-rendering="geometricPrecision" transform="matrix(1,0,0,1,-436,210)" stroke-linecap="butt">
      <path fill="none" d="M680 315.5 L856 315.5 L856 372.5 L680 372.5 Z" clip-path="url(#clipPath2)"/>
      <text x="713.1943" xml:space="preserve" y="348.1543" clip-path="url(#clipPath2)" font-family="sans-serif" stroke="none">z-буфер(x, y) := z</text>
    </g>
    <g text-rendering="geometricPrecision" stroke-miterlimit="1.45" shape-rendering="geometricPrecision" transform="matrix(1,0,0,1,-436,210)" stroke-linecap="butt">
      <path fill="none" d="M680 383.5 L856 383.5 L856 440.5 L680 440.5 Z" clip-path="url(#clipPath2)"/>
      <text x="686.6719" xml:space="preserve" y="416.1543" clip-path="url(#clipPath2)" font-family="sans-serif" stroke="none">frame(x, y) := frameParam</text>
    </g>
    <g text-rendering="geometricPrecision" stroke-miterlimit="1.45" shape-rendering="geometricPrecision" transform="matrix(1,0,0,1,-436,210)" stroke-linecap="butt">
      <path fill="none" d="M906.375 387.75 L886 387.75 L886 436.25 L906.375 436.25" clip-path="url(#clipPath2)"/>
      <text x="892.0107" xml:space="preserve" y="402.1855" clip-path="url(#clipPath2)" font-family="sans-serif" stroke="none">frameParam - текущего </text>
      <text x="892.0107" xml:space="preserve" y="416.1543" clip-path="url(#clipPath2)" font-family="sans-serif" stroke="none">многоугольника</text>
      <text x="892.0107" xml:space="preserve" y="430.123" clip-path="url(#clipPath2)" font-family="sans-serif" stroke="none">для буфера кадра</text>
    </g>
    <g text-rendering="geometricPrecision" stroke-miterlimit="1.45" shape-rendering="geometricPrecision" transform="matrix(1,0,0,1,-436,210)" stroke-linecap="butt">
      <path fill="none" d="M522.5 470.5 L698.5 470.5 L698.5 517.5 L688.5 527.5 L532.5 527.5 L522.5 517.5 Z" clip-path="url(#clipPath2)"/>
      <text x="528.0293" xml:space="preserve" y="496.1699" clip-path="url(#clipPath2)" font-family="sans-serif" stroke="none">Конец цикла по пикселям</text>
      <text x="526.2539" xml:space="preserve" y="510.1387" clip-path="url(#clipPath2)" font-family="sans-serif" stroke="none">текущего многоугольника</text>
    </g>
    <g text-rendering="geometricPrecision" stroke-miterlimit="1.45" shape-rendering="geometricPrecision" transform="matrix(1,0,0,1,-436,210)" stroke-linecap="butt">
      <path fill="none" d="M522.5 539.7333 L698.5 539.7333 L698.5 586.7333 L688.5 596.7333 L532.5 596.7333 L522.5 586.7333 Z" clip-path="url(#clipPath2)"/>
      <text x="558.4365" xml:space="preserve" y="565.4033" clip-path="url(#clipPath2)" font-family="sans-serif" stroke="none">Конец цикла по </text>
      <text x="532.5205" xml:space="preserve" y="579.372" clip-path="url(#clipPath2)" font-family="sans-serif" stroke="none">многоугольникам сцены</text>
    </g>
    <g text-rendering="geometricPrecision" stroke-miterlimit="1.45" shape-rendering="geometricPrecision" transform="matrix(1,0,0,1,-436,210)" stroke-linecap="butt">
      <path fill="none" d="M537.035 608.9667 L698.5 608.9667 L683.965 665.9667 L522.5 665.9667 Z" clip-path="url(#clipPath2)"/>
      <text x="553.0312" xml:space="preserve" y="634.6366" clip-path="url(#clipPath2)" font-family="sans-serif" stroke="none">Вывести итоговое</text>
      <text x="567.9434" xml:space="preserve" y="648.6053" clip-path="url(#clipPath2)" font-family="sans-serif" stroke="none">изображение</text>
    </g>
    <g text-rendering="geometricPrecision" stroke-miterlimit="1.45" shape-rendering="geometricPrecision" transform="matrix(1,0,0,1,-436,210)" stroke-linecap="butt">
      <rect x="522.5" y="678.2" clip-path="url(#clipPath2)" fill="none" width="176" rx="28.5" ry="28.5" height="57"/>
      <text x="590.8711" xml:space="preserve" y="710.8543" clip-path="url(#clipPath2)" font-family="sans-serif" stroke="none">Конец</text>
    </g>
    <g text-rendering="geometricPrecision" stroke-miterlimit="1.45" stroke-dasharray="6,2" shape-rendering="geometricPrecision" transform="matrix(1,0,0,1,-436,210)" stroke-linecap="butt">
      <path fill="none" d="M728.5229 -112.5 L698.5273 -112.5" clip-path="url(#clipPath2)"/>
    </g>
    <g text-rendering="geometricPrecision" stroke-miterlimit="1.45" shape-rendering="geometricPrecision" transform="matrix(1,0,0,1,-436,210)" stroke-linecap="butt">
      <path fill="none" d="M610.5 -83.9785 L610.5 -72.9908" clip-path="url(#clipPath2)"/>
      <path fill="none" d="M610.5 -15.9785 L610.5 -4.9908" clip-path="url(#clipPath2)"/>
      <path fill="none" d="M610.5 52.0215 L610.5 63.0092" clip-path="url(#clipPath2)"/>
      <path fill="none" d="M610.5 120.0215 L610.5 131.0092" clip-path="url(#clipPath2)"/>
      <path fill="none" d="M610.5 188.0215 L610.5 199.0092" clip-path="url(#clipPath2)"/>
      <path fill="none" d="M610.5 256.0215 L610.5 267.0092" clip-path="url(#clipPath2)"/>
      <path fill="none" d="M698.517 295.5 L768 295.5 L768 315.5347" clip-path="url(#clipPath2)"/>
      <text x="732.5679" xml:space="preserve" y="288.4573" clip-path="url(#clipPath2)" font-family="sans-serif" stroke="none">Да</text>
      <path fill="none" d="M768 372.5215 L768 383.5092" clip-path="url(#clipPath2)"/>
      <path fill="none" stroke-dasharray="6,2" d="M886.0148 412 L856.0212 412" clip-path="url(#clipPath2)"/>
      <path fill="none" d="M768 440.4929 L768 455.3532 L610.5 455.3532 L610.5 470.4846" clip-path="url(#clipPath2)"/>
      <path fill="none" d="M522.502 295.5 L451.9255 295.5 L451.9255 455.3532 L610.5 455.3532 L610.5 470.4846" clip-path="url(#clipPath2)"/>
      <path fill="none" d="M610.5 527.4979 L610.5 539.7106" clip-path="url(#clipPath2)"/>
      <path fill="none" d="M610.5 596.7313 L610.5 608.9439" clip-path="url(#clipPath2)"/>
      <path fill="none" d="M610.5 665.9645 L610.5 678.1772" clip-path="url(#clipPath2)"/>
    </g>
  </g>
</svg>
