<?xml version="1.0" encoding="UTF-8"?><svg xmlns="http://www.w3.org/2000/svg" xmlns:xlink="http://www.w3.org/1999/xlink" fill-opacity="1" color-rendering="auto" color-interpolation="auto" text-rendering="auto" stroke="black" stroke-linecap="square" width="803" stroke-miterlimit="10" shape-rendering="auto" stroke-opacity="1" fill="black" stroke-dasharray="none" font-weight="normal" stroke-width="1" height="1237" font-family="'Dialog'" font-style="normal" stroke-linejoin="miter" font-size="12px" stroke-dashoffset="0" image-rendering="auto">
  <!--Generated by ySVG 2.6-->
  <defs id="genericDefs"/>
  <g>
    <defs id="defs1">
      <clipPath clipPathUnits="userSpaceOnUse" id="clipPath1">
        <path d="M0 0 L803 0 L803 1237 L0 1237 L0 0 Z"/>
      </clipPath>
      <clipPath clipPathUnits="userSpaceOnUse" id="clipPath2">
        <path d="M531 4 L1334 4 L1334 1241 L531 1241 L531 4 Z"/>
      </clipPath>
    </defs>
    <g fill="white" text-rendering="geometricPrecision" shape-rendering="geometricPrecision" transform="translate(-531,-4)" stroke="white">
      <rect x="531" width="803" height="1237" y="4" clip-path="url(#clipPath2)" stroke="none"/>
    </g>
    <g text-rendering="geometricPrecision" stroke-miterlimit="1.45" shape-rendering="geometricPrecision" transform="matrix(1,0,0,1,-531,-4)" stroke-linecap="butt">
      <rect x="546" y="77.5" clip-path="url(#clipPath2)" fill="none" width="238" rx="30.5" ry="30.5" height="61"/>
      <text x="642.084" xml:space="preserve" y="112.1543" clip-path="url(#clipPath2)" font-family="sans-serif" stroke="none">Начало</text>
    </g>
    <g text-rendering="geometricPrecision" stroke-miterlimit="1.45" shape-rendering="geometricPrecision" transform="matrix(1,0,0,1,-531,-4)" stroke-linecap="butt">
      <path fill="none" d="M850.5 19.5 L823 19.5 L823 196.5 L850.5 196.5" clip-path="url(#clipPath2)"/>
      <text x="829" xml:space="preserve" y="35.3262" clip-path="url(#clipPath2)" font-family="sans-serif" stroke="none">Алгоритм, использующий z-буфер,</text>
      <text x="829" xml:space="preserve" y="49.2949" clip-path="url(#clipPath2)" font-family="sans-serif" stroke="none">объединенный с закраской по Гуро</text>
      <text x="829" xml:space="preserve" y="63.2637" clip-path="url(#clipPath2)" font-family="sans-serif" stroke="none">Вход:</text>
      <text x="829" xml:space="preserve" y="77.2324" clip-path="url(#clipPath2)" font-family="sans-serif" stroke="none">Список граней, представленных</text>
      <text x="829" xml:space="preserve" y="91.2012" clip-path="url(#clipPath2)" font-family="sans-serif" stroke="none">треугольниками</text>
      <text x="829" xml:space="preserve" y="105.1699" clip-path="url(#clipPath2)" font-family="sans-serif" stroke="none">frame - буфер кадра</text>
      <text x="829" xml:space="preserve" y="119.1387" clip-path="url(#clipPath2)" font-family="sans-serif" stroke="none">z-буфер - буфер глубины</text>
      <text x="829" xml:space="preserve" y="133.1074" clip-path="url(#clipPath2)" font-family="sans-serif" stroke="none">длина и ширина сцены</text>
      <text x="829" xml:space="preserve" y="147.0762" clip-path="url(#clipPath2)" font-family="sans-serif" stroke="none">цвета многоугольников</text>
      <text x="829" xml:space="preserve" y="161.0449" clip-path="url(#clipPath2)" font-family="sans-serif" stroke="none">Выход:</text>
      <text x="829" xml:space="preserve" y="175.0137" clip-path="url(#clipPath2)" font-family="sans-serif" stroke="none">Отрисовка готового</text>
      <text x="829" xml:space="preserve" y="188.9824" clip-path="url(#clipPath2)" font-family="sans-serif" stroke="none">изображения</text>
    </g>
    <g text-rendering="geometricPrecision" stroke-miterlimit="1.45" shape-rendering="geometricPrecision" transform="matrix(1,0,0,1,-531,-4)" stroke-linecap="butt">
      <path fill="none" d="M556 285.5 L774 285.5 L784 295.5 L784 346.5 L546 346.5 L546 295.5 Z" clip-path="url(#clipPath2)"/>
      <text x="597.9189" xml:space="preserve" y="313.1699" clip-path="url(#clipPath2)" font-family="sans-serif" stroke="none">Цикл по всем граням</text>
      <text x="610.2236" xml:space="preserve" y="327.1387" clip-path="url(#clipPath2)" font-family="sans-serif" stroke="none">из списка граней</text>
    </g>
    <g text-rendering="geometricPrecision" stroke-miterlimit="1.45" shape-rendering="geometricPrecision" transform="matrix(1,0,0,1,-531,-4)" stroke-linecap="butt">
      <rect fill="none" x="546" width="238" height="61" y="355.5" clip-path="url(#clipPath2)"/>
      <path fill="none" d="M556 355.5 L556 416.5 M774 355.5 L774 416.5 M556 355.5 Z" clip-path="url(#clipPath2)"/>
      <text x="597.0459" xml:space="preserve" y="376.1855" clip-path="url(#clipPath2)" font-family="sans-serif" stroke="none">Вычисление вектора </text>
      <text x="600.1602" xml:space="preserve" y="390.1543" clip-path="url(#clipPath2)" font-family="sans-serif" stroke="none">внешней нормали к </text>
      <text x="600.7695" xml:space="preserve" y="404.123" clip-path="url(#clipPath2)" font-family="sans-serif" stroke="none">грани треугольника</text>
    </g>
    <g text-rendering="geometricPrecision" stroke-miterlimit="1.45" shape-rendering="geometricPrecision" transform="matrix(1,0,0,1,-531,-4)" stroke-linecap="butt">
      <rect fill="none" x="546" width="238" height="61" y="565.5" clip-path="url(#clipPath2)"/>
      <path fill="none" d="M556 565.5 L556 626.5 M774 565.5 L774 626.5 M556 565.5 Z" clip-path="url(#clipPath2)"/>
      <text x="595.4229" xml:space="preserve" y="579.2012" clip-path="url(#clipPath2)" font-family="sans-serif" stroke="none">Вычисление векторов</text>
      <text x="572.1582" xml:space="preserve" y="593.1699" clip-path="url(#clipPath2)" font-family="sans-serif" stroke="none">нормалей к каждой вершине</text>
      <text x="560.5918" xml:space="preserve" y="607.1387" clip-path="url(#clipPath2)" font-family="sans-serif" stroke="none">треугольника путем усреднения</text>
      <text x="561.6553" xml:space="preserve" y="621.1074" clip-path="url(#clipPath2)" font-family="sans-serif" stroke="none">нормалей примыкающих граней</text>
    </g>
    <g text-rendering="geometricPrecision" stroke-miterlimit="1.45" shape-rendering="geometricPrecision" transform="matrix(1,0,0,1,-531,-4)" stroke-linecap="butt">
      <rect fill="none" x="546" width="238" height="61" y="635.5" clip-path="url(#clipPath2)"/>
      <path fill="none" d="M556 635.5 L556 696.5 M774 635.5 L774 696.5 M556 635.5 Z" clip-path="url(#clipPath2)"/>
      <text x="574.5957" xml:space="preserve" y="663.1699" clip-path="url(#clipPath2)" font-family="sans-serif" stroke="none">Вычисление интенсивности </text>
      <text x="582.21" xml:space="preserve" y="677.1387" clip-path="url(#clipPath2)" font-family="sans-serif" stroke="none">в вершинах треугольника</text>
    </g>
    <g text-rendering="geometricPrecision" stroke-miterlimit="1.45" shape-rendering="geometricPrecision" transform="matrix(1,0,0,1,-531,-4)" stroke-linecap="butt">
      <rect fill="none" x="546" width="238" height="61" y="705.5" clip-path="url(#clipPath2)"/>
      <path fill="none" d="M556 705.5 L556 766.5 M774 705.5 L774 766.5 M556 705.5 Z" clip-path="url(#clipPath2)"/>
      <text x="586.5898" xml:space="preserve" y="726.1855" clip-path="url(#clipPath2)" font-family="sans-serif" stroke="none">Вычисление yMin и yMax</text>
      <text x="605.4951" xml:space="preserve" y="740.1543" clip-path="url(#clipPath2)" font-family="sans-serif" stroke="none">значений по оси Y </text>
      <text x="603.5293" xml:space="preserve" y="754.123" clip-path="url(#clipPath2)" font-family="sans-serif" stroke="none">для текущей грани</text>
    </g>
    <g text-rendering="geometricPrecision" stroke-miterlimit="1.45" shape-rendering="geometricPrecision" transform="matrix(1,0,0,1,-531,-4)" stroke-linecap="butt">
      <path fill="none" d="M556 775.5 L774 775.5 L784 785.5 L784 836.5 L546 836.5 L546 785.5 Z" clip-path="url(#clipPath2)"/>
      <text x="581.2578" xml:space="preserve" y="803.1699" clip-path="url(#clipPath2)" font-family="sans-serif" stroke="none">Цикл по y от yMin до yMax</text>
      <text x="633.5527" xml:space="preserve" y="817.1387" clip-path="url(#clipPath2)" font-family="sans-serif" stroke="none">с шагом 1</text>
    </g>
    <g text-rendering="geometricPrecision" stroke-miterlimit="1.45" shape-rendering="geometricPrecision" transform="matrix(1,0,0,1,-531,-4)" stroke-linecap="butt">
      <rect fill="none" x="546" width="238" height="61" y="845.5" clip-path="url(#clipPath2)"/>
      <path fill="none" d="M556 845.5 L556 906.5 M774 845.5 L774 906.5 M556 845.5 Z" clip-path="url(#clipPath2)"/>
      <text x="586.5898" xml:space="preserve" y="859.2012" clip-path="url(#clipPath2)" font-family="sans-serif" stroke="none">Вычисление xMin и xMax</text>
      <text x="605.0498" xml:space="preserve" y="873.1699" clip-path="url(#clipPath2)" font-family="sans-serif" stroke="none">значений по оси X </text>
      <text x="577.915" xml:space="preserve" y="887.1387" clip-path="url(#clipPath2)" font-family="sans-serif" stroke="none">для текущей сканирующей</text>
      <text x="643.2031" xml:space="preserve" y="901.1074" clip-path="url(#clipPath2)" font-family="sans-serif" stroke="none">строки</text>
    </g>
    <g text-rendering="geometricPrecision" stroke-miterlimit="1.45" shape-rendering="geometricPrecision" transform="matrix(1,0,0,1,-531,-4)" stroke-linecap="butt">
      <path fill="none" d="M897 298.5 L1135 298.5 L1135 359.5 L897 359.5 Z" clip-path="url(#clipPath2)"/>
      <text x="945.708" xml:space="preserve" y="312.2012" clip-path="url(#clipPath2)" font-family="sans-serif" stroke="none">Вычисление значений</text>
      <text x="914.7734" xml:space="preserve" y="326.1699" clip-path="url(#clipPath2)" font-family="sans-serif" stroke="none">интенсивности для xMin и xMax</text>
      <text x="914.6123" xml:space="preserve" y="340.1387" clip-path="url(#clipPath2)" font-family="sans-serif" stroke="none">путем линейной интерполяции </text>
      <text x="926.8057" xml:space="preserve" y="354.1074" clip-path="url(#clipPath2)" font-family="sans-serif" stroke="none">интенсивности вдоль ребер</text>
    </g>
    <g text-rendering="geometricPrecision" stroke-miterlimit="1.45" shape-rendering="geometricPrecision" transform="matrix(1,0,0,1,-531,-4)" stroke-linecap="butt">
      <path fill="none" d="M907 368.5 L1125 368.5 L1135 378.5 L1135 429.5 L897 429.5 L897 378.5 Z" clip-path="url(#clipPath2)"/>
      <text x="932.2578" xml:space="preserve" y="396.1699" clip-path="url(#clipPath2)" font-family="sans-serif" stroke="none">Цикл по x от xMin до xMax</text>
      <text x="984.5527" xml:space="preserve" y="410.1387" clip-path="url(#clipPath2)" font-family="sans-serif" stroke="none">с шагом 1</text>
    </g>
    <g text-rendering="geometricPrecision" stroke-miterlimit="1.45" shape-rendering="geometricPrecision" transform="matrix(1,0,0,1,-531,-4)" stroke-linecap="butt">
      <path fill="none" d="M1081 640 L1319 640 L1319 701 L1081 701 Z" clip-path="url(#clipPath2)"/>
      <text x="1102.0781" xml:space="preserve" y="653.7012" clip-path="url(#clipPath2)" font-family="sans-serif" stroke="none">Вычисление значения intensity</text>
      <text x="1095.1611" xml:space="preserve" y="667.6699" clip-path="url(#clipPath2)" font-family="sans-serif" stroke="none">интенсивности для пикселя (x,y)</text>
      <text x="1100.5195" xml:space="preserve" y="681.6387" clip-path="url(#clipPath2)" font-family="sans-serif" stroke="none">путем линейной интерполяции</text>
      <text x="1111.5879" xml:space="preserve" y="695.6074" clip-path="url(#clipPath2)" font-family="sans-serif" stroke="none">вдоль сканирующей строки</text>
    </g>
    <g text-rendering="geometricPrecision" stroke-miterlimit="1.45" shape-rendering="geometricPrecision" transform="matrix(1,0,0,1,-531,-4)" stroke-linecap="butt">
      <path fill="none" d="M897 888.5 L1135 888.5 L1135 939.5 L1125 949.5 L907 949.5 L897 939.5 Z" clip-path="url(#clipPath2)"/>
      <text x="960.3857" xml:space="preserve" y="923.1543" clip-path="url(#clipPath2)" font-family="sans-serif" stroke="none">Конец цикла по x</text>
    </g>
    <g text-rendering="geometricPrecision" stroke-miterlimit="1.45" shape-rendering="geometricPrecision" transform="matrix(1,0,0,1,-531,-4)" stroke-linecap="butt">
      <path fill="none" d="M897 958.5 L1135 958.5 L1135 1009.5 L1125 1019.5 L907 1019.5 L897 1009.5 Z" clip-path="url(#clipPath2)"/>
      <text x="960.3857" xml:space="preserve" y="993.1543" clip-path="url(#clipPath2)" font-family="sans-serif" stroke="none">Конец цикла по y</text>
    </g>
    <g text-rendering="geometricPrecision" stroke-miterlimit="1.45" shape-rendering="geometricPrecision" transform="matrix(1,0,0,1,-531,-4)" stroke-linecap="butt">
      <path fill="none" d="M546 425.5 L784 425.5 L784 476.5 L774 486.5 L556 486.5 L546 476.5 Z" clip-path="url(#clipPath2)"/>
      <text x="573.2803" xml:space="preserve" y="460.1543" clip-path="url(#clipPath2)" font-family="sans-serif" stroke="none">Конец цикла по всем граням</text>
    </g>
    <g text-rendering="geometricPrecision" stroke-miterlimit="1.45" shape-rendering="geometricPrecision" transform="matrix(1,0,0,1,-531,-4)" stroke-linecap="butt">
      <path fill="none" d="M556 495.5 L774 495.5 L784 505.5 L784 556.5 L546 556.5 L546 505.5 Z" clip-path="url(#clipPath2)"/>
      <text x="597.9189" xml:space="preserve" y="523.1699" clip-path="url(#clipPath2)" font-family="sans-serif" stroke="none">Цикл по всем граням</text>
      <text x="610.2236" xml:space="preserve" y="537.1387" clip-path="url(#clipPath2)" font-family="sans-serif" stroke="none">из списка граней</text>
    </g>
    <g text-rendering="geometricPrecision" stroke-miterlimit="1.45" shape-rendering="geometricPrecision" transform="matrix(1,0,0,1,-531,-4)" stroke-linecap="butt">
      <path fill="none" d="M897 1028.5 L1135 1028.5 L1135 1079.5 L1125 1089.5 L907 1089.5 L897 1079.5 Z" clip-path="url(#clipPath2)"/>
      <text x="924.2803" xml:space="preserve" y="1063.1543" clip-path="url(#clipPath2)" font-family="sans-serif" stroke="none">Конец цикла по всем граням</text>
    </g>
    <g text-rendering="geometricPrecision" stroke-miterlimit="1.45" shape-rendering="geometricPrecision" transform="matrix(1,0,0,1,-531,-4)" stroke-linecap="butt">
      <rect x="903" y="1164.5" clip-path="url(#clipPath2)" fill="none" width="238" rx="30.5" ry="30.5" height="61"/>
      <text x="1002.3711" xml:space="preserve" y="1199.1543" clip-path="url(#clipPath2)" font-family="sans-serif" stroke="none">Конец</text>
    </g>
    <g text-rendering="geometricPrecision" stroke-miterlimit="1.45" shape-rendering="geometricPrecision" transform="matrix(1,0,0,1,-531,-4)" stroke-linecap="butt">
      <circle fill="none" r="30.5" clip-path="url(#clipPath2)" cx="665" cy="946"/>
      <text x="660.8955" xml:space="preserve" y="950.1543" clip-path="url(#clipPath2)" font-family="sans-serif" stroke="none">A</text>
    </g>
    <g text-rendering="geometricPrecision" stroke-miterlimit="1.45" shape-rendering="geometricPrecision" transform="matrix(1,0,0,1,-531,-4)" stroke-linecap="butt">
      <circle fill="none" r="30.5" clip-path="url(#clipPath2)" cx="1016" cy="259"/>
      <text x="1011.8955" xml:space="preserve" y="263.1543" clip-path="url(#clipPath2)" font-family="sans-serif" stroke="none">A</text>
    </g>
    <g text-rendering="geometricPrecision" stroke-miterlimit="1.45" shape-rendering="geometricPrecision" transform="matrix(1,0,0,1,-531,-4)" stroke-linecap="butt">
      <path fill="none" d="M546 153.5 L784 153.5 L784 210.5 L546 210.5 Z" clip-path="url(#clipPath2)"/>
      <text x="588.5645" xml:space="preserve" y="172.1855" clip-path="url(#clipPath2)" font-family="sans-serif" stroke="none">Заполнить буфер кадра</text>
      <text x="597.9248" xml:space="preserve" y="186.1543" clip-path="url(#clipPath2)" font-family="sans-serif" stroke="none">фоновым значением </text>
      <text x="583.1152" xml:space="preserve" y="200.123" clip-path="url(#clipPath2)" font-family="sans-serif" stroke="none">интенсивности или цвета</text>
    </g>
    <g text-rendering="geometricPrecision" stroke-miterlimit="1.45" shape-rendering="geometricPrecision" transform="matrix(1,0,0,1,-531,-4)" stroke-linecap="butt">
      <path fill="none" d="M546 219.5 L784 219.5 L784 276.5 L546 276.5 Z" clip-path="url(#clipPath2)"/>
      <text x="602.1846" xml:space="preserve" y="245.1699" clip-path="url(#clipPath2)" font-family="sans-serif" stroke="none">Заполнить z-буфер </text>
      <text x="578.9609" xml:space="preserve" y="259.1387" clip-path="url(#clipPath2)" font-family="sans-serif" stroke="none">минимальным значением z</text>
    </g>
    <g text-rendering="geometricPrecision" stroke-miterlimit="1.45" shape-rendering="geometricPrecision" transform="matrix(1,0,0,1,-531,-4)" stroke-linecap="butt">
      <path fill="none" d="M897 438.5 L1135 438.5 L1135 499.5 L897 499.5 Z" clip-path="url(#clipPath2)"/>
      <text x="949.0625" xml:space="preserve" y="466.1699" clip-path="url(#clipPath2)" font-family="sans-serif" stroke="none">Вычислить глубину z</text>
      <text x="972.6143" xml:space="preserve" y="480.1387" clip-path="url(#clipPath2)" font-family="sans-serif" stroke="none">пикселя (x, y)</text>
    </g>
    <g text-rendering="geometricPrecision" stroke-miterlimit="1.45" shape-rendering="geometricPrecision" transform="matrix(1,0,0,1,-531,-4)" stroke-linecap="butt">
      <path fill="none" d="M1016 508.5 L1132 539 L1016 569.5 L900 539 Z" clip-path="url(#clipPath2)"/>
      <text x="958.124" xml:space="preserve" y="543.1543" clip-path="url(#clipPath2)" font-family="sans-serif" stroke="none">z &gt; z-буфер(x, y) ?</text>
    </g>
    <g text-rendering="geometricPrecision" stroke-miterlimit="1.45" shape-rendering="geometricPrecision" transform="matrix(1,0,0,1,-531,-4)" stroke-linecap="butt">
      <path fill="none" d="M1081 569.5 L1319 569.5 L1319 626.5 L1081 626.5 Z" clip-path="url(#clipPath2)"/>
      <text x="1145.1943" xml:space="preserve" y="602.1543" clip-path="url(#clipPath2)" font-family="sans-serif" stroke="none">z-буфер(x, y) := z</text>
    </g>
    <g text-rendering="geometricPrecision" stroke-miterlimit="1.45" shape-rendering="geometricPrecision" transform="matrix(1,0,0,1,-531,-4)" stroke-linecap="butt">
      <path fill="none" d="M1081 789 L1319 789 L1319 850 L1081 850 Z" clip-path="url(#clipPath2)"/>
      <text x="1140.9727" xml:space="preserve" y="823.6543" clip-path="url(#clipPath2)" font-family="sans-serif" stroke="none">frame(x, y) := color</text>
    </g>
    <g text-rendering="geometricPrecision" stroke-miterlimit="1.45" shape-rendering="geometricPrecision" transform="matrix(1,0,0,1,-531,-4)" stroke-linecap="butt">
      <path fill="none" d="M911.535 1098.5 L1135 1098.5 L1120.465 1155.5 L897 1155.5 Z" clip-path="url(#clipPath2)"/>
      <text x="958.5312" xml:space="preserve" y="1124.1699" clip-path="url(#clipPath2)" font-family="sans-serif" stroke="none">Вывести итоговое</text>
      <text x="973.4434" xml:space="preserve" y="1138.1387" clip-path="url(#clipPath2)" font-family="sans-serif" stroke="none">изображение</text>
    </g>
    <g text-rendering="geometricPrecision" stroke-miterlimit="1.45" shape-rendering="geometricPrecision" transform="matrix(1,0,0,1,-531,-4)" stroke-linecap="butt">
      <path fill="none" d="M1081 714.5 L1319 714.5 L1319 775.5 L1081 775.5 Z" clip-path="url(#clipPath2)"/>
      <text x="1144.6816" xml:space="preserve" y="742.1699" clip-path="url(#clipPath2)" font-family="sans-serif" stroke="none">Вычисление color</text>
      <text x="1136.2236" xml:space="preserve" y="756.1387" clip-path="url(#clipPath2)" font-family="sans-serif" stroke="none">цвета пикселя (x, y)</text>
    </g>
    <g text-rendering="geometricPrecision" stroke-miterlimit="1.45" stroke-dasharray="6,2" shape-rendering="geometricPrecision" transform="matrix(1,0,0,1,-531,-4)" stroke-linecap="butt">
      <path fill="none" d="M822.98 108 L783.9864 108" clip-path="url(#clipPath2)"/>
    </g>
    <g text-rendering="geometricPrecision" stroke-miterlimit="1.45" shape-rendering="geometricPrecision" transform="matrix(1,0,0,1,-531,-4)" stroke-linecap="butt">
      <path fill="none" d="M665 346.5225 L665 355.5052" clip-path="url(#clipPath2)"/>
      <path fill="none" d="M665 626.5225 L665 635.5051" clip-path="url(#clipPath2)"/>
      <path fill="none" d="M665 696.5225 L665 705.5051" clip-path="url(#clipPath2)"/>
      <path fill="none" d="M665 766.5225 L665 775.5051" clip-path="url(#clipPath2)"/>
      <path fill="none" d="M665 836.5225 L665 845.5051" clip-path="url(#clipPath2)"/>
      <path fill="none" d="M1016 359.5225 L1016 368.5052" clip-path="url(#clipPath2)"/>
      <path fill="none" d="M1016 949.5225 L1016 958.5051" clip-path="url(#clipPath2)"/>
      <path fill="none" d="M665 416.5225 L665 425.5052" clip-path="url(#clipPath2)"/>
      <path fill="none" d="M665 486.5225 L665 495.5052" clip-path="url(#clipPath2)"/>
      <path fill="none" d="M665 556.5225 L665 565.5051" clip-path="url(#clipPath2)"/>
      <path fill="none" d="M1016 1019.5225 L1016 1028.5051" clip-path="url(#clipPath2)"/>
      <path fill="none" d="M665 906.5225 L665 915.5051" clip-path="url(#clipPath2)"/>
      <path fill="none" d="M1016 289.5225 L1016 298.5052" clip-path="url(#clipPath2)"/>
      <path fill="none" d="M665 138.5322 L665 153.5167" clip-path="url(#clipPath2)"/>
      <path fill="none" d="M665 210.5205 L665 219.4878" clip-path="url(#clipPath2)"/>
      <path fill="none" d="M665 276.5215 L665 285.5044" clip-path="url(#clipPath2)"/>
      <path fill="none" d="M1016 429.5225 L1016 438.5052" clip-path="url(#clipPath2)"/>
      <path fill="none" d="M1016 499.5225 L1016 508.5052" clip-path="url(#clipPath2)"/>
      <path fill="none" d="M900.0068 539 L836.375 539 L836.375 875 L1016 875 L1016 888.5352" clip-path="url(#clipPath2)"/>
      <path fill="none" d="M1132.0332 539 L1200 539 L1200 569.5083" clip-path="url(#clipPath2)"/>
      <path fill="none" d="M1200 626.4973 L1200 640.0333" clip-path="url(#clipPath2)"/>
      <path fill="none" d="M1200 849.9871 L1200 875 L1016 875 L1016 888.5352" clip-path="url(#clipPath2)"/>
      <path fill="none" d="M1016 1089.5137 L1016 1098.4825" clip-path="url(#clipPath2)"/>
      <path fill="none" d="M1018.5166 1155.5215 L1019.3092 1164.5044" clip-path="url(#clipPath2)"/>
      <path fill="none" d="M1200 701.0203 L1200 714.4633" clip-path="url(#clipPath2)"/>
      <path fill="none" d="M1200 775.5203 L1200 788.9633" clip-path="url(#clipPath2)"/>
    </g>
  </g>
</svg>
